<svg xmlns="http://www.w3.org/2000/svg" width="90" height="30" fill="none" xmlns:v="https://vecta.io/nano"><path d="M76.989 28.111V30H90v-8.518h-1.896v6.629H76.989zm0-28.111v1.889h11.115v6.63H90V0H76.989zm-6.71 14.611v-4.389h2.974c1.45 0 1.971.481 1.971 1.796v.778c0 1.352-.502 1.815-1.971 1.815h-2.974zm4.721.778c1.357-.352 2.305-1.611 2.305-3.111 0-.944-.371-1.796-1.078-2.482-.892-.852-2.082-1.278-3.625-1.278H68.42v12.963h1.859v-5.166h2.788c1.431 0 2.007.592 2.007 2.074v3.093h1.896v-2.796c0-2.037-.483-2.815-1.971-3.037v-.26zm-15.65.426h5.725v-1.704H59.35v-3.889h6.283V8.518h-8.179v12.963h8.458v-1.704H59.35v-3.963zm-6.227.685v.889c0 1.87-.688 2.482-2.416 2.482h-.409c-1.729 0-2.565-.556-2.565-3.13v-3.482c0-2.592.874-3.13 2.602-3.13h.372c1.692 0 2.231.63 2.249 2.371H55c-.186-2.556-1.896-4.166-4.461-4.166-1.245 0-2.286.389-3.067 1.129-1.171 1.093-1.822 2.945-1.822 5.537 0 2.5.558 4.352 1.71 5.5.78.759 1.859 1.167 2.918 1.167 1.115 0 2.138-.445 2.658-1.407h.26v1.222h1.71v-6.685h-5.037V16.5h3.253zm-16.394-6.278h2.026c1.915 0 2.956.481 2.956 3.074v3.407c0 2.592-1.041 3.074-2.956 3.074h-2.026v-9.555zm2.193 11.26c3.55 0 4.87-2.685 4.87-6.481 0-3.852-1.412-6.481-4.907-6.481H34.87v12.963h4.053zm-13.03-5.667h5.725v-1.704h-5.725v-3.889h6.282V8.518h-8.179v12.963h8.458v-1.704h-6.561v-3.963zM14.926 8.518H13.03v12.963h8.55v-1.704h-6.655V8.518zM0 21.482V30h13.011v-1.889H1.896v-6.629H0zM0 0v8.518h1.896v-6.63h11.115V0H0z" fill="#fff"/></svg>