<svg xmlns="http://www.w3.org/2000/svg" width="70" height="40" fill="#fff" fill-rule="evenodd" xmlns:v="https://vecta.io/nano"><path d="M47.935 2.982c0 .854-.692 1.545-1.545 1.545s-1.545-.692-1.545-1.545.692-1.545 1.545-1.545 1.545.692 1.545 1.545zm7.153.725c-.519-1.154-2.654-1.758-6.061-1.543.052.167.088.341.108.519 2.201.105 3.546.652 3.763 1.465.35 1.309-2.403 3.373-7.433 5.565C45.007 4.257 40.423-.021 34.851 0c-5.385.019-9.818 4.047-10.486 9.248-6.51 3.447-10.496 6.945-9.526 9.105.72 1.602 4.674 2.184 10.94.834-.076-.135-.149-.282-.207-.428-5.008.761-8.212.183-8.543-.848-.424-1.317 2.525-3.463 7.767-5.709l.006-.005a104.61 104.61 0 0 1 13.983-4.806c.082-.022.129.097.052.133-6.188 2.865-10.447 5.911-11.184 8.239-.95 3.002 2.998 5.477 7.275 5.462 5.033-.018 9.234-3.537 10.308-8.241 6.703-3.502 10.839-7.081 9.852-9.277zM18.256 37.761c0 .472-.429.794-1.002.794-.34 0-.73-.151-.73-.565 0-.39.344-.594.866-.594.336 0 .644.064.866.15v.214zm-.823-2.468a3.24 3.24 0 0 0-1.438.315l.237.694c.343-.143.658-.236 1.08-.236.601 0 .93.286.93.809v.071a3.18 3.18 0 0 0-1.044-.157c-.825 0-1.531.357-1.531 1.245 0 .777.64 1.173 1.345 1.173.572 0 .966-.235 1.223-.543v.465h.859V36.89c0-1.008-.543-1.595-1.66-1.595zm9.111 2.468c0 .472-.429.794-1.002.794-.34 0-.73-.151-.73-.565 0-.39.344-.594.866-.594.336 0 .644.064.866.15v.214zm-.823-2.468a3.24 3.24 0 0 0-1.438.315l.237.694c.343-.143.658-.236 1.08-.236.601 0 .93.286.93.809v.071a3.18 3.18 0 0 0-1.044-.157c-.824 0-1.531.357-1.531 1.245 0 .777.64 1.173 1.345 1.173.572 0 .966-.235 1.223-.543v.465h.859V36.89c0-1.008-.543-1.595-1.66-1.595zm9.09 1.68c-.057-.558-.386-.994-.959-.994-.529 0-.901.408-.98.994h1.939zm-2.797.272c0-1.085.761-1.974 1.846-1.974 1.202 0 1.81.944 1.81 2.032 0 .078-.007.158-.014.243H32.88c.093.615.53.959 1.087.959.423 0 .723-.158 1.023-.451l.508.451c-.357.429-.851.708-1.545.708-1.104 0-1.939-.8-1.939-1.968zm-9.512 1.882h.866V35.35h-.866v3.777zm5.591-3.778h.866v.586c.243-.357.594-.665 1.18-.665.851 0 1.345.572 1.345 1.452v2.404h-.866V36.98c0-.587-.293-.923-.808-.923-.501 0-.851.351-.851.937v2.132h-.866v-3.777zm-7.412.852v-.851h-.866v3.777h.866v-1.438c0-.935.473-1.516 1.338-1.496v-.915c-.665-.029-1.102.357-1.338.923z"/><path d="M38.028 37.109v.416h1.15v.919c-.251.213-.654.368-1.091.368-.921 0-1.503-.698-1.503-1.579 0-.85.598-1.569 1.443-1.569a1.62 1.62 0 0 1 1.161.435l.278-.327a2.01 2.01 0 0 0-1.423-.511c-1.145 0-1.913.936-1.913 1.983 0 1.09.741 1.969 1.94 1.969.643 0 1.178-.269 1.532-.585v-1.521h-1.575zm6.448 1.703c-.841 0-1.493-.693-1.493-1.581s.657-1.566 1.479-1.566c.843 0 1.493.693 1.493 1.58 0 .879-.642 1.566-1.479 1.566zm0-3.55c-1.099 0-1.947.873-1.947 1.983 0 1.1.838 1.969 1.933 1.969 1.101 0 1.947-.873 1.947-1.984s-.849-1.969-1.933-1.969zm5.407 2.267c0 .736-.539 1.29-1.253 1.29s-1.144-.46-1.144-1.232v-2.238h-.425v2.303c0 .949.596 1.562 1.518 1.562.567 0 1.005-.232 1.304-.69v.603h.425v-3.778h-.425v2.18zm2.751-.103h-.943v-1.684h.965c.616 0 1.007.294 1.007.839 0 .502-.396.845-1.029.845zm.055-2.077h-1.423v3.777h.425v-1.308h.927c.812 0 1.499-.431 1.499-1.254 0-.752-.567-1.215-1.428-1.215zm-10.228-.06c-.395-.011-1.141.175-1.575 1v-.939h-.425v3.778h.425v-1.555c0-1.384.93-1.843 1.575-1.842v-.443zm11.683-5.515c0 .859-.781 1.444-1.821 1.444-.617 0-1.327-.274-1.327-1.027 0-.709.625-1.08 1.574-1.08.611 0 1.171.118 1.574.273v.39zm-1.496-4.488c-1.119 0-1.86.234-2.615.572l.429 1.262c.624-.26 1.197-.429 1.964-.429 1.092 0 1.691.52 1.691 1.47v.13c-.533-.169-1.066-.286-1.899-.286-1.498 0-2.784.648-2.784 2.263 0 1.413 1.164 2.133 2.446 2.133 1.041 0 1.756-.429 2.224-.989v.846h1.561v-4.071c0-1.834-.988-2.901-3.018-2.901zm9.324 4.904c-.494.507-1.041.859-1.782.859-1.219 0-2.055-.995-2.055-2.224 0-1.197.819-2.198 1.977-2.198.793 0 1.301.351 1.782.859l.976-1.053c-.637-.703-1.444-1.184-2.745-1.184-2.066 0-3.564 1.648-3.564 3.604s1.497 3.564 3.551 3.564c1.34 0 2.133-.533 2.81-1.288l-.949-.937zm6.25-1.847c-.104-1.014-.703-1.808-1.743-1.808-.963 0-1.639.741-1.783 1.808h3.526zm-5.086.495c0-1.973 1.384-3.59 3.356-3.59 2.185 0 3.291 1.717 3.291 3.694 0 .143-.013.286-.026.442H64.71c.169 1.119.963 1.743 1.977 1.743.768 0 1.314-.286 1.86-.82l.924.82c-.65.78-1.548 1.287-2.81 1.287-2.007 0-3.526-1.453-3.526-3.577zM40.199 28.2c-.905-.292-1.548-.485-1.548-.976 0-.409.335-.703.963-.703.572 0 1.274.247 1.938.65l.624-1.119c-.728-.481-1.665-.781-2.523-.781-1.367 0-2.446.789-2.446 2.107 0 1.326 1.113 1.738 2.146 2.029.799.244 1.535.42 1.535.976 0 .5-.43.754-1.066.754-.703 0-1.51-.286-2.251-.846l-.703 1.067c.859.677 1.938 1.028 2.914 1.028 1.451 0 2.55-.723 2.55-2.173 0-1.249-1.121-1.701-2.134-2.016zm6.296.865H44.77V26.72h1.696c.747 0 1.213.498 1.213 1.167 0 .582-.436 1.178-1.184 1.178zm.157-3.674h-3.457v6.869h1.575v-1.865h1.737c1.523 0 2.746-.934 2.746-2.507 0-1.387-.98-2.497-2.601-2.497zM4.709 29.774c0 .859-.781 1.444-1.821 1.444-.617 0-1.327-.274-1.327-1.027 0-.709.625-1.08 1.574-1.08a4.5 4.5 0 0 1 1.574.273v.39zm-1.496-4.488c-1.119 0-1.86.234-2.615.572l.43 1.262c.624-.26 1.197-.429 1.964-.429 1.093 0 1.691.52 1.691 1.47v.13c-.533-.169-1.066-.286-1.899-.286-1.498 0-2.783.648-2.783 2.263 0 1.413 1.164 2.133 2.445 2.133 1.041 0 1.756-.429 2.224-.989v.846h1.561v-4.071c0-1.834-.988-2.901-3.018-2.901zm16.565 4.488c0 .859-.781 1.444-1.821 1.444-.617 0-1.327-.274-1.327-1.027 0-.709.625-1.08 1.574-1.08.611 0 1.171.118 1.574.273v.39zm-1.496-4.488c-1.119 0-1.86.234-2.615.572l.43 1.262c.624-.26 1.197-.429 1.964-.429 1.092 0 1.69.52 1.69 1.47v.13c-.533-.169-1.066-.286-1.899-.286-1.498 0-2.783.648-2.783 2.263 0 1.413 1.164 2.133 2.445 2.133 1.041 0 1.756-.429 2.224-.989v.846h1.561v-4.071c0-1.834-.988-2.901-3.018-2.901zm16.526 3.057c-.104-1.014-.703-1.808-1.743-1.808-.963 0-1.639.741-1.783 1.808h3.526zm-5.086.495c0-1.973 1.384-3.59 3.356-3.59 2.185 0 3.291 1.717 3.291 3.694 0 .143-.013.286-.026.442h-5.047c.169 1.119.963 1.743 1.977 1.743.768 0 1.314-.286 1.86-.82l.924.82c-.651.78-1.548 1.287-2.81 1.287-2.007 0-3.526-1.453-3.526-3.577zM12.43 32.259h1.574v-6.868H12.43v6.868zm10.165-6.868h1.574v1.066c.442-.65 1.08-1.209 2.146-1.209 1.548 0 2.445 1.041 2.445 2.641v4.37h-1.574v-3.903c0-1.066-.533-1.678-1.47-1.678-.91 0-1.548.637-1.548 1.704v3.876h-1.574V25.39zM9.118 26.938V25.39H7.544v6.868h1.574v-2.614c0-1.699.86-2.755 2.433-2.719V25.26c-1.21-.052-2.003.65-2.433 1.678z"/></svg>