<svg xmlns="http://www.w3.org/2000/svg" width="193" height="32" fill="none" xmlns:v="https://vecta.io/nano"><path fill-rule="evenodd" d="M22.744 30.005c-2.544-1.594-4.419-7.093-4.419-13.629l.007-.712.002.003c-7.077-1.112-12.19-4.159-12.321-7.763l-.02.042c-1.731 2.152-2.72 4.64-2.72 7.292 0 7.802 8.563 14.193 19.426 14.759l.046.008zM0 15.806C0 7.078 10.863 0 24.264 0s24.265 7.078 24.265 15.806-10.863 15.807-24.265 15.807S0 24.536 0 15.806zM24.265 2.281c2.587 0 4.788 3.925 5.604 9.401l.002-.009c5.034-.783 8.557-2.59 8.557-4.694 0-2.822-6.341-5.108-14.163-5.108S10.103 4.157 10.103 6.979c0 2.104 3.523 3.91 8.556 4.694l.003.009c.816-5.476 3.016-9.401 5.603-9.401zm1.566 27.715c10.862-.566 19.427-6.958 19.427-14.759 0-2.651-.99-5.139-2.72-7.292l-.021-.043c-.13 3.604-5.243 6.651-12.321 7.763l.003-.003.007.712c0 6.536-1.876 12.035-4.419 13.629l.044-.008zm-1.566-17.908c1.123.001 2.246-.047 3.364-.144l-.001.001c-.536-3.509-1.84-5.987-3.362-5.987s-2.825 2.478-3.363 5.987l-.001-.001c1.118.097 2.24.144 3.363.144zm0 12.998c1.948 0 3.537-4.054 3.621-9.136l.01.003a39.59 39.59 0 0 1-7.262 0l.01-.003c.084 5.083 1.673 9.136 3.621 9.136zm99.549-9.28c0-6.671 5.409-12.081 12.081-12.081s12.082 5.409 12.082 12.081-5.409 12.081-12.082 12.081-12.081-5.407-12.081-12.081zm12.081 7.651c3.725 0 6.747-3.426 6.747-7.652s-3.022-7.651-6.747-7.651-6.745 3.426-6.745 7.651 3.02 7.652 6.745 7.652zm25.791-14.698v18.58h-5.092V8.759h.019-7.119v-4.2h19.292v4.2h-7.1zm13.259 13.455l-.004.005-1.953 5.121h-5.947l9.399-22.781h6.336l9.398 22.781h-5.945l-1.953-5.121-.006-.005h-9.325zm4.663-3.845h3.204l-.002.001-3.18-8.338h-.044l-3.18 8.338-.002-.001h3.204zM67.853 8.759v18.58h-5.091V8.759h.018-7.12v-4.2h19.293v4.2h-7.101zm8.404 7.048c0-6.671 5.409-12.081 12.083-12.081s12.082 5.409 12.082 12.081-5.41 12.081-12.082 12.081-12.083-5.407-12.083-12.081zm12.083 7.651c3.725 0 6.746-3.426 6.746-7.652s-3.021-7.651-6.746-7.651-6.746 3.426-6.746 7.651 3.02 7.652 6.746 7.652zm23.777 3.881h2.581v-8.649l8.881-14.131h-5.944l-5.518 9.575-5.516-9.575h-5.945l8.881 14.131v8.649h2.58z" fill="#fff"/></svg>