<svg xmlns="http://www.w3.org/2000/svg" width="138" height="25" fill="#fff" xmlns:v="https://vecta.io/nano"><path d="M54.465 18.862L45.946 8.24v10.672h-2.434V6.105h3.651l8.47 10.672V6.105h2.434v12.756h-3.602zm19.861 0l-1.46-2.73h-8.422l-1.46 2.73h-2.629L67.17 6.105h3.018l6.815 12.756h-2.677zM68.68 8.24l-2.97 5.658h5.988L68.68 8.24zm15.869.149v10.523h-2.434V8.389h-5.988V6.105h14.409v2.283h-5.988zm8.664 10.473V6.105h2.434v12.756h-2.434zm18.255 0l-4.965-5.013-4.965 5.013h-3.067l6.523-6.502-6.28-6.304h3.067l4.771 4.815 4.77-4.815h3.067l-6.28 6.304 6.524 6.502h-3.165zm6.282 0V6.105h2.434v12.756h-2.434zm12.754-10.92c-2.775 0-4.187.496-4.187 1.539 0 1.39 2.239 1.191 5.842 1.539 3.943.397 5.841 1.29 5.841 3.822 0 2.73-2.434 4.318-7.01 4.318-3.213 0-5.744-.745-7.74-2.234l1.315-1.787c1.703 1.191 3.845 1.837 6.328 1.837 2.872 0 4.43-.794 4.43-2.035 0-.645-.487-1.142-1.412-1.439-1.363-.397-3.31-.248-5.647-.496-3.067-.298-4.527-1.29-4.527-3.326 0-2.432 2.385-3.971 6.718-3.971 2.823 0 5.111.645 6.864 1.886l-1.509 1.638c-1.655-.844-3.359-1.291-5.306-1.291zM31.585 9.629c-.049 0-.195.199-.146-.05 0-.05 0-.05-.049-.05s-.049 0-.097.05c-.097.099-.049.199 0 .248-.097.149-.146.347-.292.447-.097.05-.195.149-.292.248-.049 0-.097 0-.146-.05 0-.05.049-.099 0-.099-.049-.05-.049 0-.097 0 0 .248-.195.298-.341.397l-.049.05c-.049.099-.146.05-.195.099l-.097.099c0 .05-.049.05-.049.099-.049.149 0 .348-.292.248-.049 0-.097.05-.097.099-.049 0-.097.05-.146.05-.097.099.049.199 0 .298 0 0 0 .05-.049.05-.049.099-.146.149-.195.248.097 0 .146-.099.195-.149.097 0 .195-.099.243-.149.146-.099.292-.198.438-.347.049 0 .097-.05.146-.099l.097-.099c.097-.05.195-.099.292-.199.049-.05.097-.099.195-.149.146-.05.243-.099.341-.199.049 0 .049-.05.097-.05.195-.099.389-.248.535-.348.341-.298.681-.596 1.12-.744.049-.05.049-.149.097-.199.049 0 .049 0 .049-.05.049-.05.097-.199.195-.099.097 0 .195-.099.292-.149s.097-.099.049-.199c.097-.099.341 0 .389-.199 0-.05.049.05.097.05.097 0 .146-.05.195-.099.097 0 0-.149.097-.199.195-.05.292-.248.487-.149 0 0 .049 0 .097-.05.049-.149.243-.149.341-.199s.097-.149.049-.248-.097 0-.146.05c-.097.05-.195.149-.243.099-.146-.05-.195 0-.195.149 0 .05 0 .05-.049.05s-.049-.05-.049-.099c0-.149 0-.248.097-.347 0 .05-.049.149.049.149.049 0 .146-.099.146-.099 0-.05-.049-.199-.097-.199-.097-.05-.146-.05-.049-.149 0-.05.049-.05.049-.099.049-.05.049-.099.049-.149.049-.05.097-.05.146-.05.049.05-.049.099-.049.199.097 0 .146-.05.195-.099.097-.099.195-.199.341-.298h-.097.097c.049 0 .097 0 .097-.05l.049-.05c.146-.099.292-.199.39-.298.049-.05.146-.149.243-.149h.049c-.097-.05-.097-.099-.146-.149h-.049.049c0-.05.049-.05.049-.099.049-.05.097-.099.146-.05.097.05.049.099 0 .149s-.049.099 0 .149c0 .05-.049.05-.049.099-.049.05-.097.05-.146.099s-.097.05-.097.099c.049.099.097 0 .146 0s.097-.05.146-.099.146-.05.195-.099.195-.099.195-.248v-.099-.05c.049-.05.097-.099.146-.099.195-.05.341-.149.487-.248.097 0 .146 0 .146-.099.195 0 .389-.099.487-.199s.097-.199.243-.099c0 0 .049 0 .049-.05l.049-.05c.049-.099.195.05.195-.099 0-.05.049-.099.097-.099.146.05.195-.05.243-.149h.049a.67.67 0 0 0 .389-.248c.049 0 .049.099.146.05 0-.05-.097-.149 0-.199.049 0 .097 0 .097-.05.438-.05.535-.05.633-.099.049 0 .049-.05.049-.099s-.049 0-.097 0c-.097.05-.146.099-.243.149h-.097c-.049.05-.097.05-.146.099-.097.099-.146.05-.195-.05.049-.05.097-.05.097-.099.243-.05.389-.248.633-.298.146-.05.243-.149.341-.199s.243-.05.243-.199c0-.05.049-.05.097-.05 0 .05.049.05.097 0 .146-.149.292-.199.389-.298.049 0 .097-.05.097-.05.195-.05.292-.099.292-.347l-.389.149c-.049 0-.049 0-.097-.05h.049c.049 0 .146 0 .146-.099 0-.05 0-.099-.049-.099-.097-.05-.097.05-.097.099-.097.149-.049-.099-.097-.05-.049 0-.097.05-.097 0 .049-.05.146-.05.146-.149.097 0 .195-.099.243-.149.049 0 .146 0 .195-.05s.097-.099.195-.099c.438-.199.876-.248 1.266-.596-.341.149-.73.199-1.071.397l-.097-.099c-.097-.149-.243-.099-.341-.05-.097.099-.243 0-.341.05-.049 0-.097.05-.146 0s.049-.05.049-.099c.146-.199.389-.248.633-.347-.195-.05-.389 0-.536.05-.049 0-.097 0-.097-.05 0-.149-.049-.099-.097-.05-.097.05-.146.099-.195.149-.146 0-.243.149-.39.05-.097.05-.146.149-.243.149-.097-.05-.195.05-.292.099.049-.05 0-.149.097-.199.243-.149.535-.248.779-.298.195-.05.389-.149.584-.248.146-.05.292-.05.438-.149-.097-.099-.146-.099-.243-.05-.535.199-1.071.347-1.606.397-.097 0-.146.05-.049.149.049.05.049.05 0 .099-.243-.099-.292-.05-.243.199-.097.05-.195.05-.292.099 0-.05.049-.099.049-.099.195-.05.097-.149.097-.298-.097 0-.097.099-.146.149s-.097.149-.195.149c0-.199.097-.298.243-.397.146-.05.146-.149.049-.248l-.292-.149c-.146-.099-.243-.099-.341.099-.049.099-.146.099-.195.099-.097 0-.097.05-.146.099-.049.099.049.149.097.199-.097.199-.292.248-.487.298-.146 0 0-.199-.146-.199 0-.05 0-.099.097-.149s.146-.099.097-.149-.097 0-.146 0h-.097c-.049-.05 0-.05.049-.05.097-.05.195-.149.292-.199.049 0 .049-.05.097-.05.097 0 .146-.099.195-.199.049 0 .097-.05.146-.099s.146-.099.195-.149c.146-.05.341-.099.389-.248.097-.05.195-.149.341-.05.049.05.097 0 .146 0 .195-.05 0-.199.049-.248s.097-.05.097-.149c-.243.05-.438.149-.682.199-.049 0-.097 0-.146.05-.049 0-.049.05-.097.099-.049 0-.049.05-.097.05-.097-.05-.195 0-.292.05-.097-.05-.195-.05-.195.05-.097.05-.146.099-.243.149-.049.05-.049.099-.097.05-.049 0-.097 0-.146.05-.097-.099-.146 0-.195.05-.097 0-.195.099-.341.099-.146.05-.243.149-.341.298-.097 0-.049-.149-.146-.149-.049.099-.097.149-.146.248-.049 0-.097.05-.097-.05 0-.149-.097-.05-.097-.05-.049 0-.097.05-.097.099s-.049.149-.097.149c0-.199 0-.199-.097-.149 0 .099-.049.05-.097.099 0-.05-.049-.05-.097 0s-.146.099-.195.05-.097 0-.097.05v.099c-.146 0-.097-.149-.146-.199 0-.05.097-.149 0-.149-.097-.05-.049.099-.097.149 0 0-.049.05 0 .05.097.199-.049.099-.146.099-.049-.05 0-.099-.097-.099-.049 0-.049.099 0 .099.049.149-.049.05-.097.05 0 0-.049 0-.049.05 0 .149-.097.099-.146.099-.049-.05-.049-.05-.097-.05s-.097.05-.097.099c-.049.099-.049 0-.097 0-.049-.05-.049-.05 0-.099.049 0 .097-.05.146-.05s.049-.05.049-.05c0-.05 0-.05-.049-.099s-.049 0-.097.05l-.097.099c-.049 0-.146 0-.146.099-.097.099.049.199-.049.298-.049.05-.097.05-.146 0 0-.099.097-.199.049-.199-.097-.05-.146.05-.195.099.049.099.146-.05.146.05 0 .05 0 .149-.097.149v.05h-.146c-.049 0-.049 0-.049-.05.049-.05.097-.05.146-.099 0-.05-.049-.05-.049-.05-.097-.05-.097.05-.146.099s-.049.099-.097.099-.097.05-.097.099c.049.05.146-.05.146.05 0 .05-.049.05-.049.099-.049.099-.049.149.049.099.049 0 .097-.05.146-.099v-.05h.097.049c.097 0 .146 0 .243-.05l.049.05c-.243.05-.487.149-.682.199-.195 0-.146.05-.146.149h-.097l.049-.05c0-.05.049-.149-.049-.199 0-.05-.049-.05-.049-.099h-.097l-.049-.05c0-.05-.049-.05-.049-.05-.097 0-.195-.05-.292-.099.049-.099 0-.099-.049-.099v.05c.049.05.097.149.049.248-.049.05 0 .149.097.099.146-.099.146 0 .146.099-.146.149-.292.05-.389-.099-.049.05 0 .099 0 .149s0 .099-.049.099h-.049c.049-.099-.049-.099-.097-.149 0-.05 0-.05-.049-.099 0-.05.049-.05.049-.149-.049 0-.097 0-.146.05-.195.05-.243.248-.292.397 0 .05-.049.149-.049.199h-.049c-.049 0-.049 0-.097-.05-.097-.099-.146-.05-.195.05 0 0 0 .05-.049.05-.097.05 0 .05 0 .099l-.292.149c.049-.099-.097-.05-.097-.099s.049-.099-.049-.149c-.097 0-.146 0-.195.099-.146.05-.292.05-.341.199-.049 0-.097-.05-.146.05v.099c-.049.05-.097.05-.146.099v.099h-.146c.049 0 .049-.05.097-.099 0-.05 0-.05-.049-.05-.097 0-.389.199-.438.298h-.243c-.049 0-.097 0-.146.05 0 .199-.097.149-.243.099-.146 0-.195.099-.292.199l-.049.05c-.049 0-.146 0-.195.05l-.73.496h-.049l-.779.447c-.049 0-.049 0-.049.05-.049.05-.097.099-.195.149-.049 0-.097.05-.146.099-.097.05-.146.05-.243.099-.049 0-.049.05-.049.05 0 .05 0 .05-.049.05 0-.05 0-.05.049-.05l-.438.298c-.195.099-.389.248-.584.397-.146.099-.292.298-.535.199-.049 0 0 .05 0 .099l-.049.05c-.097.05-.195.149-.243.199s-.146 0-.146.099c-.097 0-.146.05-.195.099-.049 0-.049-.099-.097-.099s0 .05 0 .099v.05c-.146 0-.146.199-.243.248-.049 0-.097 0-.097.05v.05-.05a.2.2 0 0 0-.292.149c-.049.05-.049.099-.146.099-.049 0 0 .05 0 .05-.097 0-.097.099-.195.149-.146 0-.146.149-.243.199-.049 0-.097 0-.097.05-.049.05-.146-.05-.146.05-.097.05-.146.248-.341.248-.049.199-.195.199-.341.248l-.049.05v.05-.05c-.049.05-.195.099-.146.199-.097.05-.146.099-.195.248l-.049.05c-.195-.099-.195.05-.292.149 0 0 0 .05-.049.05 0 .05-.146.05-.097.099-.049.05-.146.05-.097.149-.049 0-.097-.099-.097 0-.146.05-.243.149-.341.248-.049.05-.097.05-.146.099-.146 0-.243.099-.195.298l-.049.05h-.097c-.097 0-.049.149-.146.149-.049 0-.049-.099-.097-.099s-.049.05 0 .099c-.146.099-.243.248-.341.397-.049.05-.146.05-.146.149-.049 0-.146 0-.195.05s-.097.099-.146.099c-.097.05-.097.099-.049.198l-.049.05c-.049 0-.097.05-.146.05-.146.099-.146.248-.097.397-.049.05-.049.05-.097.05-.097-.149 0-.347-.097-.496v-.099c-.049-.05-.049-.149-.097-.199 0-.099 0-.248-.097-.347-.049-.199-.243-.348-.243-.596 0-.05 0-.099.049-.149 0-.149-.097-.248-.195-.248l-.049-.05v-.05c.097-.05.146-.199.049-.248-.097-.149-.146-.199-.049-.298 0-.05.049-.099 0-.099-.049-.05 0-.149 0-.199 0-.149-.049-.298-.049-.397s-.049-.099-.097-.099l-.049-.05c0-.05.097-.099 0-.199-.049-.099-.049-.248-.195-.298.097-.149-.049-.248-.146-.347 0-.05-.049-.099-.049-.149 0-.099 0-.248-.146-.248 0-.099-.097-.149 0-.248.049-.05-.049-.05-.097-.05-.049.099-.097.199 0 .298-.097.149 0 .248 0 .397.049.05 0 .149.049.199h.049-.049c0 .05 0 .099-.097.099 0-.099-.049-.199-.146-.248-.049-.05-.097-.099-.195-.099 0 0-.049 0-.049-.05s0-.05.049-.05.097 0 .049-.05-.049-.149-.146-.199c-.049 0-.146-.05-.097-.099 0-.099-.049-.149-.097-.199-.049-.099-.146-.099-.146.05l-.049.05v-.05c-.049-.099-.097-.248-.195-.298-.292-.298-.438-.695-.828-.893 0-.05-.049-.149-.146-.149h-.049c-.146-.149-.292-.298-.535-.347a.78.78 0 0 1-.341-.199c-.195-.05-.389-.149-.584-.149-.146-.05-.146-.199-.292-.248-.049-.05-.097-.099-.341-.099h-.097c.243-.099.097-.099-.049-.099h-.097-.389-.049c-.049-.05-.049-.099-.097-.05-.146 0-.292-.05-.438 0h-.146c-.146-.05-.243.099-.341.05h-.292-.097c-.049 0-.097 0-.146.05-.097.05-.097.099 0 .099s.195 0 .292-.05c.049 0 .097.05.146.05.243-.05.487-.05.73-.099.049 0 .049-.05.097 0 .146.099.341.099.487.099.049 0 .049 0 .097.05-.049.05-.097 0-.146.05a7.44 7.44 0 0 0-1.509.149c-.536.099-1.071.149-1.558.447-.049-.05 0-.099-.097-.099-.049 0-.097 0-.049.099 0 .05-.049.099-.097.05s-.146-.099 0-.199c.049-.05.049-.099.049-.149l-.049-.05c-.097-.05-.195-.05-.243.099a.41.41 0 0 1-.341 0c0 .099-.097.199.049.248.049.05.049.199.195.099.097-.099.195-.099.292 0-.195.099-.389.199-.584.248-.146.05-.292.099-.389.248-.146.099-.292.199-.389.298-.146.05-.292 0-.389.099-.097 0-.097.05-.146.099-.195 0-.292.149-.438.199-.049.05-.195.05-.195.149-.097.05-.195.099-.243.149-.195.149-.487.298-.682.447-.243.248-.535.397-.828.645-.341.298-.73.447-1.022.745-.146.099-.292.199-.389.347s-.243.099-.341.248a.68.68 0 0 0-.146.199c-.243 0-.292.199-.389.347l-.097.099-.049.05c-.097 0-.146.099-.243.05-.097 0-.195.05-.292.149-.195.05-.243.248-.243.397-.049.149-.097.248-.195.347-.097-.05-.195 0-.341.099 0 .149-.049.248-.097.347-.146.099-.195.298-.292.447-.049.099-.097.248-.195.298-.049.05-.097.099-.097.198v.149c-.049.05-.097.05-.146.099H.138c-.146-.05-.097.099-.097.149-.097.099 0 .149.097.149.049 0 .097-.05.146 0-.097.05-.049.149-.097.199 0 0-.049.05 0 .099.049 0 .049 0 .097-.05.049-.099.097-.05.146 0s.097.05.146.099c.146 0 .146.199.341.199.097 0 .097 0 .049.099 0 .05.049.05.049.05.195-.149.243 0 .292.149 0 0 .049.05.097.05.097.05.146.149.243.149h.341c.389.199.779.199 1.217.248.049 0 .146 0 .146-.099.097 0 .195-.099.292-.05.049 0 .146 0 .146-.05.049-.099.097-.099.146-.099.292 0 .584-.099.876-.248.146 0 .243-.05.389-.149.049 0 .049 0 .097-.05.049 0 .097-.05.146-.05.243-.099.487-.149.73-.348.195-.149.438-.248.633-.347.195-.05.341-.199.487-.298.195-.149.341-.348.633-.348a.37.37 0 0 0 .243-.099c.243-.198.487-.248.73-.397.195-.099.438-.149.584-.348.146-.149.292-.248.487-.248s.341-.099.438-.199c.146 0 .243-.05.389-.05.049-.099.146-.05.243-.099.097 0 .195 0 .243-.05l.779-.199h.049c.243 0 .438 0 .681-.099.146-.05.292.05.292.199s-.097.298-.097.447c-.049 0-.049.05-.049.05 0 .05-.049.099-.097.149l.049.05s0-.05-.049-.05c-.049.149-.097.348-.195.496-.049.099-.146.199-.097.298-.146.099-.097.298-.195.447 0 .149-.146.248-.049.397 0 .05-.049.05-.049.099-.097.05-.097.149-.146.248-.097.149-.146.298-.195.447a2.19 2.19 0 0 1-.243.596 1.35 1.35 0 0 0-.146.596c-.049 0-.097 0-.097.05l-.779 1.787c-.049.149-.097.298-.097.447 0 .05 0 .05-.049.099l-.146.298c0 .05-.049.099.049.099.049.05 0 .099.049.149.049.149-.146.05-.097.149-.049.05-.049.099-.049.149-.049.149-.097.298-.097.447 0 .05 0 .099-.049.149.049.198.146.248.292.099v.149c0 .099 0 .198-.146.099h-.049s-.049 0-.049-.05c0 0 0-.05-.049-.05-.097.05-.243.05-.243.198 0 .099.097.149.097.199v.05c-.243.298-.243.298-.243.546-.049.099-.049.149 0 .248 0 .05-.049.099 0 .198 0 .099 0 .149-.097.199 0-.05-.049-.099-.097-.05s0 .05 0 .099v.198c-.146.149-.195.298-.195.496-.049.099-.049.149 0 .248 0 .05-.049.149-.049.198v.149c-.195.099.049.149.049.248-.049.05-.097.149 0 .198.049.05.097.149.097.248 0 .149 0 .248.097.397s.097.298.292.347c.097.099-.146.199 0 .298 0-.05.049-.099.049-.149 0 .05.097.099.049.149-.097.149.049.149.097.198h.049c.097.05.195.199.341.099 0 0 .049 0 .049.05.146.05.243.099.389.099.049 0 .097.05.097-.05 0-.199.097-.099.195-.05.097 0 .097.199.195.099l.049-.05s.049 0 .049-.05c.097.05.146.099.243.149.097 0 .195-.05.292 0 .049.05.097.05.097.099s-.195-.05-.097.099c.049.05.146 0 .195 0l.049-.05c.049-.05.097-.05.146 0 .049-.149-.097-.099-.146-.099 0-.05-.049-.099-.097-.099v-.05c.097 0 .243-.05.341-.05.243 0 .438.05.633 0-.049.05-.146.05-.097.099-.146.05-.292-.05-.438 0-.049.099-.146.149-.049.248.146.099.243-.099.341-.099.049 0 .097.05.146-.05a.81.81 0 0 0 .487-.149c.195 0 .389-.099.584-.099.049 0 .097-.05.097.05s0 .149.097.199.146-.05.195-.099c.146.099.146-.05.243-.099s.146-.099.244-.099c.097.149.195.05.292 0 0-.099-.195-.05-.146-.199h-.049c.049.05.097.099.195 0 0 0 0-.05.049-.05.097-.05.146-.05.243-.05v-.05.05c.097.05.097-.05.097-.099v-.05-.05c.049 0 .146.05.195 0l.049-.05c.049.05.146 0 .243.05.049-.05.146.099.195-.05.243.099.195 0 .195-.05.049-.05.097-.05.146-.099s.146-.05.195-.099c.049 0 .097 0 .146-.05.097 0 .146-.099.243-.149.049 0 .097 0 .146-.05.049 0 .097-.05.146-.099.049-.149.195-.099.292-.199l.049-.05.049-.05c.146-.099.049-.099 0-.149.049-.05.146-.05.195-.149l.049-.05c.195-.05.292-.248.487-.348.195-.05.292-.248.438-.397.097-.05.195-.149.292-.198.049-.099.244-.099.146-.298v-.05c.097-.099.243-.149.341-.248.097 0 .146 0 .049-.099v-.05c.097-.05.195-.099.243-.198.049 0 .049 0 .097-.05.097-.05.195-.099.243-.199.097-.05.097.149.146.05.097-.099.195-.149.292-.248h.049c.195-.199.389-.397.633-.546.097-.05.146-.099.146-.199s-.049-.099-.097-.099c0-.05 0-.099-.049-.099 0-.149.195-.099.195-.198.146-.05.195-.199.341-.248.146-.099.341-.149.487-.248.049-.05.146-.099.146-.199.146 0 .243-.099.341-.199-.049-.05-.146.05-.146-.05.097 0 .195-.099.195-.199 0-.198.097-.298.243-.397.049-.099.097-.149.097-.298.049 0 .049 0 .097.05s0 .149.097.099c.097 0 .049-.099.049-.149v-.05c.097-.05.195.05.243 0s.049-.099.049-.149c.097-.05.146-.099.243-.149-.049-.099-.243.05-.195-.149.049 0 .097-.05.097 0 .049.099.097.099.195 0 .049-.05.097-.05.097-.099.049-.05.097-.099.097-.149.195-.099.243-.347.438-.447.049 0 .049-.05 0-.099-.049 0-.146 0-.097-.099s.049-.198.195-.248c.097-.05.097.05.146.099.049.099.097.05.146-.05.097-.149.195-.199.341-.298.049-.099.146-.149.243-.248 0-.149-.097-.099-.195-.099-.049 0-.049-.05-.049-.099-.097-.149-.097-.298-.097-.447v-.05c.049 0 .097 0 .097.05s.049.099.049.149c.097.348.243.397.438.199 0-.099.049-.149.049-.248 0 0 0-.05.049-.05s.097.05.146.05c.097.099.146 0 .195-.05.097-.05 0-.099 0-.149a.32.32 0 0 0 0-.298c-.097-.149 0-.397.146-.447.195-.05.195-.099.049-.248 0-.099.049-.149.097-.198.146 0 .243-.149.389-.099l.049.05c0 .05 0 .099.049.099s.097-.05.049-.149c0-.05-.049-.149 0-.198s.146-.099.195-.149.097-.05.097-.099c0 0 0-.05.049-.05.097-.149-.049-.248 0-.397l.049-.05c.049-.05.097-.099.146-.099.049-.05.097-.099.146-.099.146-.099.292-.199.389-.347 0 0 0-.05.049-.05s.049-.05.097-.05c.049-.05.146 0 .195-.05.097-.05.097-.149.195-.248.049-.05.097-.05.146-.099.049 0 .049-.05.049-.05.097-.149.195-.05.341-.05l.049-.05c.049 0 .049-.05.097-.099s.049-.099.097-.099c.049-.05.049-.149.049-.199.146.05.292.05.389-.05.146-.149.341-.298.438-.496.049 0 .097-.099.195-.099s.097-.099.146-.149c.195-.149.536-.099.633-.397.049-.05.195-.05.146-.199 0 0 .097-.05.146-.05.243.05.389-.05.535-.248.097 0 .146-.149.243-.099.049.05.097 0 .146-.05.049-.099.146-.149.195-.248h.049.049s.049 0 .049.05-.049.099-.097.099h-.049c-.097.05-.195.099-.195.199-.049.149-.146.248-.195.347v.05c-.097 0-.195 0-.243.149l-.146.149c-.049.099-.049.149-.195.149-.049 0-.097 0-.097.099-.049.05-.097.05-.146.099s-.049.149-.146.199c-.097 0-.097-.099-.097-.199 0-.05 0-.099-.049-.099-.097 0-.243.347-.195.397.243.099.146.099.097.149zm2.823-3.276c0 .05-.049.099-.049.149l-.146.149h-.049c-.146.099-.292.298-.487.298-.049 0-.097.05-.146 0 0-.05 0-.099.049-.099l.049-.05s0-.05.049-.05c.195-.05.195-.149.195-.298 0-.05.049-.099.097-.099a.67.67 0 0 0 .195-.149c.097-.149.195-.05.292 0 .146.05 0 .099-.049.149zm-8.13 7.545c-.049-.099-.097-.149-.195-.149.049 0 .049 0 .049-.05h.146v.198zm4.917-10.672s.049.05.097.05c-.049.05 0 .099 0 .149-.049 0-.097 0-.146.05v.05c-.049 0-.049 0-.097-.05.049-.149.146-.149.146-.248zm-.341.199c.049.05.049.05 0 0 .049.05.049.099 0 .099-.097 0-.097-.05-.097-.099.049.05.097.05.097 0zm-.584.397c-.049.05-.049.05-.097.05.049 0 .049-.05.097-.05zM18.052 8.438c.049.099.049.248.146.347 0 0-.049.099-.049 0a1.04 1.04 0 0 0-.195-.298c.049 0 .049-.05.097-.05h-.049.049zm-7.886 14.841c0-.099-.097-.149-.146-.199-.195-.248-.292-.546-.341-.844a.57.57 0 0 0-.146-.397c0-.099.049-.198.049-.298 0 0 0-.05.049-.05 0-.149.097-.298.146-.447.049-.05.049-.149-.049-.199 0-.05.049-.099 0-.149.049 0 .097-.05.146-.099 0 .099-.049.149-.049.199-.049.099 0 .198.097.198-.049.099 0 .248 0 .348-.049.099-.097.198-.049.298.146.099.049.248.097.347.049.199.292.397.049.645 0 .198.146.347.243.347.146 0 .243.099.389.099.049.05.049.099.097.099 0 .198.097.198.243.198.049 0 .049.05.097.05l.097.099v.05c.049.099.146.05.195.099-.049 0-.146-.05-.195 0h-.049c-.097-.05-.195-.099-.341-.149-.049-.05-.097-.099-.146 0-.049.05.049.05.097.05 0 .05.049.099.097.149.146.05 0 .05 0 .05h-.146v-.05c-.049-.099-.146-.05-.195-.099v-.05c-.243-.248-.292-.298-.341-.298zm.292.298c0 .05 0 .05 0 0zm12.121-5.658c-.049-.05-.049-.099-.097-.149.146 0 .195-.099.243-.198v-.05c.049-.099.097-.198.195-.248 0 .05.049.099 0 .099-.097.05-.097.199-.097.298l-.049.05s-.049 0-.049.05l-.049.05c-.049.05-.097.05-.097.099zm3.213-3.425c0 .05.049.099.049.149-.049.05-.097.099-.049.149-.097 0-.146.099-.243.099l.146-.149c0-.05 0-.099.049-.198-.049.05 0 0 .049-.05-.049 0-.049 0 0 0zm5.842-6.701c.195-.149.341-.298.389-.496l.049-.05c.097 0 .195-.05.243-.149l.097-.099.097-.099c.097 0 .097-.099.146-.149.146 0 .292-.099.341-.248.049-.05 0-.099.049-.199l.049-.05c.049-.05 0-.099.049-.149h.097c.049 0 .097 0 .146.05.146-.05.292-.099.341-.248 0-.05-.049-.099 0-.099.146.05.146 0 .195-.099.146-.099.243-.248.438-.347.146-.05.243-.149.292-.298.049-.05.146 0 .146-.099.049-.05.097-.05.146-.099h.146l.487-.347c.146-.149.389-.199.535-.397.049 0 .097 0 .097-.05h.049c.049 0 .049-.05.097-.05l-.049.05c-.049.05-.049.149.049.099.243-.099.438-.298.633-.447.049 0 .097 0 .146.05 0 .099-.049.149-.097.149-.097.05-.195.099-.243.199-.097.05-.195.149-.243.199-.243.099-.341.298-.535.447-.049.05 0 .05.049.05.146-.05.292-.099.389-.248-.049.05-.146.099-.195.199-.049 0-.097.05-.146.099-.243.347-.682.496-1.022.794-.097-.149-.097-.149-.195-.149.097.149.097.347.049.496h-.097-.097-.049c-.146-.149-.049-.298 0-.496-.243.248-.438.496-.779.596v.05c0 .05-.049.099-.049.149l-.049.05c-.049 0-.049 0-.097.05-.195.149-.341.347-.535.496-.049.05-.097.099-.146.099-.097.05-.146.099-.195.199-.097.05-.195.099-.243.199l-.049.05c-.097.05-.146.149-.146.199 0 .099-.049.149-.146.199-.097.099-.292.099-.341.298s-.243.298-.341.496c-.049.05-.146.099-.195.05-.097-.05-.049-.099-.049-.149s0-.099-.049-.199h-.049c.049-.149.097-.298.195-.397l.049.05c.097.099.097 0 .146-.05 0 .05 0-.05 0-.149zm2.142.695c-.049.05-.049.149-.146.099.097-.149.195-.248.243-.397.049.05 0 .099.049.149v.05c-.097-.05-.146.05-.146.099zm.633-.397c-.049.099-.146.099-.195.099-.097 0-.049-.099-.049-.149l-.049-.05v-.05c.146 0 .195-.099.243-.199 0-.05.049-.099.049-.099 0-.05.049-.05.049-.099s.049-.05.049-.05l-.049.05a.45.45 0 0 1 .049.248c0 .099 0 .149.049.248-.097 0-.097 0-.146.05zm.925-1.439c-.049.05-.097.149-.195.149.049-.05.049-.05.049-.099.049 0 .097-.05.097-.149.049.05.097.05.049.099zm3.262-1.787c0-.05-.049-.05-.049-.099l.292-.149h.049c.049 0 .049 0 .097-.05s.146-.05.146-.099h.049c0 .05-.049.099-.097.099s-.097 0-.097.099c-.097 0-.146.05-.146.149-.146-.05-.195 0-.243.05z"/></svg>