<svg xmlns="http://www.w3.org/2000/svg" width="107" height="18" fill="none" xmlns:v="https://vecta.io/nano"><path fill-rule="evenodd" d="M12.629 11.291l2.791 1.681c-1.395 2.698-4.119 4.45-7.203 4.45C3.714 17.421 0 13.8 0 8.711S3.714 0 8.217 0c3.084 0 5.809 1.752 7.203 4.451l-2.791 1.68a4.75 4.75 0 0 0-4.412-2.816c-2.814 0-4.953 2.201-4.953 5.396s2.138 5.397 4.953 5.397a4.75 4.75 0 0 0 4.412-2.817zm17.762 5.705V9.894h-7.879v7.101H19.36V.426h3.151v6.155h7.88V.426h3.152v16.569h-3.152zm18.28-6.864l-2.86-6.982-2.859 6.982h5.719zm6.258 6.864h-3.445l-1.553-3.788h-8.24l-1.553 3.788h-3.445L43.673.426h4.278l6.979 16.569zm14.52 0L61.007 3.954v13.042h-2.926V.426h4.165l7.091 10.983V.426h2.927v16.569H69.45h0zm8.892 0V.426h11.256v3.077h-8.33v3.551h7.204v3.077h-7.204v3.788h8.78v3.077H78.342h0zm16.772 0V.426h3.151v13.256h8.329v3.313h-11.48z" fill="#fff"/></svg>