<svg xmlns="http://www.w3.org/2000/svg" width="59" height="68" fill="#fff" xmlns:v="https://vecta.io/nano"><path d="M2.93 42.291c-.435-.209-.905-.234-1.378-.234H0v5.841h.907c0-.331-.022-.674.12-.983.229-.497.762-.736 1.227-.962.499-.241 1.053-.477 1.384-.944.294-.415.374-.964.288-1.459-.099-.566-.486-1.014-.996-1.26zm-.045 2.233c-.216.323-.58.504-.918.672-.369.184-.748.367-1.06.643v-2.937h.86c.482 0 1.012.148 1.202.643.116.302.096.707-.085.979zm6.717-2.305c-.786-.444-1.913-.313-2.521.372-.296.333-.445.761-.472 1.201-.007.111-.004 4.107-.004 4.107h.898v-1.935c.529-.067 1.122-.016 1.565.307.398.289.572.744.573 1.224v.404h.899v-3.917c-.001-.719-.295-1.399-.939-1.763zm-.009 3.487c-.534-.541-1.353-.731-2.089-.613v-.955c0-.175-.004-.351.041-.523.086-.329.336-.601.66-.709a1.12 1.12 0 0 1 1.014.151c.287.215.42.544.424.897v.823.986l-.049-.057zm7.127.023c-.104-.055-.215-.101-.331-.138.288-.159.574-.354.776-.618a1.65 1.65 0 0 0 .327-.833c.07-.64-.139-1.251-.667-1.642-.702-.521-1.591-.441-2.415-.441h-.858v5.841h.907l.002-.521c.018-.386.189-.758.526-.965a1.26 1.26 0 0 1 1.132-.068 1.14 1.14 0 0 1 .642.878c.034.221.018.453.018.675h.916c0-.321.018-.647-.053-.962-.118-.519-.453-.957-.922-1.208zm-1.37-2.827c.578 0 1.162.282 1.225.914.03.304-.036.605-.238.839-.221.255-.551.409-.85.553-.363.175-.727.356-1.026.629v-2.935h.89zm5.167-.027a4.63 4.63 0 0 1 .907-.135v-.683h-.907v.818zm0 .513v4.511h.907v-4.646a4.33 4.33 0 0 0-.907.135zm6.964 1.707c-.325-.256-.715-.403-1.1-.543-.357-.13-.772-.267-1.03-.562-.238-.272-.185-.702.06-.949.254-.255.662-.312.996-.206.378.119.606.46.606.85h.898c0-.428-.137-.84-.432-1.155-.285-.306-.679-.487-1.091-.541-.428-.056-.871 0-1.25.215-.355.202-.654.522-.781.916-.121.376-.095.845.098 1.193.216.388.605.621 1.002.791.432.184.93.297 1.317.573.156.111.285.253.331.443a.83.83 0 0 1-.058.566c-.21.417-.732.545-1.16.462-.48-.092-.826-.492-.826-.983h-.89c0 .475.155.924.495 1.262s.805.517 1.274.555c.492.04 1.001-.06 1.409-.349.375-.266.628-.678.677-1.137.057-.536-.117-1.061-.548-1.4zm8.457.126c.201-.249.396-.512.529-.805a1.77 1.77 0 0 0 .143-.925c-.067-.6-.482-1.099-1.024-1.346a2.12 2.12 0 0 0-1.792.036c-.547.279-.939.813-.972 1.434-.034.635.262 1.197.761 1.579l.512-.656c-.184-.176-.329-.388-.371-.643-.04-.246.001-.493.151-.696.293-.396.882-.516 1.317-.297.217.109.4.298.478.531.081.242.043.521-.06.75s-.271.43-.429.627l-1.82 2.276-.65.813h4.107v-.835h-2.356l1.475-1.843zm8.537-2.382a3.15 3.15 0 0 0-3.471-.592c-1.159.535-1.856 1.765-1.736 3.032.118 1.243 1.047 2.308 2.254 2.614 1.225.31 2.569-.147 3.302-1.186a3.05 3.05 0 0 0-.054-3.534 2.98 2.98 0 0 0-.295-.335zm-.202 2.979a2.15 2.15 0 0 1-2.097 1.312c-.878-.052-1.641-.682-1.896-1.519a2.2 2.2 0 0 1 .762-2.363 2.12 2.12 0 0 1 2.47-.053c.827.573 1.156 1.695.761 2.623zm6.87-.597c.201-.249.396-.512.529-.805a1.77 1.77 0 0 0 .143-.925c-.068-.6-.483-1.099-1.024-1.346a2.12 2.12 0 0 0-1.792.036c-.547.279-.939.813-.972 1.434-.034.635.261 1.197.761 1.579l.512-.656c-.184-.176-.329-.388-.371-.643-.04-.246.001-.493.151-.696.293-.396.882-.516 1.317-.297.217.109.4.298.478.531.081.242.043.521-.06.75s-.271.43-.429.627l-1.819 2.276-.65.813h4.107v-.835h-2.356l1.475-1.843zm6.399-1.6v1.98c-.432-.308-.972-.402-1.424-.672-.391-.234-.515-.642-.517-1.075v-1.796h-.908v1.824c.001.622.154 1.231.664 1.632.314.247.692.399 1.066.53.334.117.689.264.918.546.18.222.2.488.2.762v.548h.872v-4.278h-.872zM28.808 62.348a4.8 4.8 0 0 1-4.797 4.797 4.8 4.8 0 0 1-4.796-4.797c0-2.649 2.146-4.796 4.796-4.796a4.8 4.8 0 0 1 4.797 4.796zm-4.797-3.997a4 4 0 0 0-3.996 3.997 4 4 0 0 0 3.996 3.997 4 4 0 0 0 3.997-3.997 4 4 0 0 0-3.997-3.997zm15.188 3.997a4.8 4.8 0 0 1-4.796 4.797 4.8 4.8 0 0 1-4.797-4.797 4.8 4.8 0 0 1 4.797-4.796c2.649 0 4.796 2.147 4.796 4.796zm-4.796-3.997a4 4 0 0 0-3.997 3.997 4 4 0 0 0 3.997 3.997 4 4 0 0 0 3.997-3.997 4 4 0 0 0-3.997-3.997z"/><path d="M18.816 53.157c-2.649 0-4.796 2.146-4.796 4.795s2.147 4.796 4.796 4.796l.415-.02-.016-.38.02-.421-.418.02c-2.208 0-3.997-1.788-3.997-3.996a4 4 0 0 1 3.997-3.998 4 4 0 0 1 3.997 3.998c0 1.773-1.154 3.274-2.753 3.798a4.09 4.09 0 0 0-.045.599l.008.246a4.8 4.8 0 0 0 3.589-4.642c0-2.649-2.146-4.795-4.795-4.795zm20.782-.001c-2.52 0-4.585 1.943-4.779 4.414.27.023.535.069.791.136a4 4 0 0 1 3.988-3.751 4 4 0 0 1 3.998 3.997c0 2.208-1.789 3.996-3.998 3.996a4 4 0 0 1-3.951-3.397c-.264-.086-.541-.145-.825-.176.214 2.45 2.271 4.373 4.776 4.373a4.8 4.8 0 0 0 4.796-4.797c0-2.648-2.148-4.795-4.796-4.795zm-10.391 0c-2.521 0-4.586 1.946-4.78 4.414.271.024.535.07.792.136.127-2.093 1.863-3.751 3.988-3.751a4 4 0 0 1 1.245 7.796 4.1 4.1 0 0 0-.045.599l.008.246a4.8 4.8 0 0 0 3.589-4.643c0-2.648-2.147-4.795-4.796-4.795zm.4 9.192l.02-.421-.419.02a4 4 0 0 1-3.953-3.397 3.95 3.95 0 0 0-.823-.175c.214 2.449 2.27 4.372 4.777 4.372l.415-.02-.015-.38zm1.658-30.295c-.502-.187-1.345-.204-2.058.377-.713-.581-1.557-.563-2.059-.377-.419.156-.748.26-1.366.255.612 1.276 1.916 2.156 3.424 2.156s2.812-.88 3.424-2.156c-.618.005-.946-.099-1.366-.255zM29.207 0C18.884 0 10.514 8.369 10.514 18.693c0 8.849 6.15 16.263 14.409 18.199-6.563-3.511-9.239-11.562-6.074-18.307.512 2.663 2.248 5.036 4.842 6.268-3.384-7.914-.892-17.218 6.091-22.363-1.374 4.704.736 9.008 5.262 12.257 5.177 3.716 5.396 11.3.827 15.399a8.72 8.72 0 0 0 4.764-2.952c-.778 4.008-3.291 7.635-7.145 9.697 8.26-1.937 14.409-9.35 14.409-18.199C47.899 8.369 39.531 0 29.207 0zm13.632 35.671h.353v1.222h.17v-1.222h.353v-.159h-.876v.159zm2.439-.159c-.264 0-.474.115-.576.304-.102-.189-.312-.304-.576-.304h-.091v1.382h.17v-1.211h.006c.247 0 .406.174.406.442v.344h.17v-.344c0-.268.159-.442.406-.442h.006v1.211h.17v-1.382h-.091z"/></svg>