<svg xmlns="http://www.w3.org/2000/svg" width="64" height="50" fill="#fff" xmlns:v="https://vecta.io/nano"><path d="M7.505 37.543H9.87c.765 0 1.392-.14 1.837-.456s.667-.833.667-1.429-.222-1.11-.667-1.429-1.052-.456-1.837-.456H6.231v6.188h1.274v-2.418h0zm3.634-1.88c0 .296-.079.417-.262.533-.202.121-.588.199-1.17.199H7.505v-1.449h2.202c.588 0 .968.078 1.17.199.183.082.242.199.262.518h0zm5.841 4.419c-.706 0-1.496-.097-2.143-.514-.647-.397-1.111-1.129-1.091-2.219v-3.591h1.274v3.591c.02 1.071.588 1.565 1.96 1.584 1.373-.039 1.941-.514 1.96-1.584v-3.591h1.274v3.591c0 1.09-.444 1.822-1.091 2.219-.647.417-1.437.514-2.143.514zm10.181-.354c.647-.199 1.234-.732 1.215-1.647a1.63 1.63 0 0 0-.746-1.41c.301-.218.568-.577.568-1.168.02-.853-.484-1.347-1.032-1.546-.543-.218-1.131-.199-1.476-.199h-3.614v6.188h3.214c.499 0 1.225 0 1.871-.218zm-.425-1.09c-.242.097-.607.14-1.012.14H23.34v-1.488h2.484c.484 0 .829.078 1.012.218.183.121.262.276.262.557-.015.33-.119.451-.361.572h0zm-.099-2.68c-.222.121-.607.199-1.15.199h-2.143v-1.25h1.901c.484 0 .968 0 1.254.097.301.097.405.179.405.514.015.223-.064.325-.267.441h0zm9.233 3.988h-5.619v-6.188h1.274v5.015h4.345v1.173h0zm1.229-6.188h1.274v6.188h-1.274v-6.188h0zm9.821 4.283l-.123.218c-.588 1.192-1.718 1.822-3.313 1.822h-.04c-1.071 0-1.96-.296-2.587-.872-.627-.557-.968-1.386-.968-2.36 0-.993.321-1.822.948-2.379.627-.577 1.516-.872 2.607-.872 1.881 0 2.928.95 3.274 1.822l.099.218-1.131.514-.099-.237c-.301-.693-.909-1.148-2.143-1.168-1.535.039-2.242.712-2.261 2.2.02 1.231.83 1.943 2.345 1.962 1.091 0 1.738-.436 2.163-1.211l.123-.218 1.106.562zm1.452 1.904v-6.188h1.274v6.188h-1.274zm9.416-1.865c0 .494-.242 1.032-.746 1.41-.523.378-1.294.615-2.404.615h-.059c-2.103 0-2.869-1.032-3.234-1.41l-.183-.199.987-.834.163.179c.242.257.543 1.051 2.405 1.071.163 0 .666-.019 1.091-.14.444-.141.726-.339.726-.693 0-.237-.123-.359-.504-.494-.365-.121-.908-.179-1.476-.237-.647-.058-1.373-.121-1.96-.359-.587-.218-1.071-.673-1.071-1.429 0-.635.281-1.148.83-1.488.523-.339 1.254-.475 2.163-.475 2.079-.019 2.928 1.071 3.091 1.289l.163.199-.948.751-.163-.179c-.242-.257-.647-.892-2.163-.911-.346 0-.81.039-1.151.16-.346.141-.523.276-.523.577.02.237.099.339.464.455.346.121.849.16 1.412.218.686.058 1.412.121 2.019.378a1.58 1.58 0 0 1 1.072 1.546h0zm-45.86 6.881h3.535v3.309h-1.19v-.417c-.444.296-1.131.557-2.079.557h-.02c-1.072 0-1.96-.296-2.587-.872s-.968-1.386-.968-2.36c0-.993.321-1.822.948-2.379.627-.577 1.516-.853 2.587-.853 1.575 0 2.77.732 3.19 1.744l.079.218-1.091.577-.099-.257c-.405-.993-1.575-1.129-2.103-1.129-1.516.039-2.202.712-2.242 2.181.02 1.231.83 1.943 2.301 1.962.869 0 1.738-.378 1.98-1.09h-2.242v-1.192h0zm11.82-1.032c0-.596-.222-1.09-.686-1.41-.444-.315-1.071-.455-1.856-.455h-3.594v6.188h1.274v-2.5h1.817l1.837 2.5h1.575l-1.94-2.578c.765-.16 1.55-.693 1.575-1.744h0zm-1.254 0c-.02.315-.099.417-.321.533-.242.097-.627.16-1.131.16h-2.163v-1.386h2.163c.504 0 .909.039 1.131.16s.321.218.321.533h0zm6.162-2.001c-1.071 0-2 .315-2.646.892s-1.012 1.41-1.012 2.379c0 1.09.484 1.904 1.17 2.437.706.514 1.595.775 2.464.775s1.758-.237 2.464-.775c.706-.514 1.19-1.347 1.19-2.437 0-.969-.365-1.803-1.012-2.379-.617-.577-1.526-.892-2.617-.892h0zm2.365 3.15c-.02 1.628-1.17 2.122-2.365 2.161-1.19-.019-2.345-.533-2.365-2.161 0-1.192.909-1.982 2.365-2.001 1.452.019 2.365.814 2.365 2.001h0zm7.895-3.014h1.274v3.591c0 1.09-.444 1.822-1.091 2.219s-1.437.514-2.143.514-1.496-.097-2.143-.514c-.647-.397-1.111-1.129-1.091-2.219v-3.591h1.274v3.591c.02 1.09.587 1.565 1.96 1.584 1.373-.039 1.94-.514 1.96-1.584v-3.591h0zm8.468.48c-.444-.315-1.052-.456-1.837-.456H41.89v6.188h1.274v-2.398h2.385c.765 0 1.392-.141 1.837-.456s.666-.833.666-1.429c0-.62-.222-1.134-.666-1.449h0zm-.588 1.425c0 .296-.079.417-.262.533-.202.121-.587.199-1.17.199h-2.202v-1.468h2.202c.588 0 .987.078 1.17.199.203.121.262.242.262.538h0zm3.777 3.116h4.547v1.168h-5.816v-6.188h5.718v1.168H50.58v1.211h3.718v1.168H50.58l-.005 1.473h0z"/><path d="M48.837 30.604l-3.777-2.2c.746.097 1.412-.237 2.039-.673l1.15 1.386-.706-1.706c.765-.596 1.392-1.231 2.182-1.25 2.143-.058.647 2.457 1.412 2.476.869 0 1.817-2.796-.282-4.027-2.163-1.289-4.059.577-5.594.257L51 22.348h-8.384l-.301-.557c1.516.673 2.607.039 3.313-.654l2.385.339-1.98-.751c.464-.475.869-.853 1.373-.674.706.257 1.131.872 2.345.892 2.079.019 3.595-3.59.849-5.175.202 2.578-1.012 2.718-3.15 1.347l.726-1.168-1.091.93c-2.039-.891-3.032.872-3.901 1.449s-1.659-.577-2.686.795c1.555-.494 2.345.95 3.372 0-.425 2.597-1.94-.795-3.456.494 1.313.097 2 1.25 3.032 1.25 1.921 0 .203-3.629 2.908-3.629l-.444-.276c1.535-.14 1.614 1.366 3.92 1.386.242.339-.607.378-1.19.179-.099.475 3.13 1.565 2.365-2.04 1.012.533.79 2.815-.163 3.668-.183.16-.365.257-.464.078-.262-.378.405-.378.607-.969-.726.615-1.96.577-2.809-.199s-2.103-1.706-2.647-.078-.987 2.379-1.98 2.379c-1.373.019-2.829-2.219-4.345-.993 2.908.257 3.595 4.797 6.142 4.855 1.98 0 2.424-.853 3.718-.853s2.646.674 2.646 2.34c0 1.013-.543 1.584-.543 1.584s.405-.814.202-1.865c-.183-.993-1.052-1.604-2.202-1.604-1.595 0-2.869 2.558-4.646 2.558-3.555 0-4.463-6.721-8.162-5.689 2.725 1.803 3.032 4.72 4.503 5.829 1.496 1.129 3.274.674 4.241 1.507.405.339.568.93.706 1.565h-.346c-.123-.315-.301-.635-.588-.872-.849-.872-3.412-.494-4.587-1.725-1.17-1.25-2.039-4.976-4.345-5.553 2.019 1.27 2.464 4.54 3.901 6.144s3.353.751 4.222 1.584l.405.436h-1.659a3.5 3.5 0 0 0-.484-.039l-.81.039h-2.202c-.301-.097-.588-.237-.83-.494-1.15-1.192-1.032-2.437-.948-3.905.222 1.386.484 4.56 2.908 4.201-3.051-1.032-1.274-6.144-4.992-7.452-.405-.14-.262-1.429.745-1.628-2.019.378-2-.339-.587-1.783-.869.557-1.837.397-2.039 1.013 0 0 1.659 2.539 1.659 3.033s-1.091 2.5-1.215 2.558c-.405.218-1.738.218-2.059.121-.346-.097-.765-1.192-.607-1.526.262-.533 2.281-.969 2.326-1.744.02-.615-.829-.673-.79-.359.484.16.706.872-.746 1.211l.321-.514-1.131.872c-.059.039-.301.058-.464 0-.163-.039-1.698-.775-1.437-1.488 0 0 .464.199 1.634.199s1.274-.494 1.274-.494-.627.16-1.254.16c-.647 0-1.274-.16-1.274-.16-.504-.121.04-.732.202-.751h1.215c.079 0 .183-.16 0-.179-.123 0-.889-.019-.948-.218-.099-.315-.301-2.321-.301-2.321s.262-.615.04-.833c-.222-.199-.321-.097-.321-.097.504 2.776-1.659 4.502-2.888 4.162l-.143-.019c.282.199.627.397 1.091.533-2.301.475-3.254-.892-3.614-1.744-.203.097-.203.635-.183.993-.484-.514-.765-1.308-.321-1.885-.587.276-.607.378-.607.378.02-.475.869-.795 1.294-1.347s.346-1.41-.588-1.764c.059.853-.365 1.449-1.254 1.725-.849.276-.706-.475-1.496-.315 1.294.296 1.234 2.04 2.523 2.757-1.718-.397-2.02-2.694-4.123-2.476 1.215-1.686 3.111-.238 3.901-1.41-2.039.456-3.437-1.231-3.679-3.091-.321-2.815-2.77-1.429-2.726-2.815 1.234.533 3.96-1.526 4.77.833.849 2.457 2.548 3.469 4.083 2.321l-6.666-6.643.849 2.776c-1.738.339-3.836-.674-2.706-3.072-1.659-.751-3.836 1.943-1.817 4.046.928.969 3.214.615 3.797 2.597l-2.163-.179 2.222.577.667 1.924-5.194-2.476 3.19 3.649c-1.856.969-2.326-1.802-4.725-1.744-1.679.039-3.575 1.744-2.79 3.726 2.523-1.507 3.333-.436 4.404.615l-1.555.814 1.837-.557c.647.596 1.457 1.09 2.77 1.013 2.182-.16 4.103-.853 4.587-.257.385.436-.059.693-.849.693H11.213l4.162 2.2c-.405.296-1.555 1.706-2.365 1.706s-2.607-1.211-3.091.911c1.856-.315 2.79 3.668 6.685.494l-1.817 2.956H6.221v1.013H57.72v-1.027h-8.883v-.019zm-2.019-12.012c.948.397-2 3.232-2.908 3.13 1.881-.552 1.94-3.527 2.908-3.13zm.385 8.344c.666-1.744 2.77-2.5 3.639-.969.04.078-.02.141-.183-.019-1.091-1.071-2.483-.058-3.353 1.052-.123.179-.163.077-.104-.063h0zM16.798 8.184c-.543.93-.444 2.636 1.758 3.154-3.678.809-3.575-3.295-1.758-3.154zm-2.967 11.14c-1.698-.911-3.19.179-3.19.179.499-1.648 3.634-1.783 3.19-.179h0zm.746-.654c-.262-.339-.464-.615-.746-.712-.365-.097-.745-.097-1.111-.078-.425.019-.81.039-.909-.218-.079-.179 0-.359.222-.514s.568-.276.909-.296c.385-.019.706.058.928.257.222.179.301.199.346.179.059-.019.04-.16.04-.237 0-.058-.02-.121.02-.097.607.097.889.455 1.215.833.523.615 1.313 1.546 3.254 1.211-.514 1.696-3.298 1.177-4.167-.33h0zm1.555 2.321c-.099-.732 3.678-1.289 3.718-.218.02.911-3.594 1.032-3.718.218zm13.193 1.643c-.504.16-.588.95.869 1.289-.464.058-1.634-.14-1.679-.93-.02-.615.829-.674.81-.359h0zm-1.417 1.352c1.353.078 2.79.751 2.79.751.163.339-.242 1.43-.607 1.526-.321.097-1.96-.078-2.202-.751.968.257 1.052-.097 1.052-.097s-.889 0-1.254-.596c.706.237 1.032 0 1.032 0s-1.353-.514-1.392-.814h.588v-.019h-.005zm-4.424-1.764c.385.436-2.079 1.526-3.313 1.11 2.064.039 2.913-1.546 3.313-1.11zm-2.824 1.604c1.412 0 2.242-.456 2.587-.795-.143.993-1.215 1.328-2.587 1.328S18.032 22.89 17 23.864c1.817-.218 2.103 1.686 4.162 1.051-1.777 1.885-3.091-1.429-5.13-.475 1.047-2.437 3.229-.615 4.627-.615h0zm-10.147 3.033c1.072-1.546 1.901.577 3.659-.596.588.911-.849 1.488-1.698.969s-1.516-.533-1.96-.373h0zm5.175 1.09c-.79.596-2.77 1.192-2.745-.078 2.079.397 2.548-2.5 4.385-1.648-.469.102-.874 1.148-1.639 1.725zm-.281 2.655l6.083-3.29c0 1.09-.163 1.885-.425 2.476l-2.992.814h-2.666 0zm5.94 0h-.444c.301-.436.543-.95.81-1.546.015.359-.064.974-.365 1.546zm1.392 0c.262-2.103-.909-5.233 2.424-7.651-.444.397-2.523 2.181-1.881 7.041.647-1.052.099-5.035 2.019-6.464-1.353 1.628-.627 4.482-1.614 7.079h-.948v-.005h0zm2.123 0h-.746c1.111-2.04.484-5.335 1.457-6.343-.672 1.168.38 4.027-.711 6.343zm.706 0l.607-.95c.301.378.464.693.523.95h-1.131zm3.451 0h-.405a1.16 1.16 0 0 0-.262-.853c-1.536-2.001-1.595-2.437-1.595-2.437.143 1.526 1.111 1.725 1.353 3.29h-.647c-.242-1.192-1.457-1.647-.928-5.136l.039-.257c.079 3.174 2.444 3.687 2.444 5.252.025.044 0 .102 0 .14h0zm1.718 0h-.686c.262-1.09-.202-1.429-1.15-2.418 1.412.955 1.921 1.628 1.837 2.418zm-1.452-3.348c-.123-.039-.202-.339-.202-.397 0-.019.04-.078.202-.078l1.817.039 1.817-.039c.163 0 .202.058.202.078 0 .058-.079.378-.202.397 0 0-1.15.276-1.837.237-.627.039-1.777-.237-1.797-.237h0zm2.405 3.348c.02-.514-.079-1.11-.484-1.924.706.814.909 1.386.928 1.924h-.444zm1.575 0h-.425c.183-.615.242-1.289-.301-2.239.785.674.844 1.449.726 2.239h0zm.849 0h-.484c.202-.795.321-1.647-.183-2.655.805.654.785 1.667.667 2.655h0zm.825 0l-.504-1.449c.405.199.686.732.948 1.449h-.444zm2.326 0c-.301-.635-.627-1.11-.987-1.269.262.378.444.814.607 1.269h-.509c-.726-1.41-1.921-2.457-.686-5.054-1.254 2.655 1.837 4.303 2.424 4.836.059.058.143.141.203.237h-1.052v-.019h0zM32.78 16.489c-.242.359.365.654.987.339.543-.276.909-.615 1.778-.615.543 0 1.313.93 1.738.257.301.397-.099.872-.745.872-.667 0-.948-.533-1.778-.533s-.987.494-2.059.494c-1.091 0-1.313-1.924.123-2.083-.834.693-.533 1.269-.044 1.269h0zm8.888-9.856c-.464 1.943-1.901 1.308-3.17 2.995s.543 4.579-2.948 4.56c2.928-.712 1.071-2.815 2.484-4.836.805-1.187 2.908-1.148 3.634-2.718zm-8.063 4.424s-.365 1.366.444 2.142c-1.713-.615-.444-2.142-.444-2.142zm8.023-3.353c-.444 1.429-1.294 1.192-2.222 2.52-1.072 1.168.346 4.521-2.607 4.443 2.345-.674 1.052-3.033 2.182-4.681.627-.911 2.02-1.148 2.647-2.282h0zm-.489 7.714c-.365.238-1.333 1.27-1.921 1.546 0-.674 1.457-2.936 3.901-1.963-.282.238-1.309-.019-1.98.417zm-1.753 2.995c-1.091-.339-1.817.533-2 .14-.104-.499 1.452-.499 2-.14zm1.086-.654c-.04-3.348 4.444-1.604 4.972-3.944.385 2.437-4.019 2.297-4.972 3.944h0zm-1.21 2.084c-1.718-.732-2.627.315-2.706-.179-.123-.736 2.118-.654 2.706.179zM34.232 7.428c1.15 2.321-2.928 2.956-1.19 5.752-2.587-2.084 1.333-3.944 1.19-5.752zM32.03 25.056c.099-.058.183-.339.222-.397.444-.296.988-.456 1.234-.615-.039.475-1.012 1.11-1.457 1.013h0zm-4.142-7.496c-.686-.14-1.476.533-2.261.892.746 1.052 2.444 1.129 3.13 1.507.163-.238.666-2.103-.869-2.399zm-.785 1.706c-.706-.257-.405-1.584.523-1.386-.059.097-.484.892-.523 1.386zm.523.16c.301-.315.523-1.11.588-1.231.666.514 0 1.449-.588 1.231zm-.138-2.558c-.745 0-2.365 1.604-2.745.039a1.63 1.63 0 0 0 .543.058c.282-.911 1.797-1.764 2.726-1.507-1.091.078-1.921.833-1.797 1.27.163.577 1.111-.315 1.921-.296.948 0 1.476.95 2.222.078-.044 1.866-2.182.358-2.869.358h0zm2.646-9.894l.81 2.064s-.746.853-.746 2.36c0 2.956 2.464 3.232 2.301 2.04-1.738.775-1.817-1.686-1.333-2.2 0 0-.321 1.289.849 1.764-1.555-2.52 1.496-3.469 1.496-5.471 0-1.667-1.052-2.219-1.032-3.746.02-1.846 2.79-2.321 2.829-1.628.02.514-2.019.557-2.039 2.476-.04 1.783 2 2.219 1.96 3.944-.039 1.129-2.103 2.181-.81 4.322l2.948-8.15-2.281 2.476c-.726-.892-1.294-.969-1.294-2.558s1.797-1.822 1.797-2.558c0-.596-.909-.674-1.555-.712-1.012-.039-2.829.833-2.829 2.675s1.274 2.776 0 4.521l-1.072-1.618h0zm2.666-.397c.81 2.5-1.837 3.174-2.059 4.816-.163-2.001 2.36-2.951 2.059-4.816zm-6.75 14.556l-.079-.14c-.183-.296-.099-.93-.099-.93-.425-.019-1.091.795-1.091.795s-.281-.95.726-1.366c-.079-.141-.02-.315-.02-.315.829.833 2.325.795 2.726 1.071 0-.01-2.528-.446-2.163.887h0zM20.634 8.62l1.857.872c.059.635.321 1.289.968 2.021.726.833 2.686 1.071 2.77 3.014.607-.596.123-1.962-1.19-2.738-4.992-2.854 3.372-7.356-2-8.959 4.646-.296 2.666 3.828 3.032 5.471.504 2.282 2.666 1.725 3.817 3.154l-1.274-6.939-1.19 4.836c-1.575-.237-1.032-2.437-.988-4.419.079-3.789-6.527-2.694-5.639-.577.346.814 2.587-1.013 2.607.911.02 1.308-.829 2.437-.909 3.707l-1.861-.354h0zm.627-4.56c-.444-.533 1.777-1.148 2.182.218-1.091-.717-1.96.019-2.182-.218zm8.364 9.633c.988-3.469-6.606-1.604-4.404-5.689-.829 4.046 5.999 1.943 4.404 5.689h0zm7.801 7.394c3.94-1.308 5.15 5.097 7.456 5.054 1.412-.039 1.94-.93 2.967-1.148-.706.455-1.718 1.667-2.967 1.686-3.476.082-3.397-5.272-7.456-5.592h0zm-8.912-8.363a.56.56 0 0 0-.183-.417c-.726-.712-2.869-.557-3.861-1.565-2.261-2.2 2.079-4.085.607-7.234 2.706 2.18-3.17 6.105.746 7.414 1.659.557 2.222.751 2.627 1.051.262.199.444.514.444.872 0 .615-.504 1.11-1.131 1.11-.346 0-.647-.14-.849-.378-.444-.455-.301-1.289-.607-1.526.523-.097.81.795 1.333 1.11.099.058.202.097.301.097.311.019.573-.218.573-.533h0zm-6.201 1.604c.405.93 1.536 1.269 2.242 1.289-1.471 1.866-2.607-.436-2.242-1.289zm10.043 11.319c.203-.121.385-.359.484-.494.647-.237.968-.359 1.012-.475.118.417-.731 1.168-1.496.969h0zm5.594-8.228c-.444.238-.667.732-.83.475-.099-.136.242-.552.83-.475zm-1.313.834c-.79-.359-1.595-1.032-2.261-.892-1.555.296-1.032 2.161-.869 2.399.686-.378 2.385-.475 3.13-1.507zm-1.496.775l-.523-1.386c.948-.204 1.229 1.129.523 1.386zm-1.111-1.071c.059.121.262.892.588 1.231-.588.218-1.254-.717-.588-1.231zm5.999-4.206c-.686.751-.647 1.347-1.679 2.001 1.353.577 1.392-1.192 2.726-1.565.928-.257 1.615.833 2.928.237s.849-2.995 1.496-4.046 2.405-2.04 3.659.077c0 0-2.123-2.04-3.111.397.686-.557 1.718-.732 1.718-.199-.543.179-1.412.475-1.437 2.379-.039 2.219-.948 2.694-1.659 3.155-1.032.674-3.412.635-3.94 2.142l8.265-3.61h-2.523c.321-1.822-.385-4.521 3.071-3.886.425-.892-2.444-3.789-4.947-.494l-.242-.833c-.523 4.385-2.888 2.68-4.325 4.245h0zm4.365-2.2c.425.712-.849 2.001-.849 2.001.321.121.321.596-.099.712-.745.218-1.353-.615-2.301-.378.198-.334 2.197-.252 3.249-2.336h0zm-23.335 4.046c0-1.429.726-2.239-.607-3.111 2.607.557.04 4.303 3.515 4.245-.765 1.124-2.888.591-2.908-1.134h0zm16.669-7.554V6.319l.464 1.526c1.052-.296 2.385-.833 2.345-1.764s-1.032-1.328-1.052-1.904c-.02-.853 2.967-.359 2.967 2.379 0 1.943-.686 2.52-.686 2.52l2.523-1.27-4.385 5.572s-1.353 2.021-2.242 1.667c.849-.16 1.96-1.526 1.96-2.738 0-1.628 1.294-2.617 1.698-3.13.425-.533 2.405-4.225-1.131-5.097 2.301 2.302.262 3.348-1.679 4.085-1.857.693-1.294 3.489-1.857 4.463-.607.993-2.222 1.347-2.523 1.347.543-.93 1.659-1.231 2.059-2.302.405-1.129-.183-2.777 1.535-3.629h0z"/></svg>