<svg xmlns="http://www.w3.org/2000/svg" width="73" height="26" fill="none" xmlns:v="https://vecta.io/nano"><mask id="A" maskUnits="userSpaceOnUse" x="0" y="0" width="73" height="26" mask-type="alpha"><path d="M66.233 12.355c.418.418.643.965.676 1.609 0 .161-.097.29-.257.29h-5.18c-.161 0-.289-.161-.257-.322.161-.675.483-1.19.965-1.609.547-.45 1.223-.708 2.059-.708s1.512.225 1.995.74zm5.405 6.467l.096.129c.837 1.03.74 2.542-.225 3.442-1.962 1.866-4.343 2.831-7.11 2.831-1.834 0-3.475-.418-4.858-1.19-.354-.193-.676-.418-.997-.643a2.47 2.47 0 0 1-1.094.965c-1.255.579-2.51.869-3.732.869-1.898 0-3.539-.643-4.794-1.898-.289-.257-.515-.579-.74-.869v.064a2.55 2.55 0 0 1-2.542 2.542h-3.024a2.55 2.55 0 0 1-2.542-2.542v-7.335l-2.992 8.172c-.354.997-1.319 1.673-2.381 1.673h-3.024c-1.094 0-2.059-.708-2.413-1.737l-.965-2.735-.933 2.767c-.354 1.03-1.319 1.737-2.413 1.737h-3.024c-1.062 0-2.027-.676-2.381-1.673l-1.544-4.183c-.225.901-.579 1.737-1.094 2.477-.837 1.255-1.995 2.22-3.41 2.863-1.351.611-2.799.933-4.375.933a11.6 11.6 0 0 1-4.858-1.062 10.96 10.96 0 0 1-3.636-2.703c-.869-.997-.837-2.509.064-3.442l2.091-2.188c.257-.257.547-.45.869-.611a7.38 7.38 0 0 1-2.123-1.995C.728 12.355.31 10.939.31 9.298c0-1.705.45-3.217 1.319-4.504.869-1.255 1.995-2.22 3.41-2.863C6.359 1.287 7.807.965 9.319.965a10.18 10.18 0 0 1 4.343.965c1.223.547 2.316 1.351 3.249 2.381.579.643.772 1.544.579 2.349h2.767a2.56 2.56 0 0 1 2.445 1.77l.74 2.381.74-2.413c.322-1.062 1.319-1.77 2.445-1.77h3.314a2.56 2.56 0 0 1 2.445 1.77l.676 2.123.611-2.091a2.55 2.55 0 0 1 2.445-1.834h3.41a2.23 2.23 0 0 1 .643.097c-.386-.676-.611-1.416-.611-2.252 0-1.223.45-2.316 1.351-3.185C41.781.418 42.875 0 44.13 0s2.349.45 3.217 1.255c.225.225.45.483.611.74.45-.354.997-.579 1.609-.579h.354c2.863 0 5.18 2.316 5.18 5.18v8.236c.129-1.351.483-2.638 1.126-3.796.804-1.48 1.93-2.67 3.378-3.507s3.089-1.287 4.922-1.287c2.638 0 4.729.869 6.242 2.574 1.448 1.641 2.188 3.925 2.188 6.756v.997c0 .965-.547 1.802-1.32 2.252zm-55.402-1.641c0-1.223-.29-2.22-.869-2.96s-1.255-1.287-2.059-1.673c-.804-.354-1.834-.708-3.089-1.062l-2.091-.676c-.45-.193-.836-.418-1.19-.74-.322-.322-.483-.708-.483-1.223 0-.611.257-1.094.74-1.416s1.126-.483 1.898-.483a5.08 5.08 0 0 1 2.22.515c.547.257 1.03.579 1.383.965.097.097.225.161.386.161.129 0 .29-.064.386-.161l1.93-2.059c.193-.193.193-.515 0-.708-.74-.804-1.609-1.448-2.574-1.898-1.094-.547-2.284-.772-3.507-.772s-2.381.257-3.443.772-1.93 1.223-2.606 2.188c-.643.965-.965 2.059-.965 3.346 0 1.223.29 2.22.837 2.992s1.255 1.351 2.059 1.737 1.769.772 2.928 1.094l2.252.676c.45.161.837.354 1.158.643s.515.676.515 1.126c0 .547-.257.997-.74 1.351-.482.322-1.126.515-1.866.515-.869 0-1.769-.225-2.638-.643-.708-.322-1.287-.772-1.802-1.319-.097-.129-.257-.193-.386-.193s-.29.064-.386.161l-2.091 2.188c-.193.193-.193.515 0 .708.837.965 1.866 1.705 2.992 2.22a9.73 9.73 0 0 0 4.022.869c1.255 0 2.445-.257 3.507-.74s1.93-1.223 2.574-2.156c.676-.901.997-2.059.997-3.346zm23.293-8.558h-3.41a.55.55 0 0 0-.515.386l-2.22 7.657c-.032.129-.129.193-.257.193a.27.27 0 0 1-.257-.193l-2.413-7.657c-.064-.225-.257-.354-.515-.354h-3.314c-.225 0-.418.161-.515.354L23.7 16.73c-.032.129-.161.193-.258.193a.27.27 0 0 1-.257-.193l-2.413-7.722c-.064-.225-.257-.354-.515-.354H17.04a.52.52 0 0 0-.483.708l4.858 13.352c.064.193.257.354.483.354h3.024c.225 0 .418-.129.483-.354l2.606-7.754a.27.27 0 0 1 .257-.193.27.27 0 0 1 .257.193l2.606 7.754c.064.225.258.354.483.354h3.024c.225 0 .418-.129.483-.354L40.044 9.33c.097-.322-.129-.708-.515-.708zm6.628.547a.51.51 0 0 0-.515-.515h-3.024a.51.51 0 0 0-.515.515v13.352a.51.51 0 0 0 .515.515h3.024a.51.51 0 0 0 .515-.515V9.169zm.483-4.729a2.26 2.26 0 0 0-.74-1.705c-.483-.45-1.094-.708-1.802-.708s-1.319.225-1.802.708a2.26 2.26 0 0 0-.74 1.705 2.26 2.26 0 0 0 .74 1.705c.483.45 1.094.708 1.802.708s1.319-.225 1.802-.708c.515-.45.74-1.03.74-1.705zm10.263 17.277c-.257-.322-.483-.676-.676-1.062a3.95 3.95 0 0 1-.386-.836c-.096-.225-.322-.354-.579-.29-.193.064-.386.064-.515.064-.483 0-.901-.161-1.19-.483-.322-.322-.483-.772-.483-1.319V6.596a3.16 3.16 0 0 0-3.153-3.153h-.386a.51.51 0 0 0-.515.515v14.221c0 1.576.45 2.831 1.319 3.7.901.869 2.027 1.319 3.378 1.319.804 0 1.77-.161 2.992-.74.322-.161.418-.483.193-.74zm13.963-6.113c0-2.349-.483-4.15-1.609-5.405s-2.702-1.898-4.729-1.898c-1.48 0-2.767.322-3.893.997s-1.995 1.576-2.606 2.703c-.611 1.158-.933 2.445-.933 3.861s.29 2.67.901 3.796 1.48 1.995 2.574 2.606c1.126.611 2.413.933 3.893.933 2.22 0 4.118-.74 5.694-2.252.194-.193.225-.515.032-.708l-1.383-1.705c-.096-.129-.257-.193-.418-.193-.129 0-.257.032-.354.129-.354.322-.772.579-1.222.804-.611.29-1.287.418-1.995.418-.997 0-1.802-.257-2.445-.74-.547-.418-.901-.933-1.094-1.512-.064-.161.064-.322.257-.322h8.816a.51.51 0 0 0 .514-.515v-.997z" fill="#fff"/></mask><g mask="url(#A)"><path d="M66.233 12.355c.418.418.643.965.676 1.609 0 .161-.097.29-.257.29h-5.18c-.161 0-.289-.161-.257-.322.161-.675.483-1.19.965-1.609.547-.45 1.223-.708 2.059-.708s1.512.225 1.995.74zm5.405 6.467l.096.129c.837 1.03.74 2.542-.225 3.442-1.962 1.866-4.343 2.831-7.11 2.831-1.834 0-3.475-.418-4.858-1.19-.354-.193-.676-.418-.997-.643a2.47 2.47 0 0 1-1.094.965c-1.255.579-2.51.869-3.732.869-1.898 0-3.539-.643-4.794-1.898-.289-.257-.515-.579-.74-.869v.064a2.55 2.55 0 0 1-2.542 2.542h-3.024a2.55 2.55 0 0 1-2.542-2.542v-7.335l-2.992 8.172c-.354.997-1.319 1.673-2.381 1.673h-3.024c-1.094 0-2.059-.708-2.413-1.737l-.965-2.735-.933 2.767c-.354 1.03-1.319 1.737-2.413 1.737h-3.024c-1.062 0-2.027-.676-2.381-1.673l-1.544-4.183c-.225.901-.579 1.737-1.094 2.477-.837 1.255-1.995 2.22-3.41 2.863-1.351.611-2.799.933-4.375.933a11.6 11.6 0 0 1-4.858-1.062 10.96 10.96 0 0 1-3.636-2.703c-.869-.997-.837-2.509.064-3.442l2.091-2.188c.257-.257.547-.45.869-.611a7.38 7.38 0 0 1-2.123-1.995C.728 12.355.31 10.939.31 9.298c0-1.705.45-3.217 1.319-4.504.869-1.255 1.995-2.22 3.41-2.863C6.359 1.287 7.807.965 9.319.965a10.18 10.18 0 0 1 4.343.965c1.223.547 2.316 1.351 3.249 2.381.579.643.772 1.544.579 2.349h2.767a2.56 2.56 0 0 1 2.445 1.77l.74 2.381.74-2.413c.322-1.062 1.319-1.77 2.445-1.77h3.314a2.56 2.56 0 0 1 2.445 1.77l.676 2.123.611-2.091a2.55 2.55 0 0 1 2.445-1.834h3.41a2.23 2.23 0 0 1 .643.097c-.386-.676-.611-1.416-.611-2.252 0-1.223.45-2.316 1.351-3.185C41.781.418 42.875 0 44.13 0s2.349.45 3.217 1.255c.225.225.45.483.611.74.45-.354.997-.579 1.609-.579h.354c2.863 0 5.18 2.316 5.18 5.18v8.236c.129-1.351.483-2.638 1.126-3.796.804-1.48 1.93-2.67 3.378-3.507s3.089-1.287 4.922-1.287c2.638 0 4.729.869 6.242 2.574 1.448 1.641 2.188 3.925 2.188 6.756v.997c0 .965-.547 1.802-1.32 2.252zm-55.402-1.641c0-1.223-.29-2.22-.869-2.96s-1.255-1.287-2.059-1.673c-.804-.354-1.834-.708-3.089-1.062l-2.091-.676c-.45-.193-.836-.418-1.19-.74-.322-.322-.483-.708-.483-1.223 0-.611.257-1.094.74-1.416s1.126-.483 1.898-.483a5.08 5.08 0 0 1 2.22.515c.547.257 1.03.579 1.383.965.097.097.225.161.386.161.129 0 .29-.064.386-.161l1.93-2.059c.193-.193.193-.515 0-.708-.74-.804-1.609-1.448-2.574-1.898-1.094-.547-2.284-.772-3.507-.772s-2.381.257-3.443.772-1.93 1.223-2.606 2.188c-.643.965-.965 2.059-.965 3.346 0 1.223.29 2.22.837 2.992s1.255 1.351 2.059 1.737 1.769.772 2.928 1.094l2.252.676c.45.161.837.354 1.158.643s.515.676.515 1.126c0 .547-.257.997-.74 1.351-.482.322-1.126.515-1.866.515-.869 0-1.769-.225-2.638-.643-.708-.322-1.287-.772-1.802-1.319-.097-.129-.257-.193-.386-.193s-.29.064-.386.161l-2.091 2.188c-.193.193-.193.515 0 .708.837.965 1.866 1.705 2.992 2.22a9.73 9.73 0 0 0 4.022.869c1.255 0 2.445-.257 3.507-.74s1.93-1.223 2.574-2.156c.676-.901.997-2.059.997-3.346zm23.293-8.558h-3.41a.55.55 0 0 0-.515.386l-2.22 7.657c-.032.129-.129.193-.257.193a.27.27 0 0 1-.257-.193l-2.413-7.657c-.064-.225-.257-.354-.515-.354h-3.314c-.225 0-.418.161-.515.354L23.7 16.73c-.032.129-.161.193-.258.193a.27.27 0 0 1-.257-.193l-2.413-7.722c-.064-.225-.257-.354-.515-.354H17.04a.52.52 0 0 0-.483.708l4.858 13.352c.064.193.257.354.483.354h3.024c.225 0 .418-.129.483-.354l2.606-7.754a.27.27 0 0 1 .257-.193.27.27 0 0 1 .257.193l2.606 7.754c.064.225.258.354.483.354h3.024c.225 0 .418-.129.483-.354L40.044 9.33c.097-.322-.129-.708-.515-.708zm6.628.547a.51.51 0 0 0-.515-.515h-3.024a.51.51 0 0 0-.515.515v13.352a.51.51 0 0 0 .515.515h3.024a.51.51 0 0 0 .515-.515V9.169zm.483-4.729a2.26 2.26 0 0 0-.74-1.705c-.483-.45-1.094-.708-1.802-.708s-1.319.225-1.802.708a2.26 2.26 0 0 0-.74 1.705 2.26 2.26 0 0 0 .74 1.705c.483.45 1.094.708 1.802.708s1.319-.225 1.802-.708c.515-.45.74-1.03.74-1.705zm10.263 17.277c-.257-.322-.483-.676-.676-1.062a3.95 3.95 0 0 1-.386-.836c-.096-.225-.322-.354-.579-.29-.193.064-.386.064-.515.064-.483 0-.901-.161-1.19-.483-.322-.322-.483-.772-.483-1.319V6.596a3.16 3.16 0 0 0-3.153-3.153h-.386a.51.51 0 0 0-.515.515v14.221c0 1.576.45 2.831 1.319 3.7.901.869 2.027 1.319 3.378 1.319.804 0 1.77-.161 2.992-.74.322-.161.418-.483.193-.74zm13.963-6.113c0-2.349-.483-4.15-1.609-5.405s-2.702-1.898-4.729-1.898c-1.48 0-2.767.322-3.893.997s-1.995 1.576-2.606 2.703c-.611 1.158-.933 2.445-.933 3.861s.29 2.67.901 3.796 1.48 1.995 2.574 2.606c1.126.611 2.413.933 3.893.933 2.22 0 4.118-.74 5.694-2.252.194-.193.225-.515.032-.708l-1.383-1.705c-.096-.129-.257-.193-.418-.193-.129 0-.257.032-.354.129-.354.322-.772.579-1.222.804-.611.29-1.287.418-1.995.418-.997 0-1.802-.257-2.445-.74-.547-.418-.901-.933-1.094-1.512-.064-.161.064-.322.257-.322h8.816a.51.51 0 0 0 .514-.515v-.997z" fill="#fff"/><path d="M17.598 22.729c18.865 3.569 35.72-1.795 37.648-11.982S43.443-10.59 24.578-14.16-11.142-12.365-13.07-2.178-1.267 19.16 17.598 22.729z" fill="#fff"/><path d="M76.628 36.659c9.317-8.196 5.823-27.397-7.804-42.886S36.598-27.628 27.281-19.432s-5.822 27.397 7.804 42.886 32.226 21.402 41.542 13.206z" fill="#fff"/><path d="M33.742 49.064c19.542 0 35.384-10.167 35.384-22.708S53.285 3.648 33.742 3.648-1.642 13.815-1.642 26.356 14.2 49.064 33.742 49.064z" fill="#fff"/><path opacity=".9" d="M62.974 47.356c9.959 2.619 21.751-9.397 26.337-26.838s.23-33.702-9.729-36.321S57.83-6.406 53.244 11.035s-.23 33.702 9.729 36.321z" fill="#fff"/><path d="M30.227 62.738c12.722-8.53 12.836-30.659.253-49.425S-2.617-13.752-15.34-5.222s-12.835 30.659-.253 49.425 33.097 27.065 45.819 18.535z" fill="#fff"/></g></svg>