<svg xmlns="http://www.w3.org/2000/svg" width="93" height="26" fill="#fff" xmlns:v="https://vecta.io/nano"><path d="M65.677.105s2.213 3.802 5.307 4.775L68.729.105h-3.052z"/><path d="M15.726 6.124a12.52 12.52 0 0 0-3.293.766l-.314 1.476h5.029s1.29.002 1.027 1.259l-.312 1.409c-4.223.404-7.898 1.442-8.66 5.034-.542 2.564.893 4.073 4.397 4.148h5.192l1.662-7.844c1.43-6.448-4.011-6.295-4.73-6.248zm.603 12.156h-2.087c-1.626-.069-2.471-.626-2.114-2.313.525-2.479 2.451-3.111 5.426-3.465l-1.225 5.779zM52.55 6.147s-6.308-.877-8.051 7.517l-1.393 6.552h2.879l2.181-10.658c.235-1.026 1.01-1.175 1.241-1.192h2.67l.472-2.219zm30.733 0s-6.308-.877-8.051 7.517l-1.392 6.552h2.879L78.9 9.558c.235-1.026 1.009-1.175 1.241-1.192h2.671l.472-2.219zM72.221 17.314c-.775.367-2.069.779-3.46.779-2.472 0-3.078-1.746-2.876-3.82l8.551-1.189c.202-.885.303-1.695.303-2.429 0-2.959-1.665-4.539-4.44-4.539-2.27 0-4.187 1.074-5.498 2.97-1.135 1.645-1.866 4.049-1.866 6.072 0 3.314 2.018 5.057 5.197 5.057 1.38 0 2.623-.242 3.598-.579l.492-2.322zM66.819 10.2c.782-1.467 1.917-2.301 3.153-2.301 1.286 0 2.018.808 2.018 2.402a7.6 7.6 0 0 1-.189 1.598l-5.84.805c.202-.986.504-1.821.858-2.505zm23.629 7.114c-.775.367-2.069.779-3.46.779-2.473 0-3.078-1.746-2.876-3.82l8.551-1.189c.202-.885.303-1.695.303-2.429 0-2.959-1.665-4.539-4.44-4.539-2.27 0-4.187 1.074-5.498 2.97-1.135 1.645-1.866 4.049-1.866 6.072 0 3.314 2.018 5.057 5.196 5.057 1.38 0 2.624-.242 3.598-.579l.492-2.322zM85.046 10.2c.781-1.467 1.917-2.301 3.153-2.301 1.286 0 2.018.808 2.018 2.402 0 .456-.05.987-.177 1.543l-5.852.861c.202-.986.505-1.821.858-2.505zM61.815.105l-1.271 6.011H58.33l-.001.001c-2.25.014-4.182 1.034-5.535 2.842-1.236 1.645-2.043 4.149-2.043 6.248 0 3.189 2.018 5.008 5.247 5.008h4.632L64.867.105h-3.052zM57.97 18.28h-1.748c-1.697-.057-2.419-1.247-2.419-3.047 0-1.619.531-3.77 1.362-5.135.808-1.341 1.968-2.199 3.584-2.199h1.415L57.97 18.28zm-54.452-.214c-.258-.014-.997-.134-.818-1.166L5.739 2.56H2.51L.391 12.577c-.029.118-1.494 7.638 4.615 7.638h3.102l.456-2.15H3.518zm25.523-11.95c-2.722 0-4.791 1.079-6.177 2.974-1.21 1.643-2.042 4.286-2.042 6.36 0 2.933 1.714 4.765 4.413 4.765 1.085 0 1.941-.194 2.522-.473l-.152.701c-.378 1.694-1.563 3.009-3.757 3.009-1.239 0-2.403-.307-3.095-.668l-.478 2.257c.97.37 2.289.607 3.669.61 1.531-.035 5.657-.653 6.836-6.092l2.574-12.516c-.832-.507-2.396-.927-4.312-.927zm-.907 11.869c-.479.253-1.135.431-1.841.431-1.714 0-2.471-.995-2.471-2.764 0-1.593.555-3.932 1.312-5.323.857-1.568 1.992-2.427 3.504-2.427.781 0 1.235.127 1.513.278l-2.017 9.805zM38.841 6.124a12.52 12.52 0 0 0-3.292.766l-.313 1.476h5.029s1.289.002 1.027 1.259l-.312 1.409c-4.223.404-7.898 1.442-8.659 5.034-.543 2.564.892 4.073 4.396 4.148h5.193l1.662-7.844c1.43-6.448-4.012-6.295-4.731-6.248zm.603 12.156h-1.843-.244c-1.626-.069-2.471-.626-2.114-2.313.525-2.479 2.45-3.111 5.426-3.465l-1.225 5.779z" fill-rule="evenodd"/></svg>