<svg xmlns="http://www.w3.org/2000/svg" width="69" height="31" fill="none" xmlns:v="https://vecta.io/nano"><g clip-path="url(#A)" fill="#fff"><path d="M67.172 22.455c-5.767-.426-12.949-.793-20.77-.793-11.994 0-25.539.841-37.895 3.455-2.068-2.669-4.589-4.773-8.453-6.429L0 18.795c3.415 3.796 5.598 7.079 7.15 11.775 17.312-6.609 39.055-7.828 55.466-7.828l4.517.037.04-.323zM49.149 10.453a6.25 6.25 0 0 0 .169-1.369c0-1.032-.639-1.469-1.307-1.469-1.106 0-1.677.672-1.939 2.823l3.077.015zm-21.858 5.192c-.4.322-.888.51-1.397.536-1.077 0-1.21-.918-1.21-2.001 0-1.278.334-3.55.718-4.45.56-1.373 1.325-1.755 2.557-1.755a1.5 1.5 0 0 1 .259.022l-.926 7.648zm36.164-3.128c-.395 3.701-.937 4.465-1.979 4.465-.948 0-1.325-.709-1.325-2.254a23.99 23.99 0 0 1 .19-2.57c.395-3.712.934-4.446 1.975-4.446.952 0 1.329.701 1.329 2.247a24.83 24.83 0 0 1-.187 2.57l-.004-.011zm-24.774 7.031h-5.193L35.845 0h5.185l-2.349 19.548zm10.54-3.392a13.98 13.98 0 0 0 3.566-.584l-.636 3.547c-1.574.364-3.184.543-4.797.532-5.239 0-6.697-2.328-6.697-5.383 0-7.802 3.286-9.576 7.8-9.576 3.544 0 5.746 1.755 5.746 5.115a16.47 16.47 0 0 1-.495 3.701h-7.825c0 1.678.539 2.636 3.34 2.636v.011zM28.828 4.81c-3.62 0-5.577.705-7.182 2.442-1.512 1.645-2.313 4.538-2.313 7.615 0 2.669.654 4.883 3.878 4.883 1.476 0 2.761-.573 3.95-1.281h.058l-.133 1.068h4.934l1.735-14.635c-1.436-.059-3.092-.092-4.941-.092h.014zM69 9.998c0-3.778-2.392-5.305-6.403-5.305-4.848 0-7.8 2.276-7.8 9.983 0 3.774 2.392 5.305 6.406 5.305 4.844 0 7.796-2.203 7.796-9.983h0zM17.56 0a83.75 83.75 0 0 1-4.948 13.757h-.043C12.02 10.019 11.736 4.64 11.736 0h-5.99c.183 7.343 1.436 13.794 2.837 19.537h5.781C17.805 13.294 20.709 6.757 23.043 0H17.56z"/></g><defs><clipPath id="A"><path fill="#fff" d="M0 0h69v30.57H0z"/></clipPath></defs></svg>