<svg xmlns="http://www.w3.org/2000/svg" width="85" height="26" fill="#fff" xmlns:v="https://vecta.io/nano"><path d="M67.931 21.046H16.877l4.067 4.067 46.987-4.067zM21.607 4.595v.61c-.947-.61-1.797-.956-2.961-.956-3.577 0-6.303 3.253-6.303 7.267s2.719 7.267 6.303 7.267c1.163 0 2.013-.352 2.961-.956v.61h3.146V4.595h-3.146zm-2.961 10.858c-1.765 0-3.05-1.736-3.05-3.931s1.291-3.928 3.05-3.928 3.009 1.737 3.009 3.928-1.244 3.931-3.009 3.931zM46.795 4.595v8.133c0 1.527-1.049 2.816-2.576 2.816s-2.576-1.287-2.576-2.812V4.599h-3.144v8.134c0 3.341 2.283 6.057 5.622 6.057a4.83 4.83 0 0 0 2.674-.856v.514h3.138V4.595h-3.138zm29.296 13.854v-8.133c0-1.527 1.047-2.816 2.576-2.816s2.578 1.285 2.578 2.812v8.134h3.146v-8.134c0-3.339-2.285-6.055-5.624-6.055a4.82 4.82 0 0 0-2.676.852v-.512h-3.146V18.45h3.146zm-72.801 0v-5.366h2.324l4.028 5.366h4.116l-4.866-6.476a5.96 5.96 0 0 0 2.204-2.975 5.97 5.97 0 0 0 .024-3.703c-.385-1.206-1.143-2.258-2.165-3.004a5.97 5.97 0 0 0-3.52-1.148H0v17.306h3.29zm0-14.02h2.145a2.68 2.68 0 0 1 2.682 2.682 2.68 2.68 0 0 1-2.682 2.682H3.29V4.429zm55.123 10.742a1.88 1.88 0 0 1-1.053.342c-.512 0-1.48-.393-1.48-1.7v-5.93h2.688V4.595H55.88V1.139h-3.146v3.457H51.07v3.288h1.663v5.968c0 3.095 2.33 4.941 4.677 4.941a6.48 6.48 0 0 0 3.076-.87l-2.074-2.751zM32.569 11.09l5.392-6.495h-4.406l-3.772 4.827V0h-3.239v18.449h3.239V12.76l4.636 5.689h4.406l-6.257-7.359zm33.105-6.846c-3.638 0-6.249 3.199-6.249 7.279 0 4.291 3.276 7.28 6.562 7.28 1.657 0 3.782-.569 5.567-3.103l-2.778-1.602c-2.147 3.166-5.726 1.56-6.139-1.606h9.051c.781-4.974-2.44-8.247-6.015-8.247zm2.745 5.49h-5.663c.661-3.243 5.051-3.43 5.663 0z"/></svg>