<svg xmlns="http://www.w3.org/2000/svg" width="80" height="38" fill="#fff" xmlns:v="https://vecta.io/nano"><path d="M17.059 32.438l-3.073.001 1.51-4.132 1.564 4.13v.001zm.92-6.295c-.191-.505-.553-.72-1.213-.732-.06-.002-3.123.003-3.123.003L9.112 37.757l2.211-.001c.18.016.361-.014.526-.087.43-.196.647-.701.703-.864a636.72 636.72 0 0 1 .658-1.831l4.56-.003.927 2.779h2.983l-1.891-6.006-1.802-5.607-.006.006zm21.572 8.983c-1.8 0-3.21-1.564-3.21-3.546 0-1.971 1.38-3.458 3.209-3.458 1.813 0 3.13 1.454 3.13 3.458 0 2.022-1.345 3.546-3.129 3.546zm-.089-9.817h-.001c-3.531.005-6.093 2.657-6.093 6.308 0 3.572 2.619 6.267 6.094 6.267s6.198-2.752 6.198-6.267c0-3.535-2.723-6.308-6.198-6.308h0zm14.187 5.196l-.115-.032c.004.001-1.148-.351-1.151-.351l-.172-.063c-.94-.34-1.609-.625-1.609-1.173v-.04c.092-.909 1.779-.919 1.797-.919a6.29 6.29 0 0 1 2.55.507l.02.008.038.011c.209.043.39.054.54.015l.251-.094c.359-.199.718-1.248.856-1.69l.044-.142-.111-.108c-.043-.04-.309-.259-1.267-.616-.97-.365-2.359-.423-2.359-.423l-.682-.003c-3.561 0-4.92 2.198-4.964 3.676-.031 1.472.807 2.229 2.073 2.915.53.297 1.494.564 2.198.755a1659.42 1659.42 0 0 1 .726.213c1.327.416 1.833.879 1.739 1.598-.042.238-.485.631-1.51.631a6.47 6.47 0 0 1-2.204-.374 9.07 9.07 0 0 1-1.097-.539l-.019-.011-.038-.016a1.45 1.45 0 0 0-.565-.101l-.28.062c-.406.152-.978 1.186-1.204 1.632l-.089.172.154.122a12.27 12.27 0 0 0 1.197.838c.632.351 1.345.604 2.184.774a9.21 9.21 0 0 0 1.718.14c2.758 0 4.765-1.399 4.995-3.481.101-1.89-1.058-3.123-3.646-3.894l.004.004zm5.9-5.072c-.117-.001-.716.011-1.063.332-.159.147-.243.342-.243.563l-.002 1.952 3.765-.001.002 9.488 3.084-.003v-9.487l2.424-.001c.115 0 .715-.012 1.062-.333.078-.071.14-.158.182-.255a.74.74 0 0 0 .061-.308v-1.941l-9.271-.001-.001-.006zm-52.921 9.54H3.166l-.009-8.413c0-.35-.106-.625-.315-.821-.337-.314-.835-.311-1.022-.309L0 25.428.005 37.762h7.721l.005-1.96c0-.25-.108-.829-1.101-.829h-.001zm22.073-6.917c.755-.054 1.378.003 1.973.163.323.107.606.127.85.054l.247-.109c.343-.214.591-1.297.707-1.922l.027-.148-.125-.09c-.032-.023-.129-.093-1.247-.394a9.18 9.18 0 0 0-2.373-.306l-.047.001c-2.557 0-6.403 1.688-6.514 6.335v.025c.111 4.648 3.957 6.334 6.516 6.334-.001 0 .047 0 .047 0a9.11 9.11 0 0 0 2.372-.305l1.248-.394.124-.09-.027-.148c-.116-.626-.364-1.708-.707-1.923h-.001l-.246-.109c-.245-.067-.539-.047-.863.061-.589.16-1.219.211-1.975.162-1.935-.189-3.099-1.506-3.185-3.612.086-2.087 1.251-3.397 3.194-3.592l.005.006zm49.255 9.701c.478-.01 1.287-.291 1.287-1.24l-.009-1.548-5.436.003.009-2.069h4.489l-.008-2.853-4.473.005v-1.779l4.119-.004c.115.001.729.002 1.062-.333.234-.233.244-.658.244-.879v-1.628l-8.553-.001.004 12.33 7.268-.01M51.668 14.697s.009-.702-.724-1.165c-1.182-.744-.572-1.222-.61-1.213 0 0-1.203-.997-3.266-.251s-2.181.669-2.593.373-1.277-.137-1.139.354.471 2.653 3.123 1.297.609 2.319 5.737 2.889 8.233.315 4.833-.884l-4.339-1.323-1.021-.079m-1.782-4.294s.011-.174-.34-.399c-.595-.385-.909.014-.909.014s-.282.246-.078.625c0 0 1.132-.14 1.326-.24h0zm1.1-.571s-.137.239-.015.323c.061.042.681-.133.73-.159s-.27-.883-.716-.165"/><path d="M51.351 12.792c.246-.089.458.388.716.291.272-.102.072-.582.367-.693.272-.102.452.384.713.287.277-.108.101-.596.363-.69.274-.099.433.388.717.286s.099-.591.36-.69c.27-.099.458.383.718.288.248-.092.108-.602.363-.694.27-.097.442.384.73.28.233-.085.105-.597.347-.688s.471.383.724.288c.239-.09.097-.597.352-.692.267-.1.474.377.726.287s.062-.504.387-.663c0 0 .453-.152.426-.485-.005-.055-.1-.771-.844-.92-.714-.144-6.371 1.43-6.441 1.337-.523-1.034-1.189-.746-1.291-.724s-.733.3-1.434.029c-1.373-.625-2.469.964-3.219.755-.696-.194-1.224-.085-1.513.016-.267.092-.697.44-1.61.126-7.06-2.427-12.58-.306-12.58-.306-3.111 1.044-3.51.001-3.51.001s-1.025-1.403 6.184-3.069C43.463 4.35 43.773.386 43.654.138c-.173-.364-.236.064-.578.458-.285.328-.617.165-.617.165-.326-.157-.539.219-.539.219s-.421.652-.793.282c-.356-.357-.83.451-1.007.483-.21.038-.313-.067-.6-.196-.426-.192-.882.591-1.116.644-.36.082-.611-.425-.917-.212-.922.64-1.068.733-1.315.481-.183-.188-.216-.391-.825.201-.525.506-.774.597-.987.278s-.16-.764-1.058.104c-.43.414-.65.422-.896.235-.184-.139-.182-.807-.83-.202-.583.539-1.009.784-1.173.299-.183-.542-.871.099-1.032.251s-.518.552-.767.137-.843.208-1.195.601c-.275.304-.496.07-.781-.124-.323-.226-1.306 1.148-1.395 1.231s-.157.003-.382-.189c-.345-.294-1.275 1.336-1.423 1.443 0 0-.066.141-.318-.101-.359-.344-2.275 2.189-2.998 5.06-.924 3.679.548 6.497.548 6.497s.442.014.631-.289l.287-.65c.232-.539.611-.369.611-.369l-.901 2.696c-.14.357-.055.86.259 1.337.297.478.503.801.742 1.026.733.695.659-.126.678-.229.085-.441.569-.105.948.109.69.388.614-.471.764-.753.104-.198.445-.209.813.103.286.24.572-.575.572-.575.356-1.738-.483-1.943-.938-1.965l-.919-.043s.062-.264.155-.514l.043-.173c1.002-2.515-.674-3.002-1.175-2.96-.552.049-.512-.307-.512-.307s3.028-.598 2.464 2.633l-.18.856.832.097c.718.09.845.944.845.944s2.633.699 4.126.419c0 0 .671-.16.854-.577 0 0 .968-2.295 3.793-2.391 0 0 .101.299-.352.45-.544.183-2.343.329-2.717 2.413l-.002.008c-.041.341.051 1.07.789 1.407.627.286.849 1.435.978 1.745.368.882.915.038.915.038s.348-.711.644-.318c.505.669.739.333.852-.092.124-.458.307-.658.833-.101.225.241.666.055.71-.36.092-.908.704-.187.792-.15.104.042.744-.106.388-1.131 0 0-.485-.978-2.666-1.401-.512-.1-.431-.473-.431-.473l.483.069c.142.025 1.41.165 1.547.188 5.319.528 9.354-1.287 9.476-1.416h0c4.134.795 9.752.523 10.808.142s1.132-.999 1.014-1.165c-.155-.207-.409-.289-.583-.369s-.147-.249-.291-.296-.402.252-.601.188-.182-.439-.35-.493-.466.228-.621.178-.186-.441-.334-.489-.465.235-.62.184-.164-.434-.334-.489-.47.23-.622.181-.167-.434-.333-.487-.469.227-.623.178-.199-.442-.343-.489-.431.187-.663.172c-1.615-.152-2.232-1.173-2.34-.873s.334 1.018.895 1.262c.442.193 5.251 1.531 5.377 1.593s.425.198.32.374c-.169.224-.639.002-.756-.097-.123-.102-.096-.14-.209-.167-.257-.065-.399.41-.671.347-.249-.058-.233-.559-.483-.617-.278-.065-.406.41-.67.347-.218-.051-.248-.563-.483-.618-.273-.064-.395.412-.676.346-.243-.057-.229-.558-.482-.616s-.431.403-.67.347-.273-.566-.488-.616-.388.21-.683.248c0 0-.84.23-2.167-1.166-1.333-1.396-1.88-1.671-2.638-1.1-1.24.927-2.006.313-2.233.039-.266-.323.015-.608.015-.608s.395.609.888.624c.796.024 1.399-1.074 2.766-1.091 1.73-.063 2.182.555 2.654.603.44.044.585-.027.889-.203h0"/><path d="M49.9 10.387s.011-.174-.34-.4c-.596-.386-.91.015-.91.015s-.281.246-.077.625c0 0 1.132-.14 1.326-.24zm1.101-.565s-.137.239-.014.324c.054.042.681-.133.73-.159s-.27-.882-.716-.165h0zm-12.293 3.21s.839-.455 1.017-.321.011.917-.117.805l-.9-.484h0zm.319-1.453s.837-.455 1.017-.321.009.917-.116.802l-.9-.481zm1.753.316s.838-.456 1.016-.322.009.919-.117.804l-.9-.482h0zm-1.407-1.804s.839-.456 1.018-.322.008.915-.116.809l-.901-.482v-.005zm-2.133 1.22s.837-.453 1.015-.321.011.917-.116.804l-.899-.484zm-.291 1.503s.839-.455 1.017-.322.011.917-.115.805l-.902-.483zm-1.873.002s.839-.456 1.016-.323.01.918-.117.809l-.899-.481v-.004zm.294-1.585s.84-.458 1.024-.324.008.917-.117.809l-.901-.485h-.006zm.343-1.585s.839-.457 1.018-.321.009.917-.117.809l-.901-.482v-.005zm-2.178 1.666s.839-.457 1.017-.322.01.916-.117.809l-.9-.485v-.001zm.296-1.581s.837-.457 1.015-.323.012.917-.116.809l-.899-.481v-.004zm-1.921.263s.838-.456 1.017-.324.009.92-.117.806l-.9-.482h0zm-.313 1.555s.838-.456 1.017-.325.009.919-.116.805l-.901-.485v.005zm-.245 1.581s.839-.456 1.016-.324.011.919-.116.809l-.9-.481v-.004zm1.937-.334s.837-.456 1.016-.322.011.917-.115.804l-.9-.482h-.001zm-3.907.974s.837-.456 1.016-.322.008.918-.116.809l-.9-.482v-.005zm.304-1.607s.838-.455 1.017-.324.009.917-.117.806l-.9-.482h.001zM30 10.508s.836-.454 1.016-.321.009.918-.117.805L30 10.508h0zm-1.88.44s.836-.453 1.015-.321.009.918-.115.804l-.9-.483h.001zm-.326 1.601s.839-.456 1.016-.322.009.917-.117.809l-.899-.482v-.005zm-.39 1.509s.838-.453 1.017-.322.009.919-.117.805l-.9-.483h.001zm-1.566-1.352s.837-.456 1.015-.321.011.918-.118.809l-.898-.482v-.005zm-.431 1.517s.836-.457 1.015-.324.011.917-.116.809l-.898-.485h0zm-1.604-.708s.839-.457 1.018-.323.008.918-.117.806l-.9-.483h0zm2.332-2.234s.837-.455 1.017-.323.008.919-.118.805l-.899-.482zm-1.929.589s.838-.455 1.018-.323.009.917-.117.806l-.901-.482h0zm-1.693.59s.84-.455 1.016-.321.01.915-.116.809l-.899-.483v-.005zm2.746-2.36s.838-.457 1.016-.322.01.917-.117.809l-.898-.481V10.1zm-1.715.442s.838-.456 1.014-.324.011.917-.115.804l-.899-.482v.001zm-1.74.643s.839-.455 1.017-.321.01.917-.115.805l-.902-.483h0zm3.621-2.63s.839-.456 1.016-.324.009.919-.115.806l-.901-.483h0zm-1.673.506s.838-.457 1.016-.323.01.917-.115.809l-.9-.481v-.004zm-1.778.579s.838-.454 1.016-.323.009.919-.117.806l-.899-.483v.001zm4.195-2.334s.837-.455 1.016-.321.009.919-.116.804l-.9-.483h.001zm-1.827.208s.839-.456 1.016-.322.011.917-.115.804l-.901-.482h0zm2.337-1.742s.837-.456 1.015-.322.01.918-.114.809l-.9-.481v-.006zm1.462-.493s.838-.454 1.017-.324c.178.136.009.919-.116.804l-.902-.481h0zm-3.017 1.044s.838-.455 1.016-.322.009.915-.115.806l-.9-.484h-.001zm-2.339 1.738s.837-.456 1.015-.321.009.918-.117.809l-.898-.483v-.005zm14.795 1.74s.839-.456 1.016-.323.009.917-.117.809l-.899-.481"/></svg>