<svg xmlns="http://www.w3.org/2000/svg" width="46" height="46" fill="#fff" xmlns:v="https://vecta.io/nano"><path d="M36.63 23c0 7.532-6.097 13.63-13.63 13.63V23h13.63zM23 9.37V23H9.37c0-7.532 6.097-13.63 13.63-13.63z"/><path d="M23 9.37v.747A12.9 12.9 0 0 1 35.882 23h.747c0-7.527-6.103-13.63-13.63-13.63zm0 26.512A12.9 12.9 0 0 1 10.118 23H9.37c0 7.527 6.103 13.63 13.63 13.63M23 0C10.298 0 0 10.298 0 23s10.298 23 23 23 23-10.298 23-23S35.702 0 23 0zm21.504 23c0 11.876-9.627 21.504-21.504 21.504S1.496 34.876 1.496 23A21.51 21.51 0 0 1 23 1.496 21.51 21.51 0 0 1 44.504 23z"/><path d="M13.171 11.904c.735-.769 1.151-1.657.416-2.505-.4-.46-1.071-.561-1.628-.334l-.055.021.018-.048a1.33 1.33 0 0 0-.463-1.398c-.292-.235-.658-.322-1.028-.284-.69.07-1.221.538-2.667 2.139l-1.452 1.739 3.971 3.741 2.89-3.07zm-5.181-.915c.8-.972 1.65-1.853 2.035-2.202.122-.11.254-.22.415-.263.261-.071.53.113.591.378s-.108.521-.296.73L8.76 11.718l-.77-.729zm1.555 1.465l2.004-2.093c.196-.201.322-.323.457-.389.174-.085.365-.102.535.011s.245.303.203.494c-.05.227-.236.443-.391.608l-2.002 2.128-.805-.758zm13.909-5.011l1.271-2.828.081-.251-.023.262.134 3.78 1.36.178-.207-5.598-1.9-.146-1.253 3.087-.044.229-.045-.229-1.251-3.087-1.9.146-.207 5.598 1.36-.178.134-3.78-.023-.262.081.251 1.271 2.828h1.158zm10.558 5.851a19.98 19.98 0 0 1 1.015 1.196l4.653-2.933-.88-1.084-2.947 1.935-.201.172.15-.217 1.301-2.579-.92-.914-2.598 1.292-.219.149.174-.2 1.95-2.925-1.093-.877-2.953 4.617 1.182.992 2.78-1.433.178-.13-.131.177-1.441 2.764z"/></svg>