<svg xmlns="http://www.w3.org/2000/svg" width="55" height="15" fill="#fff" xmlns:v="https://vecta.io/nano"><path d="M11.13 10.251l.325.093-1.154 3.635H.09v-.391h.505c.577 0 .866-.168 1.118-.559.126-.224.198-.727.198-1.491V2.442c0-.857-.09-1.417-.289-1.622C1.371.522.992.336.451.336H0V0h5.917v.336c-.704 0-1.154.037-1.443.205a1.22 1.22 0 0 0-.577.559c-.126.224-.162.727-.162 1.547v8.965c0 .559.036.988.162 1.193.09.149.216.261.379.335.162.093.83.093 1.696.093h.83c1.028 0 1.732-.093 2.147-.261a2.97 2.97 0 0 0 1.154-.857c.451-.54.794-1.174 1.028-1.864zM23.072 0v.391c-.343.056-.649.224-.902.466a4.55 4.55 0 0 0-.902 1.547l-4.69 11.948h-.415L11.202 2.255a7.24 7.24 0 0 0-.541-1.137 1.61 1.61 0 0 0-.613-.503c-.253-.149-.541-.224-.83-.224V0h5.123v.391c-.613.037-.812.168-.992.336-.18.149-.271.373-.289.596 0 .336.162.895.451 1.622l3.391 8.164 3.193-8.071c.289-.82.451-1.361.451-1.659a.69.69 0 0 0-.289-.559 2.56 2.56 0 0 0-1.028-.391c-.054 0-.108-.019-.162-.037V0h4.005zm8.387 13.979L26.373 2.367v9.226c0 .857.09 1.361.289 1.584.253.298.541.429 1.082.429h.505v.373h-4.762v-.391h.794c.577 0 .992-.168 1.191-.522.162-.224.198-.727.198-1.491V2.386a3.69 3.69 0 0 0-.198-1.323c-.09-.224-.253-.335-.505-.522a2.11 2.11 0 0 0-1.118-.205V0h3.518l4.834 10.941L37.015 0h3.644v.391h-.451c-.577 0-.902.168-1.118.522-.162.224-.252.727-.252 1.491v9.189c0 .857.09 1.361.289 1.584.252.298.577.429 1.118.429h.379v.373h-5.448v-.391h.415c.577 0 .992-.168 1.191-.522.162-.224.198-.727.198-1.491V2.218l-5.177 11.761h-.343zm13.566-7.567h6.241v-3.97c0-.727-.036-1.193-.126-1.417a.94.94 0 0 0-.415-.429c-.253-.168-.541-.261-.83-.261h-.451V0h5.502v.391h-.451c-.289 0-.559.075-.794.261-.216.093-.361.28-.415.522-.09.224-.126.69-.126 1.361v9.058c0 .727.036 1.156.126 1.417a.94.94 0 0 0 .415.429c.253.168.541.242.83.261h.451v.391H49.48V13.7h.451c.541 0 .866-.168 1.118-.522.162-.224.253-.727.253-1.584V7.176h-6.278v4.361c0 .727.036 1.156.126 1.417a.94.94 0 0 0 .415.429c.252.168.541.261.83.261h.505v.391h-5.412v-.373h.451c.415.037.83-.168 1.082-.522.162-.224.252-.727.252-1.584V2.442c0-.727-.036-1.193-.126-1.417a.94.94 0 0 0-.415-.429c-.253-.168-.541-.261-.83-.261h-.451V0h5.448v.391h-.505c-.289 0-.559.075-.794.261a.91.91 0 0 0-.415.522c-.09.224-.126.69-.126 1.361l-.036 3.877z"/></svg>