<svg xmlns="http://www.w3.org/2000/svg" width="103" height="71" fill="#fff" xmlns:v="https://vecta.io/nano"><path d="M67.333 46.392L46.376 9.989l15.055-8.643 26.06 45.047H67.333zm-55.82-5.1l15.055-8.702 7.966 13.802h-20.1l-2.921-5.1zm29.546 28.324h4.285V52.291h-4.285v17.326zm53.697.409c-4.791 0-7.674-2.472-7.83-5.957h4.519c0 1.09.682 2.686 3.603 2.745 1.948 0 2.863-1.148 2.863-2.005-.117-1.363-1.831-1.48-3.662-1.772s-3.389-.623-4.519-1.207c-1.441-.74-2.415-2.336-2.415-4.166 0-3.095 2.688-5.548 7.167-5.548 4.343 0 7.089 2.278 7.381 5.665h-4.362c-.039-.915-.214-2.355-2.785-2.355-1.733 0-2.882.35-2.98 1.557 0 1.771 3.603 1.655 6.408 2.394 2.688.681 4.402 2.355 4.402 4.692 0 4.302-3.486 5.957-7.79 5.957zm-65.597-44.19l15.055-8.682L61.1 46.392H45.344v4.283h-4.285v-4.302l-11.9-20.538zm.39 44.19c-4.986 0-9.037-4.069-9.037-8.994 0-4.984 4.051-8.916 9.037-8.916 1.889 0 3.603.506 5.103 1.538v-7.261h4.285v23.224h-4.285v-1.149c-1.5.973-3.214 1.557-5.103 1.557zm-4.928-8.994c0 2.686 2.298 4.925 5.044 4.925 2.688 0 4.986-2.239 4.986-4.925s-2.298-4.984-4.986-4.984c-2.746 0-5.044 2.297-5.044 4.984zm36.596-14.639h4.226v23.224h-4.226v-1.149a9.18 9.18 0 0 1-5.161 1.557c-4.928 0-8.979-4.069-8.979-8.994 0-4.984 4.051-8.916 8.979-8.916 1.948 0 3.662.506 5.161 1.538v-7.261zm-9.972 14.639c0 2.686 2.298 4.925 4.928 4.925 2.746 0 5.044-2.239 5.044-4.925s-2.298-4.984-5.044-4.984c-2.629 0-4.928 2.297-4.928 4.984zm24.618 8.994c-4.908 0-8.979-4.069-8.979-8.994 0-4.983 4.07-8.916 8.979-8.916 1.889 0 3.662.506 5.103 1.538v-1.382h4.285v17.345h-4.285v-1.149a8.99 8.99 0 0 1-5.103 1.557zm-4.811-8.994c0 2.687 2.298 4.925 4.986 4.925s4.927-2.239 4.927-4.925-2.24-4.983-4.927-4.983-4.986 2.297-4.986 4.983zm-66.297 0c0 2.687 2.298 4.925 4.986 4.925 2.746 0 5.044-2.239 5.044-4.925s-2.298-4.983-5.044-4.983c-2.688 0-4.986 2.297-4.986 4.983zm4.869 8.994c-4.928 0-8.998-4.069-8.998-8.994 0-4.983 4.071-8.916 8.998-8.916 1.889 0 3.662.506 5.161 1.538v-1.382h4.226v17.345h-4.226v-1.149a9.18 9.18 0 0 1-5.161 1.557z"/></svg>