<svg xmlns="http://www.w3.org/2000/svg" width="129" height="20" fill="none" xmlns:v="https://vecta.io/nano"><path d="M14.432 8.332h5.172c-.242-1.252-1.095-1.997-2.306-1.997-1.363.013-2.407.744-2.866 1.997h0zm3.324 7.625c-3.554 0-6.127-2.505-6.127-5.964 0-3.521 2.395-5.989 5.809-5.989 3.477 0 5.031 2.678 5.031 5.332 0 .26-.038.719-.051.769l-.051.521h-8.012c.268 1.773 1.592 2.914 3.439 2.914 1.554 0 2.624-.979 2.739-1.091l.522-.533 1.376 2.071-.357.335c-.038.062-1.694 1.637-4.318 1.637h0zM2.662 6.373h2.815c1.146 0 1.898-.756 1.898-1.922s-.713-1.86-1.911-1.86H2.662v3.782h0zm0 6.869h3.006c1.427 0 2.267-.831 2.267-2.219 0-1.364-.904-2.257-2.293-2.257H2.662v4.476h0zm-.637 2.455H0V.161h.28L.446.148h5.082c2.752 0 4.599 1.686 4.599 4.203 0 1.24-.459 2.306-1.299 3.05 1.197.744 1.885 2.083 1.885 3.683 0 2.765-2.013 4.613-5.019 4.613H2.025h0 0zm100.683.012h-1.758c-1.236 0-1.885-.632-1.885-1.835V5.108l2.636-1.475v9.684h1.007v2.393h0zm-2.268-12.56c-.891 0-1.618-.707-1.618-1.575S99.549 0 100.44 0s1.618.707 1.618 1.575-.726 1.575-1.618 1.575zM47.704 15.71h-1.758c-1.235 0-1.885-.632-1.885-1.835V5.121l2.649-1.475v9.684h1.006l-.013 2.38zM45.45 3.149c-.892 0-1.618-.707-1.618-1.575S44.558 0 45.45 0s1.618.707 1.618 1.575-.726 1.575-1.618 1.575zm-6.624 12.56h-2.637V4.24H38.8v1.711c.675-1.091 1.681-1.81 2.739-1.81.331 0 .649.062.713.074l.459.099v2.529l-.701-.112c-.038 0-.229-.037-.42-.037-1.108 0-2.064.856-2.484 2.232-.179.546-.268 1.178-.268 1.835l-.013 4.948h0zm76.849 0h-1.758c-1.235 0-1.885-.632-1.885-1.835V8.94c0-1.86-.408-2.455-1.682-2.455a3.41 3.41 0 0 0-3.261 2.467c-.101.335-.152.744-.152 1.24v5.518H104.3V4.265l.598-.025h2.039v1.376c.7-.794 1.872-1.612 3.592-1.612 2.789 0 4.152 1.5 4.152 4.575v4.749h1.007l-.013 2.38zm-54.901 0h-1.758c-1.235 0-1.885-.632-1.885-1.835V8.94c0-1.86-.408-2.455-1.681-2.455a3.41 3.41 0 0 0-3.261 2.467c-.102.335-.153.744-.153 1.24v5.518h-2.637V4.265l.599-.025h2.038v1.376c.701-.794 1.873-1.612 3.592-1.612 2.79 0 4.153 1.5 4.153 4.575v4.749h1.006v2.381h-.012 0zm5.999-9.262c-1.707 0-2.649 1.178-2.649 3.323 0 2.108 1.108 3.459 2.841 3.459 1.694 0 2.548-1.153 2.548-3.435-.013-2.318-.854-3.348-2.739-3.348h0zM66.429 20a8.53 8.53 0 0 1-3.72-.88l-.51-.248 1.057-2.257.573.31c.013 0 1.197.645 2.56.645 1.987 0 3.096-.942 3.096-2.641v-.074c-.726.533-1.643.806-2.739.806-3.121 0-5.312-2.406-5.312-5.865 0-3.509 2.038-5.778 5.184-5.778 1.388 0 2.306.459 2.955 1.079v-.856h2.561l-.013 10.651C72.123 18.661 69.181 20 66.429 20h0zm55.309-4.216c-1.286 0-4.28-.434-4.28-4.414V6.584h-1.388V4.253h1.401v-1.91l2.624-1.475v3.385h2.649v2.344h-2.649v4.65c0 1.414.599 2.133 1.77 2.133.179 0 .293-.025.332-.025l.751-.161v2.467l-.51.087a6.16 6.16 0 0 1-.7.037h0zM91.613 6.447c-1.974 0-3.516 1.525-3.516 3.484 0 2.021 1.541 3.608 3.516 3.608 1.962 0 3.49-1.587 3.49-3.608a3.45 3.45 0 0 0-3.49-3.484zm0 9.51c-3.478 0-6.191-2.654-6.191-6.026 0-3.323 2.713-5.927 6.178-5.927 3.478 0 6.191 2.604 6.191 5.927-.013 3.373-2.726 6.026-6.178 6.026h0zM77.397 7.625h2.611c1.643 0 2.624-.955 2.624-2.542 0-1.55-.968-2.48-2.611-2.48h-2.624v5.022zm0 8.084h-2.688V.161h5.477c3.044 0 5.159 2.021 5.159 4.923 0 2.938-2.127 4.984-5.159 4.984h-2.802l.013 5.642zm-46.583-5.344c-3.274 0-4.739.583-4.739 1.885 0 .731.701 1.463 2.012 1.463 1.758 0 2.688-1.252 2.688-3.373l.038.025h0zm-2.981 5.592c-2.089 0-4.191-1.253-4.191-3.633 0-4.129 5.274-4.141 7.044-4.141-.089-1.215-.701-1.748-2.013-1.748-1.49 0-2.598.843-2.598.856l-.535.422-1.299-2.058.382-.322c.064-.05 1.592-1.314 4.152-1.314 2.892 0 4.547 1.649 4.547 4.538v4.786h1.249v2.381h-1.949c-1.032 0-1.503-.483-1.707-1.129-.662.694-1.643 1.364-3.083 1.364h0zm99.663-2.48c-.089-.049-.242-.074-.433-.074h-.306v.719h.331c.153 0 .268-.012.344-.05a.31.31 0 0 0 .217-.31c-.013-.136-.064-.236-.153-.285h0zm-.382-.31c.254 0 .445.025.56.074.217.087.319.261.319.508 0 .174-.064.31-.204.397-.076.05-.166.074-.293.099.165.025.28.087.356.198s.115.211.115.31v.298c0 .049.013.087.013.099l.013.025h-.344v-.05l-.013-.062v-.161c0-.235-.064-.384-.191-.459-.077-.037-.204-.062-.408-.062h-.28v.781h-.357v-1.997h.714 0 0zm-1.109-.099c-.305.31-.471.67-.471 1.104s.153.806.471 1.116a1.53 1.53 0 0 0 1.134.459 1.53 1.53 0 0 0 1.134-.459c.306-.31.471-.682.471-1.116a1.45 1.45 0 0 0-.471-1.104 1.55 1.55 0 0 0-1.134-.459 1.57 1.57 0 0 0-1.134.459zm2.459 2.393a1.81 1.81 0 0 1-1.325.533 1.81 1.81 0 0 1-1.324-.533c-.357-.36-.548-.781-.548-1.29a1.69 1.69 0 0 1 .548-1.277 1.83 1.83 0 0 1 1.312-.533 1.81 1.81 0 0 1 1.324.533 1.69 1.69 0 0 1 .548 1.277c.013.496-.166.93-.535 1.29" fill="#fff"/></svg>