<svg xmlns="http://www.w3.org/2000/svg" width="41" height="82" fill="none" xmlns:v="https://vecta.io/nano"><g clip-path="url(#A)"><path d="M32.659 50.93c0 15.877-6.678 19.885-20.21 26.632 1.739 1.167 4.082 2.562 8.064 4.464 10.433-4.971 20.513-11.49 20.513-28.864v-36.65h-8.366V50.93zm-7.938-34.418H0v7.279h16.38V47.1c0 10.653-.63 11.642-14.389 17.881.958 2.435 2.344 4.819 4.158 6.975 15.548-6.975 18.572-10.577 18.572-22.65V16.512zM3.251.025v6.468c0 1.649-.958 2.765-2.974 2.765H0v-1.37h.252c.932 0 1.462-.482 1.462-1.446V1.37H.302V.025h2.948zm2.772 7.913h1.411V.025h1.512v7.787c0 .964-.504 1.471-1.512 1.471H6.023c-1.008 0-1.512-.507-1.512-1.471V.025h1.512v7.913zm7.132-2.283V.025h1.512v5.681c0 2.562-1.336 3.526-3.73 3.526h-.756V.025h1.512v7.71h.076c1.008 0 1.386-.938 1.386-2.08zm4.284-4.236v2.46h1.764L18.95 5.2h-1.487v2.638h2.192l-.252 1.395h-3.503V.025h3.377l.252 1.395h-2.092zM23.562.025h1.462v9.207h-1.462V6.087l-1.436-3.196h-.076v6.341h-1.462V.025h1.436L23.461 3.5h.101V.025zM30.29 1.42h-1.462v7.812h-1.512V1.42h-1.462l.252-1.395h3.931l.252 1.395zm2.318 6.518h1.411V.025h1.512v7.761c0 .964-.504 1.471-1.512 1.471h-1.411c-1.008 0-1.512-.507-1.512-1.471V.025h1.512v7.913zm4.057-1.75h1.487v1.826h1.386V6.721c0-.634-.151-.913-.63-1.192l-1.436-.913c-.529-.355-.781-.964-.781-1.446V1.471c0-.964.63-1.471 1.411-1.471h1.411c1.008 0 1.411.507 1.411 1.471v1.141l-1.462.406V1.192h-1.31v1.395c0 .457.151.761.58 1.04l1.386.862c.58.355.882.913.882 1.649v1.775c0 .989-.63 1.37-1.436 1.37h-1.386c-1.008 0-1.512-.406-1.512-1.37V6.189z" fill="#fff"/></g><defs><clipPath id="A"><path fill="#fff" d="M0 0h41v82H0z"/></clipPath></defs></svg>