<svg xmlns="http://www.w3.org/2000/svg" width="77" height="23" fill="#fff" fill-rule="evenodd" xmlns:v="https://vecta.io/nano"><path d="M74.747 7.723a9.14 9.14 0 0 0-.662-2.727c.595-1.27 1.207-1.74 1.207-1.74s1.258 3.297.154 6.685c-.683 2.096-1.499 3.362-1.937 3.906-.098.121-.184.159-.131.085 1.031-1.424 1.599-3.689 1.369-6.211zm.999 3.996c-.509.629-1.024 1.239-1.593 1.705-.082.067-.133.062-.071-.008 2.013-2.25 4.199-7.237 1.366-12.151 0 0-1.12.792-2.04 2.435-.907-1.43-2.227-2.629-3.87-3.7 0 0-4.157 4.745-2.318 11.618-5.303.749-3.377 4.942-2.537 5.545.039.028.072.014.018-.071-.298-.468-1.131-2.106.586-3.676.921-.842 2.853-1.062 2.853-1.062-.439-3.3-.408-6.282 1.794-9.582.281.191 3.502 1.641 3.623 6.523.269 3.062-1.283 5.513-2.789 6.467-2.67 1.466-5.666 2.186-8.27 2.812-.221.053-.135.078.012.071 6.187-.267 11.688-3.117 13.803-5.836.407-.523.59-1.099.315-1.417s-.771.19-.882.328zm-22.351 2.016c.155-1.018.595-1.504 2.444-1.504 1.972 0 2.437.528 2.535 1.504h-4.978zm2.444-3.045c-1.285 0-4.294 0-4.294 4.055s3.009 4.057 4.294 4.057h3.981V17.26h-3.981c-2.022 0-2.446-.521-2.535-1.983h6.909v-.531c0-4.055-2.954-4.055-4.375-4.055zm-12.308 3.045c.156-1.018.596-1.504 2.444-1.504 1.971 0 2.437.528 2.534 1.504h-4.978zm2.444-3.045c-1.285 0-4.294 0-4.294 4.055s3.009 4.057 4.294 4.057h3.98V17.26h-3.98c-2.022 0-2.446-.521-2.535-1.983h6.91v-.531c0-4.055-2.955-4.055-4.375-4.055zm-9.939 6.57c-2.676 0-2.785-.521-2.785-2.514 0-1.952.119-2.514 2.785-2.514s2.787.562 2.787 2.514-.119 2.514-2.787 2.514zm0-6.57c-2.39 0-4.536.31-4.536 4.056v8.087h1.75v-4.457c.836.393 1.872.427 2.785.427 2.392 0 4.538-.31 4.538-4.056s-2.146-4.056-4.538-4.056zm-12.551 3.045c.155-1.018.596-1.504 2.444-1.504 1.971 0 2.437.528 2.535 1.504h-4.979zm2.444-3.045c-1.285 0-4.293 0-4.293 4.055s3.008 4.057 4.293 4.057h3.981V17.26h-3.981c-2.022 0-2.445-.521-2.535-1.983h6.91v-.531c0-4.055-2.956-4.055-4.375-4.055zm-12.308 3.045c.156-1.018.596-1.504 2.445-1.504 1.971 0 2.437.528 2.534 1.504h-4.979zm2.445-3.045c-1.285 0-4.294 0-4.294 4.055s3.009 4.057 4.294 4.057h3.98V17.26h-3.98c-2.022 0-2.445-.521-2.535-1.983h6.91v-.531c0-4.055-2.955-4.055-4.375-4.055zm-4.415-4.211L6.8 16.517 1.967 6.531l-.027-.052H0l5.988 12.093.027.049h1.57l6.007-12.142H11.65z"/></svg>