<svg xmlns="http://www.w3.org/2000/svg" width="106" height="41" fill="none" xmlns:v="https://vecta.io/nano"><g clip-path="url(#A)" fill-rule="evenodd" fill="#fff"><path d="M35.989 8.187l-7.817 4.276A38.01 38.01 0 0 0 32.233 7.3c-3.28.178-8.032.576-11.439 1.343 2.965-1.602 8.827-3.4 11.921-3.82C31.997 3.818 26.194.605 24.746 0c4.593.362 10.212 2.097 12.929 3.806 1.098-.336 2.195-.364 4.179-.54-.505.889-.513 1.406-2.476 2.719.545 1.475-.749 9.595-1.813 11.756-.046-3.401-.344-7.697-1.578-9.554l.001-.001zM12.076 37.314a12.84 12.84 0 0 1-4.725-2.95c.441-1.235 1.042-2.403 1.789-3.474-1.537.223-2.648.393-3.967.657-1.078-1.915-1.552-3.749-2.102-6.301-.297 2.702-.405 4.636-.023 6.795a19.18 19.18 0 0 0-3.051 1.09 34.14 34.14 0 0 0 4.073 2.28c.729 1.677 1.778 3.19 3.089 4.452a8.57 8.57 0 0 1-.29-3.39c1.691.519 3.442.802 5.207.842h.001zm4.885-27.012a10.75 10.75 0 0 0-1.447 2.884 24.12 24.12 0 0 1 8.722 3.2c-4.249-.762-6.467-.669-8.043-.524-1.575.158-1.892.351-1.892.351-1.139 2.521-1.817 6.909-1.817 6.909-.772-1.886-1.888-5.669-1.888-5.675-2.133 1.168-7.035 5.866-7.038 5.868 2.695-5.506 5.428-8.027 5.431-8.027-.942-.958-3.408-1.439-5.209-1.522.939-.393 3.345-.853 5.192-.932.987-.042 1.977-.023 2.962.056 1.657-1.33 4.155-2.449 5.031-2.588l-.003.002zm5.124 23.605c-.859 1.172-1.585 2.105-2.536 3.185a16.18 16.18 0 0 1-4.507.628 10.56 10.56 0 0 0 2.925 1.031A19.48 19.48 0 0 1 15.109 41c1.651-.406 3.837-1.123 5.451-2.085.739.027 1.479-.018 2.209-.135-.14-.513-.245-.88-.367-1.537 1.382-1.099 2.683-2.299 3.895-3.591a26.42 26.42 0 0 1-4.058 2.427c-.073-.722-.124-1.447-.154-2.173h0zm-2.138-10.681c.065.719.11 2.512.11 3.17l-.121 3.499-.014.071h3.883c1.897 0 3.921-.492 3.921-1.867 0-.864-.765-1.503-2.203-1.854 1.055-.228 1.774-.824 1.774-1.511 0-1.12-1.589-1.55-3.073-1.575l-4.283-.005.006.072zm2.998.692c1.621.006 2.223.278 2.223.998a.69.69 0 0 1-.055.276.68.68 0 0 1-.16.229c-.311.301-.93.455-1.696.426h-.038l-.445.958h.454c.893-.026 1.669.206 2.066.601a.85.85 0 0 1 .276.615c0 .759-.814 1.146-2.41 1.146-.272 0-.703 0-.981-.015l-.061-2.755.064-2.434c.254-.032.51-.047.766-.044h-.005zm13.732-.763h-1.88l.08 1.715.138 2.568a5.36 5.36 0 0 0-.798-1.077c-.018-.025-1.975-2.488-2.655-3.185l-.02-.022h-2.196v.068c.065.718.111 2.512.111 3.174l-.121 3.498-.008.069h1.949l-.004-.064-.114-4.963v-.004a2.24 2.24 0 0 0 .465.743l3.571 4.289h1.568l-.008-.069c-.118-.875-.125-2.897-.125-3.498l.11-3.174.009-.068h-.071zm2.27.066c.062.722.11 2.514.11 3.175l-.125 3.496-.007.07h2.324l-.007-.07c-.083-.623-.111-1.82-.121-2.741l.427.018.325.012c3.065 0 4.554-.671 4.554-2.052 0-1.575-2.09-1.94-3.836-1.974h-3.649l.005.066zm2.847.755c1.088-.017 1.856.166 2.224.537a.84.84 0 0 1 .187.282.85.85 0 0 1 .061.335c0 .987-1.354 1.192-2.488 1.192l-.459-.011-.185-.021-.011-.861.028-1.409.644-.043-.001-.001zm9.074-.755c.068.722.112 2.514.112 3.175l-.121 3.496-.01.07h2.325l-.011-.07c-.079-.623-.109-1.82-.118-2.741l.424.018.329.012c3.064 0 4.554-.671 4.554-2.052 0-1.575-2.086-1.94-3.837-1.974h-3.648l.004.067-.002-.001zm2.851.755c1.088-.017 1.854.166 2.221.537.082.079.146.175.19.282a.84.84 0 0 1 .063.335c0 .987-1.356 1.192-2.492 1.192l-.458-.011-.184-.021-.011-.862.029-1.409c.141-.018.394-.036.645-.043h-.001zm7.749-.817h-.037l-.017.038c-.433.966-3.215 5.918-3.648 6.674l-.053.096h1.994l.013-.042.66-1.558 1.65-.02 1.357.013.296.006.743 1.562.014.039h2.308l-3.72-6.808h-1.56.002zm.565 2.005l1.2 2.306-.178.006-1.023.011-1.223-.019 1.223-2.304h0zm5.635-1.943l.113 3.174-.127 3.496-.008.071h2.324l-.007-.069c-.118-.877-.125-2.897-.125-3.498l.064-2.375.632-.038c1.085-.019 1.853.166 2.218.535a.83.83 0 0 1 .256.614c0 .787-.909 1.183-1.751 1.221-.166.007-.331 0-.496-.02l-.159-.022.104.123c.813.981 2.053 2.693 2.572 3.508l.021.028h2.49l-.074-.104-2.41-2.891-.042-.052c1.264-.313 1.887-.898 1.887-1.792 0-1.573-2.09-1.94-3.839-1.97l-3.648-.005.007.067v-.002zm11.426-.07h-2.23l.008.068c.064.72.108 2.515.108 3.175l-.121 3.494-.008.072h2.325l-.012-.072c-.113-.873-.121-2.897-.121-3.494l.111-3.175.006-.068h-.066zm2.173.073c.064.718.112 2.511.112 3.17l-.121 3.499-.01.071h3.881c1.896 0 3.925-.492 3.925-1.867 0-.864-.77-1.503-2.208-1.854 1.055-.228 1.774-.823 1.774-1.511 0-1.12-1.587-1.55-3.073-1.575l-4.282-.005.003.072zm2.998.692c1.623.006 2.227.278 2.227.998 0 .095-.019.19-.057.277a.67.67 0 0 1-.163.228c-.305.301-.925.455-1.696.426h-.039l-.446.958h.454c.894-.026 1.666.206 2.066.601a.85.85 0 0 1 .276.615c0 .759-.808 1.146-2.407 1.146-.273 0-.706 0-.981-.015l-.059-2.755.067-2.434c.252-.032.505-.047.759-.044h.002zm10.57-.765H93.27l-.015.036c-.46 1.028-3.404 6.248-3.648 6.678l-.053.095h1.997l.014-.043.658-1.558 1.645-.022 1.359.017.299.005.74 1.561.017.04h2.307l-3.719-6.809h-.035l-.002.001zm-.96 2.005l1.201 2.303-.175.006-1.028.015-1.221-.02 1.223-2.303h0zm5.294-.239c0 1.196 1.478 1.681 2.784 2.111 1.013.332 2.057.681 2.057 1.249a.54.54 0 0 1-.037.229.53.53 0 0 1-.128.192c-.237.234-.737.333-1.522.303a8.53 8.53 0 0 1-2.615-.602l-.41-.154v1.488l.266.047.163.027a12.25 12.25 0 0 0 2.352.274c2.453 0 3.916-.79 3.916-2.111 0-1.226-1.511-1.719-2.844-2.15-.984-.321-2.002-.648-2.002-1.174 0-.15 0-.606 1.26-.606.807.033 1.604.194 2.362.48l.483.156-.007-.254v-1.238l-.475-.069c-.687-.123-1.384-.187-2.082-.199-2.103.003-3.52.808-3.52 2.005l-.002-.003z"/></g><defs><clipPath id="A"><path fill="#fff" d="M0 0h106v41H0z"/></clipPath></defs></svg>