<svg xmlns="http://www.w3.org/2000/svg" width="98" height="18" fill="none" xmlns:v="https://vecta.io/nano"><g clip-path="url(#A)"><path d="M69.704 14.788c.533 0 1.031-.096 1.492-.288a3.6 3.6 0 0 0 1.2-.817 3.81 3.81 0 0 0 .801-1.249c.194-.48.279-1.032.279-1.646V.132h2.57V10.8c0 .902-.157 1.742-.473 2.51a5.93 5.93 0 0 1-1.321 1.995 5.79 5.79 0 0 1-2.014 1.297c-.775.313-1.612.456-2.534.456-.909 0-1.758-.156-2.522-.456-.75-.297-1.434-.738-2.013-1.297a5.93 5.93 0 0 1-1.322-1.994 6.52 6.52 0 0 1-.473-2.51V.132h2.571v10.667c0 .613.098 1.153.279 1.646.194.481.449.902.801 1.249.343.347.751.625 1.2.817.449.18.946.276 1.479.276v.001zM45.584.132H58.39v2.391h-5.13v14.403H50.7V2.523h-5.117V.132h.001zM34.839 10.259H31.88v6.667h-2.559V.132h6.743c.704 0 1.37.132 1.989.396.607.251 1.159.618 1.625 1.08s.834 1.009 1.092 1.61a4.95 4.95 0 0 1 .412 1.971c0 .985-.194 1.777-.594 2.391s-.825 1.093-1.298 1.454c-.565.428-1.201.753-1.879.96l4.171 6.931h-2.826l-3.917-6.667h0zM31.88 7.869h4.184c.339 0 .667-.073.971-.217s.57-.336.8-.577.424-.516.57-.841.219-.673.219-1.045-.073-.721-.219-1.045-.339-.601-.57-.841-.5-.435-.8-.577-.635-.218-.971-.216H31.88v5.358zM0 .132h2.692l4.73 12.925L12.138.132h2.691L8.633 16.926H6.209L0 .132zm22.435 16.794h-2.559V.132h2.558v16.794h.001zm72.867-8.397c0-.902-.157-1.742-.473-2.51a6.78 6.78 0 0 0-1.236-1.995c-.488-.55-1.087-.992-1.758-1.297-.64-.303-1.341-.459-2.049-.457a4.93 4.93 0 0 0-2.049.457 5.6 5.6 0 0 0-1.758 1.297 6.91 6.91 0 0 0-1.249 1.982c-.316.769-.473 1.598-.473 2.511 0 .902.157 1.742.473 2.499.316.769.727 1.43 1.249 1.982.494.548 1.091.993 1.758 1.31a4.77 4.77 0 0 0 2.049.469 4.77 4.77 0 0 0 2.049-.469 5.46 5.46 0 0 0 1.758-1.309 6.88 6.88 0 0 0 1.237-1.982c.315-.745.473-1.586.473-2.486h-.001zm2.559 0c0 1.201-.218 2.33-.655 3.363a9 9 0 0 1-1.758 2.703 8.17 8.17 0 0 1-2.571 1.814 7.59 7.59 0 0 1-3.092.649 7.59 7.59 0 0 1-3.092-.649 7.85 7.85 0 0 1-2.571-1.814c-.74-.768-1.321-1.669-1.758-2.702s-.655-2.15-.655-3.364a8.61 8.61 0 0 1 .655-3.352 9.12 9.12 0 0 1 1.758-2.727c.729-.768 1.602-1.384 2.571-1.814A7.78 7.78 0 0 1 89.786 0a7.58 7.58 0 0 1 3.092.649c.965.43 1.835 1.046 2.559 1.814.74.768 1.321 1.681 1.758 2.727.449 1.033.667 2.15.667 3.339h-.001z" fill="#fff"/></g><defs><clipPath id="A"><path fill="#fff" d="M0 0h97.862v17.058H0z"/></clipPath></defs></svg>