<svg xmlns="http://www.w3.org/2000/svg" xmlns:xlink="http://www.w3.org/1999/xlink" width="95" height="49" fill="none" xmlns:v="https://vecta.io/nano"><style><![CDATA[.B{fill:#fff}.C{stroke:#fff}.D{stroke-miterlimit:3.8637}.E{stroke-width:.062}.F{fill-rule:evenodd}]]></style><mask id="A" maskUnits="userSpaceOnUse" x="0" y="0" width="95" height="49"><path d="M95 0H0v48.613h95V0z" class="B"/></mask><g mask="url(#A)" class="B"><use xlink:href="#H"/></g><mask id="B" maskUnits="userSpaceOnUse" x="0" y="0" width="95" height="49"><path d="M95 0H0v48.613h95V0z" class="B"/></mask><g mask="url(#B)" class="C D"><use xlink:href="#H" stroke-width=".031"/></g><use xlink:href="#I" class="B"/><mask id="C" maskUnits="userSpaceOnUse" x="0" y="0" width="95" height="49"><path d="M95 0H0v48.613h95V0z" class="B"/></mask><g mask="url(#C)" class="C D E"><use xlink:href="#I"/></g><path d="M57.814 25.867c0-.659-.535-1.194-1.192-1.194H35.929c-.658 0-1.192.535-1.192 1.194v21.485c0 .659.535 1.194 1.192 1.194h3.866c.661 0 1.196-.535 1.196-1.194V29.05a1.19 1.19 0 0 1 1.192-1.192c.658 0 1.192.535 1.192 1.192v18.303c0 .659.535 1.194 1.196 1.194h3.637c.657 0 1.192-.535 1.192-1.194V29.036c0-.659.535-1.192 1.196-1.192s1.192.533 1.192 1.192v18.346c0 .659.564 1.194 1.221 1.194h3.641c.657 0 1.192-.535 1.192-1.194l-.029-21.514z" class="B"/><mask id="D" maskUnits="userSpaceOnUse" x="0" y="0" width="95" height="49"><path d="M95 0H0v48.613h95V0z" class="B"/></mask><g mask="url(#D)" class="C D E"><path d="M57.814 25.867c0-.659-.535-1.194-1.192-1.194H35.929c-.658 0-1.192.535-1.192 1.194v21.485c0 .659.535 1.194 1.192 1.194h3.866c.661 0 1.196-.535 1.196-1.194V29.05c0-.658.535-1.192 1.192-1.192s1.192.535 1.192 1.192v18.303c0 .659.535 1.194 1.196 1.194h3.637c.657 0 1.192-.535 1.192-1.194V29.036c0-.659.535-1.192 1.196-1.192s1.192.533 1.192 1.192v18.346c0 .659.564 1.194 1.221 1.194h3.641c.657 0 1.192-.535 1.192-1.194l-.029-21.514z"/></g><use xlink:href="#J" class="B F"/><mask id="E" maskUnits="userSpaceOnUse" x="0" y="0" width="95" height="49"><path d="M95 0H0v48.613h95V0z" class="B"/></mask><g mask="url(#E)" class="C D E"><use xlink:href="#J"/></g><use xlink:href="#K" class="B F"/><mask id="F" maskUnits="userSpaceOnUse" x="0" y="0" width="95" height="49"><path d="M95 0H0v48.613h95V0z" class="B"/></mask><g mask="url(#F)" class="C D E"><use xlink:href="#K"/></g><defs ><path id="H" d="M48.38 5.574c.057.286 1.078 1.194 1.363 1.649s2.221-.096 2.956.455c0 0 1.6.841.339 2.102-.224.227-1.331-.357-3.58.284-.396.114-1.71-.02-1.874 1.309-.057.455-.29 2.558 1.535 2.558.396 0 1.535.283 1.135-1.251 0 0 .18-.764 2.16.229.228.112 3.099 1.815 5.797 1.363.343-.057 1.119-.157 2.502-1.194 0 0 4.878 6.628 11.084 5.742.4-.057 3.764-1.364 5.911 2.217.171.284 1.241 7.64 8.128 11.083.228.114-.282 3.613.91 5.401.229.341.853.751 1.821.17.282-.17-.249-1.035.853-2.501l-1.081-4.548s-3.372-1.594-2.898-4.433c.057-.341-.017-6.248-2.103-8.755-.286-.341 4.327-2.555 5.172-8.469.057-.398 1.919-3.215 5.74-6.083 0 0 2.564-2.866-1.988-2.217-.4.057-3.874 3.058-5.001 8.697-.057.284-2.18 7.173-7.904 5.742-.228-.057-4.025-.268-7.389-3.07-.338-.284-5.862-5.354-12.108-8.924-.396-.228-2.613-1.99-5.058-1.99-.339 0 .18-.621-.739-1.08-.453-.226-.171.398-.853.682s-.568-.341-.568-.341l-.51.91s-1.731.637-1.878 1.363c-.057.284.057.455-.396.853 0 0-1.535 1.761-1.478 2.045z"/><path id="I" d="M17.456 47.353c0 .659.535 1.194 1.192 1.194h12.733c.661 0 1.196-.535 1.196-1.194V25.867c0-.659-.535-1.194-1.196-1.194h-5.058v19.497c0 .659-.535 1.194-1.192 1.194s-1.196-.535-1.196-1.194V24.674h-5.287c-.657 0-1.192.535-1.192 1.194v21.486z"/><path id="J" d="M.061 25.867c0-.659.535-1.194 1.196-1.194h12.504a1.19 1.19 0 0 1 1.192 1.194v15.233a1.19 1.19 0 0 1-1.192 1.194H7.964c-.661 0-1.196.535-1.196 1.194v5.058H.061v-22.68zm9.095 12.619c0 .659-.535 1.194-1.192 1.194s-1.196-.535-1.196-1.194v-9.89c0-.659.535-1.194 1.196-1.194s1.192.535 1.192 1.194v9.89z"/><path id="K" d="M68.665 43.148l.004 4.205c0 .659.535 1.194 1.196 1.194h4.087a1.19 1.19 0 0 0 1.192-1.194V25.867a1.19 1.19 0 0 0-1.192-1.194H61.219c-.657 0-1.192.535-1.192 1.194v21.485c0 .659.535 1.194 1.192 1.194h3.87c.661 0 1.225-.535 1.225-1.194l.004-4.209c0-.659.535-1.192 1.196-1.192s1.192.533 1.192 1.192l-.041.004zm.041-4.635c0 .659-.535 1.194-1.192 1.194s-1.196-.535-1.196-1.194l-.041-9.463c0-.657.535-1.192 1.196-1.192s1.192.535 1.192 1.192l.041 9.463z"/></defs></svg>