<svg xmlns="http://www.w3.org/2000/svg" width="45" height="46" fill="none" xmlns:v="https://vecta.io/nano"><style><![CDATA[.B{fill-rule:evenodd}]]></style><g fill="#fff"><path d="M21.636.006l.644-.006h.354.227c.264-.002.528-.003.788.05l.506.03.67.035.244.041a2.48 2.48 0 0 0 .468.057 21.93 21.93 0 0 1 6.265 1.851c1.911.879 3.682 2.059 5.286 3.433 1.486 1.292 2.801 2.789 3.908 4.429 1.925 2.8 3.191 6.06 3.719 9.434.023.118.035.237.047.357.015.151.03.302.067.45.017.136.026.273.035.41.011.174.023.348.051.521.049.234.047.472.044.71l.001.307c.054.551.05 1.109.002 1.661-.004.116-.003.232-.002.348.002.25.005.501-.048.747l-.026.337c-.024.339-.049.677-.119 1.01-.002.168-.034.33-.065.493-.022.111-.044.223-.056.336-.512 2.938-1.597 5.769-3.167 8.286-.621 1.018-1.349 1.964-2.12 2.867-.148.188-.314.36-.479.532-.129.134-.257.268-.378.41-.127.147-.269.278-.41.41a7.31 7.31 0 0 0-.29.278c-.239.246-.5.467-.761.688l-.465.402c-3.189 2.629-7.101 4.339-11.165 4.872-.181.04-.367.052-.552.064s-.365.023-.544.062c-.203.033-.408.031-.613.028-.187-.002-.374-.005-.56.02a16.7 16.7 0 0 1-1.272.004c-.194-.026-.389-.025-.585-.024-.18.001-.36.002-.539-.019-.206-.045-.414-.06-.623-.075a7.28 7.28 0 0 1-.379-.034 4.69 4.69 0 0 0-.413-.063c-.176-.022-.352-.043-.523-.09-.468-.053-.926-.164-1.384-.274l-.423-.1c-2.012-.53-3.961-1.322-5.756-2.394-1.679-1.001-3.234-2.22-4.616-3.616a23.46 23.46 0 0 1-4.268-6.036C1.325 31.092.598 28.78.254 26.409c-.03-.142-.042-.287-.054-.432-.015-.177-.03-.354-.077-.526l-.028-.477-.038-.612c-.061-.313-.058-.632-.055-.95v-.363c.003-.133.001-.265 0-.398-.004-.341-.007-.682.059-1.018l.016-.249c.016-.253.032-.506.037-.759l.03-.181c.031-.181.061-.362.066-.547.484-3.642 1.839-7.166 3.924-10.165.695-.978 1.442-1.919 2.273-2.779.396-.409.807-.803 1.219-1.195.86-.745 1.743-1.47 2.699-2.084 2.169-1.44 4.589-2.481 7.109-3.079l.393-.082c.664-.14 1.329-.279 2.004-.334.222-.059.45-.068.677-.076.15-.006.301-.011.45-.031.122 0 .241-.016.361-.032a3.07 3.07 0 0 1 .32-.031h-.002zm1.416 1.659c-.309-.073-.633-.063-.947-.035h-.001c-.027.005-.053.01-.08.016-.051.011-.102.022-.153.025a24.77 24.77 0 0 0-1.482.059c-.163.054-.332.062-.502.07s-.345.016-.51.073c-.087.018-.176.029-.265.039-.137.016-.274.032-.405.077-.214.014-.421.065-.627.116l-.26.061c-3.988.902-7.688 3.067-10.484 6.103-.93.954-1.727 2.036-2.45 3.159-1.321 2.103-2.3 4.438-2.812 6.883-.145.668-.285 1.339-.333 2.023-.062.233-.071.472-.081.712-.006.146-.011.291-.029.436-.044.171-.047.347-.05.523l-.002.106c-.031.399-.026.8-.022 1.199l.003.257a4 4 0 0 1 .018.368c.004.192.007.383.053.57a4.99 4.99 0 0 1 .026.409c.007.21.015.419.063.624a2.5 2.5 0 0 1 .047.391c.01.146.02.292.058.433.22 1.482.606 2.94 1.138 4.339.315.887.739 1.726 1.162 2.562l.03.059c.724 1.303 1.546 2.556 2.522 3.677 2.762 3.266 6.514 5.66 10.617 6.71.264.069.531.125.798.181l.577.126c.136.01.27.038.403.066.17.036.34.072.516.069.254.063.514.078.775.093l.241.016c.514.097 1.038.095 1.56.093l.471.001.335-.001c.458.001.917.001 1.365-.091.091-.008.182-.012.273-.016.195-.008.391-.017.58-.069.097-.022.195-.029.294-.037.121-.009.243-.018.36-.054.099-.033.202-.044.305-.055a1.41 1.41 0 0 0 .321-.061 20.08 20.08 0 0 0 6.283-2.354c.902-.543 1.791-1.115 2.605-1.791.601-.491 1.198-.992 1.732-1.56l.181-.184a14.81 14.81 0 0 0 .883-.946c.254-.275.48-.573.707-.872l.306-.398c1.96-2.63 3.303-5.742 3.869-8.993.038-.109.047-.223.057-.337.009-.106.018-.211.049-.313.043-.135.05-.275.058-.416.005-.088.009-.176.022-.263.067-.259.072-.524.078-.79.004-.202.008-.404.039-.604.056-.244.051-.493.045-.742-.003-.121-.005-.243-.001-.363-.004-.125-.002-.25 0-.375.005-.277.01-.554-.054-.824-.015-.176-.021-.353-.026-.53-.007-.214-.014-.429-.037-.642a2.02 2.02 0 0 1-.07-.475c-.008-.114-.015-.229-.037-.341-.045-.146-.058-.297-.07-.448l-.014-.15c-.048-.201-.088-.404-.127-.607l-.123-.589c-.432-1.892-1.136-3.717-2.047-5.421-.412-.73-.853-1.443-1.33-2.13a21.55 21.55 0 0 0-5.656-5.494c-.159-.095-.317-.194-.474-.293a12.38 12.38 0 0 0-.917-.541c-1.925-1.058-4.008-1.824-6.163-2.206-.134-.052-.274-.063-.415-.074-.134-.011-.269-.021-.397-.067-.116-.023-.234-.03-.352-.038-.163-.01-.326-.021-.483-.071-.334-.03-.669-.039-1.005-.049l-.535-.018z" class="B"/><path d="M21.332 3.921h-.002l.002-.002v.002z"/><path d="M21.332 3.921v1.87l-.005 3.405.447-.009.648-.026.005-.911.001-.659.366-.001.914.003.107.174.993 1.582c.146.074.306.106.465.137l.305.072.109.028.492.108-.751-1.253-.55-.9a2.09 2.09 0 0 1 .319-.189c.14-.072.28-.144.396-.254.349-.282.56-.706.645-1.144a1.72 1.72 0 0 0-.492-1.407 2.01 2.01 0 0 0-1.273-.638h-1.194c-.649-.002-1.297-.003-1.946.009zm2.15.966c-.347.001-.695.002-1.041-.006l-.014 1.113v.565l.938.002.899.002.108-.001c.136.001.277.002.384-.095.354-.22.488-.716.318-1.096-.146-.284-.454-.452-.759-.48l-.832-.002z" class="B"/><path d="M27.12 10.002l1.966-4.857c.363.056.686.246 1.022.384-.106.46-.339.874-.493 1.318l-1.467 3.581c-.36-.09-.705-.244-1.028-.427z"/><path d="M15.962 5.08l-.331.133-.003.155-.041 1.164c-.067.302-.07.612-.073.921s-.006.624-.074.929c-.02.217-.024.435-.027.653-.006.345-.012.69-.082 1.028l-.014.394-.023.762.443-.251.657-.378a7.51 7.51 0 0 0 .025-.706l.022-.668c.666-.302 1.357-.534 2.052-.753.056-.01.133-.021.174.032l.274.331c.179.222.358.444.568.637.094.024.185-.001.276-.025.053-.014.107-.029.16-.033.165-.015.325-.053.485-.091l.298-.065c-.165-.226-.352-.433-.539-.639l-.072-.079-1.119-1.26L16.8 4.827c-.294.024-.567.139-.839.253zm.574 1.568v.142l-.008.242-.014 1.06.027.036.027.037.359-.139c.335-.132.67-.264 1.021-.344l-.778-.922-.076-.093c-.163-.199-.326-.399-.532-.553-.025.177-.025.356-.025.535z" class="B"/><path d="M32.193 7.485a1.07 1.07 0 0 1 .71-.03c.765.156 1.427.627 1.974 1.178.427.451.786.98 1.002 1.571l-.78.564c-.145-.428-.388-.813-.676-1.155-.324-.401-.722-.746-1.181-.973-.198-.118-.442-.115-.662-.08-.162.105-.154.326-.11.493.204.385.537.672.826.987.463.529.932 1.099 1.109 1.801.028.246.029.498-.003.743-.146.404-.461.772-.885.869-.444.153-.918.012-1.333-.167-.9-.441-1.604-1.211-2.128-2.064-.142-.238-.249-.495-.385-.737.27-.193.496-.476.81-.59.218.365.399.755.653 1.099.375.499.797.984 1.347 1.286.201.127.454.101.678.072.149-.135.255-.342.175-.545-.197-.557-.672-.933-1.035-1.374-.463-.449-.902-.993-.978-1.663a1.22 1.22 0 0 1 .874-1.284h-.002z"/><path d="M12.254 7.176c-.276-.008-.563-.014-.823.098l.001.001c-.357.111-.611.385-.861.654l-.225.235-1.007 1.142-.467.523-.078.085c-.075.08-.151.161-.197.261-.008.105.069.165.145.224.034.027.069.053.095.084l1.31 1.222 1.27 1.184.387.354.547.484c.096-.124.207-.235.318-.346.145-.145.289-.289.4-.463l-.506-.483-.581-.56.002-.043.002-.043.498-.562.534-.599.16-.18c.214-.237.431-.477.539-.786a1.86 1.86 0 0 0-.031-1.509c-.251-.557-.817-.984-1.429-.98zm-.36 1.056c-.205-.012-.368.134-.508.268l-1.102 1.222-.211.241c-.081.086.008.17.084.241l.062.064c.136.111.264.233.391.356.197.19.394.379.625.526l.386-.427.612-.689.009-.009c.223-.223.455-.455.563-.761.099-.345-.086-.7-.349-.91-.127-.125-.31-.123-.479-.121l-.084.001z" class="B"/><path d="M9.828 33.174c-.056-.337.321-.541.605-.49.452.147.808.52 1.004.954.055.107.03.234.038.351l-.191.012c-.176-.335-.384-.666-.693-.889-.1-.082-.233-.052-.35-.051-.002.149-.049.325.062.448.194.264.395.53.514.84.09.241.048.576-.207.691-.244.069-.53.06-.738-.103-.346-.271-.591-.653-.76-1.059-.015-.08-.027-.18.026-.246.073-.042.152-.069.229-.099.04.315.23.576.402.83.155.21.389.434.668.354.032-.118.102-.246.046-.368-.188-.407-.589-.707-.655-1.172l.001-.002zm24.37-.253c-.006-.158.215-.267.315-.137l1.21 1.121c.107.068.04.203.032.303a1.28 1.28 0 0 1-.341.017c-.345-.032-.693.003-1.037-.044-.175-.057-.359-.048-.541-.046l1.056.974c-.073.069-.128.189-.244.178-.081-.022-.141-.086-.204-.139l-1.015-.932c-.065-.068-.146-.125-.188-.211.01-.112.109-.237.228-.221l1.129.037c.203-.002.396.077.6.071-.314-.346-.706-.609-1-.973zm-1.756 1.856l.166-.261a3.06 3.06 0 0 1 .371.364l.861.944c.067.075.086.178.121.271l-.239.09-1.281-1.409h.001z"/><path d="M12.595 34.804c-.113-.012-.221.038-.32.089l-.49.242-.372.18-.251.119c-.178.081-.356.162-.513.283l.153.142.076.071c.102-.035.2-.083.297-.131.115-.056.231-.113.354-.149.208.146.411.306.58.5.026.151-.02.291-.066.431-.037.112-.074.225-.074.344l.149.077.152.078.011-.063.05-.239.308-1.069.209-.733-.055-.045c-.061-.051-.123-.102-.198-.128zm-.448.527l-.23.082c.08.167.215.293.347.416l.005.005c.019-.15.063-.293.107-.437l.048-.162-.278.096z" class="B"/><path d="M13.886 35.792l.263.18-1.065 1.661-.281-.07c.018-.128.077-.243.15-.347l.933-1.424-.001-.001z"/><path d="M31.209 35.644l.002.103.016.283.016.077.319 1.686.266-.011c.014-.263.016-.531-.078-.78l.06-.05c.189-.158.381-.319.602-.424.107.01.198.072.288.135.11.075.219.151.358.133.075.001.114-.059.152-.117a.49.49 0 0 1 .051-.069l-.845-.522-.717-.438c-.144-.112-.336-.074-.49-.006zm.83.612l-.424-.232c-.001.18.01.36.051.536l.157-.068.199-.084.016-.152z" class="B"/><path d="M14.221 37.314c.172-.309.31-.638.512-.929l.22.113c.101.205.131.433.154.659.083.366.108.744.239 1.1l.6-1.177.152.003.157.146-.89 1.713-.214-.041a.8.8 0 0 1-.134-.342c-.059-.503-.175-.996-.267-1.494-.244.382-.431.797-.642 1.199l-.273-.06c.044-.326.242-.6.386-.889v-.001zm15.654-.74l.258-.167c.19.24.314.524.458.794l.513.985c-.1.04-.188.105-.288.147l-.612-1.165c-.052.449-.005.903-.055 1.354-.335-.23-.656-.488-1.022-.664.102.304.258.586.394.875.043.087.033.19.015.283-.079.033-.162.055-.244.078-.082-.288-.241-.543-.365-.813l-.465-.971c.062-.043.123-.089.19-.123.124-.039.226.056.325.116l.868.614c.048-.445.024-.895.029-1.343v-.001zm-13.244 1.098l.143-.285c.15.086.316.135.477.193l1.045.36-.017.307c-.24-.005-.457-.116-.686-.171-.21.502-.335 1.037-.553 1.536l-.308-.024.552-1.649c-.227-.061-.456-.135-.654-.267z"/><path d="M26.21 38.086c.017.221.083.43.148.64l.101.354c.027.112.063.223.098.333.063.197.126.394.142.602.126.001.244-.041.348-.113a3.01 3.01 0 0 0-.077-.27c-.056-.176-.113-.352-.104-.54.09-.006.176-.035.262-.063.118-.039.236-.079.361-.059.105.087.192.192.279.297.105.127.21.253.346.347l.26-.16-.28-.33-.247-.291a.72.72 0 0 0 .04-.992c-.163-.181-.431-.159-.643-.099-.142.054-.288.095-.433.136-.204.058-.408.116-.601.207zm.691.117l-.28.093h-.001l.068.473c.181.008.35-.048.519-.105l.202-.063c.026-.011.054-.02.082-.029.078-.025.159-.05.204-.123.077-.098.034-.21-.006-.317l-.037-.114c-.259.015-.505.1-.751.184z" class="B"/><path d="M24.825 38.341c.267.001.518-.131.788-.097l-.005.342-.729.075-.592.118c.044.133.078.27.112.406l.65-.019v.255c-.156.131-.384.033-.561.123-.016.172.003.345.008.518.252-.017.509-.014.754-.085.192-.05.392-.053.589-.055l.021.3c-.131.014-.263.026-.389.064-.233.078-.487.029-.72.11-.18.059-.372.043-.558.038.018-.277-.043-.545-.097-.814.001-.395-.154-.771-.119-1.168.29.014.56-.11.847-.113v.001zm-3.24.735c.164-.367.557-.594.948-.581.322-.016.678.101.852.394-.053.073-.117.138-.18.204-.182-.134-.381-.293-.619-.272-.157.024-.334.017-.463.126-.237.184-.398.505-.296.808.123.274.393.515.703.499.156-.009.349.016.464-.116.099-.079.069-.224.091-.334l-.527-.009-.019-.362h.896c.036.295.068.625-.111.883-.218.23-.544.276-.843.26-.452.013-.895-.346-.977-.801.003-.233-.046-.489.081-.699zm-2.275.027c.246-.002.481.078.72.131l-.012.294c-.246.013-.491-.04-.717-.136l.009-.289z"/><path d="M21.685 10.478c.268-.024.537-.021.807-.019h.45c.22-.01.437.022.653.055.19.029.38.057.572.057a12.62 12.62 0 0 1 3.639 1.117c.877.434 1.706.97 2.465 1.596.179.144.346.303.513.462l.403.371.172.189c.401.441.804.884 1.132 1.388a12.68 12.68 0 0 1 2.235 5.742 4.32 4.32 0 0 0 .05.466c.027.19.055.38.051.573v.52l-.003.833-.048.389-.054.546c-.167 1.171-.472 2.327-.952 3.408-.517 1.199-1.207 2.327-2.076 3.294l-.505.521-.356.366c-1.462 1.392-3.271 2.393-5.202 2.915-.471.123-.95.208-1.428.293l-.09.016c-.214.005-.425.033-.637.061l-.48.053-.458.003a18.22 18.22 0 0 0-.362.001c-.215.004-.428-.025-.64-.055s-.42-.058-.633-.054c-.96-.144-1.91-.373-2.819-.726-2.967-1.163-5.465-3.528-6.789-6.482-.45-.944-.744-1.96-.942-2.988a2.74 2.74 0 0 0-.056-.343c-.03-.145-.06-.29-.059-.44a2.51 2.51 0 0 0-.048-.411c-.027-.156-.053-.311-.046-.47l-.002-.403.011-1.158c.052-.258.091-.518.095-.781l.279-1.419a12.68 12.68 0 0 1 2.35-4.798c.241-.335.531-.626.82-.917l.159-.161c.577-.619 1.243-1.146 1.947-1.608 1.449-.969 3.11-1.61 4.823-1.87l.552-.068.509-.062v.001zm-.245.954c.277-.047.558-.045.838-.043l.256.001.233-.001c.254-.002.508-.005.76.035l.022.822c.021.165.022.332.023.498.001.218.003.436.048.65l.162 1.402.028.235c.218 1.297.495 2.586.903 3.835l1.27 3.116.148.289.257.54-2.335.012h-1.417c-.51-.003-1.02-.001-1.53 0a120.47 120.47 0 0 1-2.572-.012c.34-.563.612-1.164.884-1.763l.072-.158.115-.268.262-.684c.065-.225.148-.443.232-.662l.254-.742c.368-1.189.627-2.409.819-3.639.007-.165.034-.328.061-.491.032-.194.064-.388.063-.585l.006-.039c.053-.37.106-.74.088-1.115l.048-1.23.001-.001zm4.851 11.898l-.195.001.001.001-4.452-.003c-1.027 0-2.055 0-3.083 0l-.076.002c-.075.001-.15.002-.22.028-.141.154-.247.335-.352.517l-.208.336-.21.308-.639.894-1.748 2.055-.256.259-.001.001-1.368 1.299-.168.143c-.12.098-.24.195-.33.323-.006.064.007.124.037.18.711 1.092 1.628 2.037 2.656 2.82l.064.049c.187.144.377.289.598.373l.001-.609.004-.745c.062-.499.166-.994.364-1.456.298-.835.843-1.548 1.443-2.18.139-.153.305-.273.471-.393l.267-.202c.433-.354.955-.562 1.47-.759a4.76 4.76 0 0 1 1.243-.288c.55-.106 1.121-.124 1.672-.015 1.807.215 3.549 1.241 4.508 2.84.428.66.662 1.428.815 2.198.027.331.023.663.019.995v.608c.382-.166.703-.436 1.022-.703l.268-.222c.82-.65 1.497-1.469 2.082-2.341.067-.082.046-.202-.045-.254-.701-.58-1.38-1.191-1.998-1.864-.48-.466-.915-.978-1.326-1.506-.23-.252-.427-.531-.625-.809l-.264-.366c-.23-.308-.435-.633-.64-.958l-.283-.443c-.011-.011-.02-.025-.029-.039-.02-.03-.04-.062-.077-.064-.137-.018-.276-.015-.414-.013zm-3.908 5.119c.136-.096.275.054.338.172.263.491.488 1.017.546 1.579.02.253-.096.485-.207.705l-.038.076c-.089.163-.161.334-.233.505l-.235.508c-.21-.088-.286-.303-.357-.505l-.024-.068c-.049-.133-.118-.258-.187-.382-.093-.168-.187-.336-.23-.526-.041-.328-.02-.668.107-.975l.112-.303c.099-.284.199-.57.409-.786zm-1.732 2.262c-.267-.002-.596.035-.738.302-.218.321-.207.791.076 1.068.214.165.498.299.77.216.135-.038.186-.176.231-.298l.011-.03-.33-.207.005-.374.07-.015c.141-.031.291-.065.422.015.315.176.616.421.761.766l.19.012-.017-.044-.022-.058c-.133-.35-.272-.715-.557-.965-.24-.218-.541-.402-.873-.387zm2.857.371c.128-.118.256-.236.416-.304.282-.075.608-.108.87.048.231.17.404.465.354.763-.036.191-.082.402-.235.533-.193.18-.487.261-.734.161-.127-.049-.18-.181-.218-.303l.08-.057c.135-.093.29-.201.249-.383-.051-.228-.335-.246-.507-.154-.134.071-.251.169-.368.266-.111.093-.223.186-.35.256-.018-.263.089-.527.292-.693l.152-.134zm-.966 1.406c-.174.103-.322.26-.389.456-.055.221.117.416.292.518.156-.015.259-.172.343-.299l.014-.022c.069-.2-.054-.367-.169-.524l-.091-.13zm-2.15-20.434c.142-.043.293-.05.441-.053l-.028.24c-.021.167-.043.333-.036.503s-.021.337-.05.504c-.024.141-.049.281-.051.425-.002.124-.027.245-.052.366s-.05.244-.052.369c-.003.118-.029.232-.054.347l-.036.173c-.025.25-.079.495-.133.739l-.101.498c-.43 1.91-1.075 3.774-1.968 5.51-.456.871-.97 1.71-1.543 2.506-.473.684-1.018 1.311-1.563 1.934-.599.671-1.263 1.275-1.93 1.872l-.381.309-.628.517c-.464-.973-.817-2.002-1.017-3.065-.028-.125-.043-.253-.058-.38l-.058-.38c-.046-.194-.045-.392-.045-.591a2.98 2.98 0 0 0-.027-.504 3.9 3.9 0 0 1-.009-.658c.033-.178.035-.36.038-.54.003-.219.006-.438.063-.652.161-1.264.53-2.502 1.083-3.646 1.084-2.271 2.927-4.14 5.124-5.294.797-.389 1.623-.729 2.489-.918.097-.036.199-.052.3-.069.095-.016.19-.031.282-.062h.001zm4.256.021c-.172-.042-.344-.084-.525-.069h-.001c.037.171.043.344.05.518.007.187.014.373.058.556.033.142.039.288.045.433.007.168.014.336.062.499.299 2.199.869 4.369 1.757 6.4.815 1.865 1.896 3.612 3.216 5.148l.884.958.282.292c.572.597 1.199 1.135 1.835 1.659.142.104.281.212.409.335.222-.404.394-.834.546-1.268.234-.689.428-1.395.529-2.117.004-.115.028-.227.051-.338.026-.127.053-.254.051-.385l.003-.264-.01-2.133-.063-.405-.13-.734a11.63 11.63 0 0 0-1.907-4.416c-.733-1.051-1.648-1.963-2.669-2.721-1.236-.895-2.647-1.543-4.125-1.882-.117-.011-.231-.039-.345-.067z" class="B"/></g></svg>