<svg xmlns="http://www.w3.org/2000/svg" width="67" height="26" fill="none" xmlns:v="https://vecta.io/nano"><g clip-path="url(#A)" fill="#fff"><path d="M10.79 7.016c-.997 0-1.994.189-2.976.552-.718.276-1.334.625-1.847 1.06V.131H.044v25.187h5.967v-9.587a4.59 4.59 0 0 1 .205-1.365 2.97 2.97 0 0 1 .616-1.089 2.97 2.97 0 0 1 1.012-.755c.396-.189.865-.29 1.393-.29.777 0 1.393.247 1.847.741.469.508.704 1.22.704 2.15v10.182h5.938V14.307c0-2.382-.63-4.212-1.891-5.447-1.261-1.22-2.962-1.845-5.043-1.845zm26.433 2.76a7.5 7.5 0 0 0-2.536-1.975c-1.012-.479-2.17-.726-3.445-.726-.88 0-1.759.16-2.654.465-.63.218-1.158.494-1.613.828V.131h-5.982v25.187l7.814.596c1.642 0 3.123-.247 4.428-.712 1.305-.479 2.404-1.162 3.299-2.019s1.583-1.917 2.067-3.137c.469-1.206.704-2.542.704-3.98 0-1.206-.176-2.353-.543-3.428-.337-1.089-.865-2.048-1.539-2.861h0zM29.16 20.873c-.63 0-1.114-.029-1.451-.087a3.46 3.46 0 0 1-.718-.189V15.47c0-1.002.264-1.801.777-2.397.498-.581 1.319-.871 2.404-.871.557 0 1.041.116 1.422.349.396.232.718.537.953.901a4.52 4.52 0 0 1 .572 1.293 5.85 5.85 0 0 1 .191 1.511c0 1.395-.367 2.527-1.1 3.37-.733.828-1.73 1.249-3.049 1.249zm25.451-4.299c-.762-.886-2.009-1.598-3.68-2.092l-2.815-.901c-.762-.29-.85-.683-.85-.944 0-.291.117-.494.367-.668.279-.189.777-.29 1.451-.29.792 0 1.495.131 2.126.407a9.53 9.53 0 0 1 1.715.944l.278.189 2.375-3.965-.22-.16a9.88 9.88 0 0 0-2.888-1.482c-1.041-.334-2.273-.508-3.651-.508a9.33 9.33 0 0 0-2.742.392c-.85.261-1.613.654-2.229 1.147a5.37 5.37 0 0 0-1.481 1.772c-.367.683-.542 1.453-.542 2.31 0 .813.147 1.54.454 2.164.293.61.704 1.147 1.188 1.583s1.041.799 1.657 1.089a10.65 10.65 0 0 0 1.847.683l1.833.581a6.79 6.79 0 0 1 1.085.465c.22.131.367.261.44.392a.94.94 0 0 1 .117.45c0 .436-.161.697-.513.842-.44.174-.997.262-1.671.262-.748 0-1.525-.16-2.331-.479s-1.451-.726-1.95-1.206l-.264-.247-2.756 3.835.176.189c.821.886 1.906 1.54 3.211 1.975 1.29.421 2.668.639 4.12.639a11 11 0 0 0 2.668-.334c.88-.232 1.671-.581 2.36-1.046.704-.465 1.261-1.075 1.686-1.787.425-.726.63-1.598.63-2.585-.029-1.511-.425-2.716-1.202-3.617h0zm8.503 9.339c2.13 0 3.856-1.71 3.856-3.82s-1.726-3.82-3.856-3.82-3.856 1.71-3.856 3.82 1.726 3.82 3.856 3.82z"/></g><defs><clipPath id="A"><path fill="#fff" d="M0 0h67v26H0z"/></clipPath></defs></svg>