<svg xmlns="http://www.w3.org/2000/svg" width="56" height="38" fill="none" xmlns:v="https://vecta.io/nano"><g clip-path="url(#A)" fill-rule="evenodd" fill="#fff"><path d="M56 4.888l-9.962 5.333a2.02 2.02 0 0 1-1.123.231 2.01 2.01 0 0 1-1.066-.416c-.868-.962-1.282-2.336-1.624-3.444a13.67 13.67 0 0 0 2.227-.782L55.998-.001v4.892L56 4.888zM33.265 9.111l-3.907 8.074c-.44.904-.906 2.333-2.076 3-2.38 1.63-8.226 2.482-8.226 2.482l-.405.053L29.657 2.587h7.924l12.732 27.69h-7.711c-1.368 0-1.274-1.114-2.716-4.684-.301-.815-6.621-16.482-6.621-16.482h.001z"/><path d="M23.812 3.778a24.61 24.61 0 0 1 1.056 3.963c-7.434.148-13.66 3.889-18.377 9.333-1.293 1.671-2.83 3.63-1.736 5.852 1.576 3.065 7.849 2.463 11.887 1.926a51.26 51.26 0 0 0 10.755-3.037l2.906-1.111 1.812-.852 3.623-1.814.98-.482 6.328-3.324L56.002 7.24v6.167l-10.377 6.111-6.717 3.629s-9.66 4.555-14.792 6.037c-.778.232-1.085.324-1.963.519-4.943.962-10.755 1.704-15.358-.444-2.453-1.111-4.566-3.431-5.651-5.778a11.92 11.92 0 0 1-.873-3c0-.37-.071-.903-.071-1.223 0-5.352 4.141-9.407 8.066-12.407.89-.658 1.819-1.263 2.783-1.81.616-.324 1.652-.737 2.595-1.182 1.84-.787 4.08-1.551 6.283-1.716 1.594-.069 3.283.074 3.887 1.63v.005zm28.15 29.815V38H0v-4.407h51.962z"/></g><defs><clipPath id="A"><path fill="#fff" d="M0 0h56v38H0z"/></clipPath></defs></svg>