<svg xmlns="http://www.w3.org/2000/svg" width="60" height="20" fill="#fff" fill-rule="evenodd" xmlns:v="https://vecta.io/nano"><path d="M0 .967v5.085h6.804V18.65h6.088V6.052h6.794V.967H0zm31.61 14.039c-1.414 0-2.474-.417-3.378-1.285-.875-.842-1.514-2.149-1.514-3.906v-.27c0-1.754.64-3.069 1.514-3.912.904-.87 1.972-1.274 3.381-1.274 3.315 0 4.024 2.037 4.238 3.374h5.397c-.129-2.684-1.371-4.578-3.12-5.845C36.39.639 34.358 0 31.672 0c-3.303 0-5.664.76-7.587 2.451-1.945 1.723-2.983 4.444-2.983 7.159v.141c0 2.966.904 5.201 2.895 7.068 1.866 1.749 4.583 2.549 7.603 2.544 2.683 0 4.982-.654 6.572-1.894 1.754-1.366 2.955-3.291 3.098-5.825h-5.385c-.15 1.068-.795 3.362-4.275 3.362zm18.778-1.203V.971h-5.863v17.678h15.464v-4.846h-9.601z"/></svg>