<svg xmlns="http://www.w3.org/2000/svg" width="75" height="26" fill="#fff" xmlns:v="https://vecta.io/nano"><path d="M18.421 9.023H9.678v2.698h6.201c-.306 3.784-3.333 5.397-6.19 5.397-3.655 0-6.845-2.991-6.845-7.183 0-4.084 3.04-7.229 6.853-7.229 2.941 0 4.675 1.95 4.675 1.95L16.188 2.7S13.856 0 9.604 0C4.189 0 0 4.753 0 9.887c0 5.031 3.94 9.936 9.742 9.936 5.102 0 8.837-3.635 8.837-9.011 0-1.134-.158-1.789-.158-1.789h0zm7.162-1.954c-3.587 0-6.158 2.917-6.158 6.319 0 3.452 2.494 6.423 6.2 6.423 3.356 0 6.105-2.668 6.105-6.349 0-4.22-3.198-6.393-6.147-6.393h0zm.036 2.502c1.764 0 3.436 1.483 3.436 3.874 0 2.34-1.665 3.865-3.444 3.865-1.955 0-3.498-1.629-3.498-3.884 0-2.207 1.523-3.855 3.506-3.855h0zm13.358-2.502c-3.587 0-6.158 2.917-6.158 6.319 0 3.452 2.494 6.423 6.2 6.423 3.356 0 6.105-2.668 6.105-6.349 0-4.22-3.198-6.393-6.147-6.393h0zm.036 2.502c1.764 0 3.436 1.483 3.436 3.874 0 2.34-1.665 3.865-3.444 3.865-1.955 0-3.497-1.629-3.497-3.884 0-2.207 1.523-3.855 3.505-3.855h0zm13.101-2.495c-3.293 0-5.881 2.999-5.881 6.366 0 3.835 3.001 6.378 5.824 6.378 1.746 0 2.674-.721 3.36-1.548v1.256c0 2.198-1.283 3.514-3.22 3.514-1.871 0-2.81-1.447-3.136-2.268l-2.354 1.024c.835 1.837 2.516 3.752 5.51 3.752 3.274 0 5.769-2.145 5.769-6.643V7.459h-2.568v1.079c-.79-.885-1.87-1.462-3.303-1.462h0zm.238 2.497c1.614 0 3.272 1.434 3.272 3.882 0 2.489-1.654 3.86-3.308 3.86-1.755 0-3.389-1.482-3.389-3.836 0-2.446 1.697-3.906 3.425-3.906h0zm17.053-2.512c-3.106 0-5.714 2.57-5.714 6.362 0 4.013 2.907 6.393 6.012 6.393 2.592 0 4.183-1.475 5.132-2.796l-2.118-1.465c-.55.887-1.468 1.754-3.002 1.754-1.722 0-2.514-.981-3.005-1.931l8.214-3.545-.427-1.039c-.793-2.034-2.644-3.733-5.094-3.733h0zm.107 2.45c1.119 0 1.925.619 2.267 1.361l-5.485 2.385c-.236-1.846 1.445-3.745 3.219-3.745h0zm-9.738 9.927h2.698V.659h-2.698v18.779z"/></svg>