<svg width="64" height="64" viewBox="0 0 64 64" fill="none" xmlns="http://www.w3.org/2000/svg">
<g clip-path="url(#clip0_105_328)">
<g filter="url(#filter0_f_105_328)">
<path d="M34.2136 5.81347C33.5187 5.49654 32.7639 5.33252 32.0002 5.33252C31.2365 5.33252 30.4817 5.49654 29.7869 5.81347L6.93356 16.2135C6.46036 16.4221 6.05804 16.7639 5.7756 17.1971C5.49315 17.6303 5.34277 18.1363 5.34277 18.6535C5.34277 19.1706 5.49315 19.6766 5.7756 20.1099C6.05804 20.5431 6.46036 20.8848 6.93356 21.0935L29.8136 31.5201C30.5084 31.8371 31.2632 32.0011 32.0269 32.0011C32.7906 32.0011 33.5454 31.8371 34.2402 31.5201L57.1202 21.1201C57.5934 20.9115 57.9958 20.5697 58.2782 20.1365C58.5606 19.7033 58.711 19.1973 58.711 18.6801C58.711 18.163 58.5606 17.657 58.2782 17.2238C57.9958 16.7905 57.5934 16.4488 57.1202 16.2401L34.2136 5.81347Z" stroke="#FF4835" stroke-width="5" stroke-linecap="round" stroke-linejoin="round"/>
</g>
<g filter="url(#filter1_f_105_328)">
<path d="M16.2132 25.3335L6.87989 29.6002C6.42177 29.8155 6.0344 30.1568 5.76307 30.5842C5.49174 31.0115 5.34766 31.5073 5.34766 32.0135C5.34766 32.5197 5.49174 33.0155 5.76307 33.4428C6.0344 33.8702 6.42177 34.2115 6.87989 34.4268L29.8132 44.8535C30.5044 45.1665 31.2545 45.3284 32.0132 45.3284C32.772 45.3284 33.522 45.1665 34.2132 44.8535L57.0932 34.4535C57.5664 34.2448 57.9687 33.9031 58.2512 33.4699C58.5336 33.0367 58.684 32.5307 58.684 32.0135C58.684 31.4963 58.5336 30.9903 58.2512 30.5571C57.9687 30.1239 57.5664 29.7821 57.0932 29.5735L47.7599 25.3335" stroke="#FF4835" stroke-width="5" stroke-linecap="round" stroke-linejoin="round"/>
</g>
<g filter="url(#filter2_f_105_328)">
<path d="M16.2132 38.6665L6.87989 42.9332C6.42177 43.1485 6.0344 43.4898 5.76307 43.9172C5.49174 44.3445 5.34766 44.8403 5.34766 45.3465C5.34766 45.8527 5.49174 46.3485 5.76307 46.7758C6.0344 47.2032 6.42177 47.5445 6.87989 47.7598L29.8132 58.1865C30.5044 58.4995 31.2545 58.6614 32.0132 58.6614C32.772 58.6614 33.522 58.4995 34.2132 58.1865L57.0932 47.7865C57.5664 47.5779 57.9687 47.2361 58.2512 46.8029C58.5336 46.3697 58.684 45.8637 58.684 45.3465C58.684 44.8293 58.5336 44.3233 58.2512 43.8901C57.9687 43.4569 57.5664 43.1152 57.0932 42.9065L47.7599 38.6665" stroke="#FF4835" stroke-width="5" stroke-linecap="round" stroke-linejoin="round"/>
</g>
</g>
<path d="M34.2136 5.81347C33.5187 5.49654 32.7639 5.33252 32.0002 5.33252C31.2365 5.33252 30.4817 5.49654 29.7869 5.81347L6.93356 16.2135C6.46036 16.4221 6.05804 16.7639 5.7756 17.1971C5.49315 17.6303 5.34277 18.1363 5.34277 18.6535C5.34277 19.1706 5.49315 19.6766 5.7756 20.1099C6.05804 20.5431 6.46036 20.8848 6.93356 21.0935L29.8136 31.5201C30.5084 31.8371 31.2632 32.0011 32.0269 32.0011C32.7906 32.0011 33.5454 31.8371 34.2402 31.5201L57.1202 21.1201C57.5934 20.9115 57.9958 20.5697 58.2782 20.1365C58.5606 19.7033 58.711 19.1973 58.711 18.6801C58.711 18.163 58.5606 17.657 58.2782 17.2238C57.9958 16.7905 57.5934 16.4488 57.1202 16.2401L34.2136 5.81347Z" stroke="white" stroke-linecap="round" stroke-linejoin="round"/>
<path d="M16.2132 25.3335L6.87989 29.6002C6.42177 29.8155 6.0344 30.1568 5.76307 30.5842C5.49174 31.0115 5.34766 31.5073 5.34766 32.0135C5.34766 32.5197 5.49174 33.0155 5.76307 33.4428C6.0344 33.8702 6.42177 34.2115 6.87989 34.4268L29.8132 44.8535C30.5044 45.1665 31.2545 45.3284 32.0132 45.3284C32.772 45.3284 33.522 45.1665 34.2132 44.8535L57.0932 34.4535C57.5664 34.2448 57.9687 33.9031 58.2512 33.4699C58.5336 33.0367 58.684 32.5307 58.684 32.0135C58.684 31.4963 58.5336 30.9903 58.2512 30.5571C57.9687 30.1239 57.5664 29.7821 57.0932 29.5735L47.7599 25.3335" stroke="white" stroke-linecap="round" stroke-linejoin="round"/>
<path d="M16.2132 38.6665L6.87989 42.9332C6.42177 43.1485 6.0344 43.4898 5.76307 43.9172C5.49174 44.3445 5.34766 44.8403 5.34766 45.3465C5.34766 45.8527 5.49174 46.3485 5.76307 46.7758C6.0344 47.2032 6.42177 47.5445 6.87989 47.7598L29.8132 58.1865C30.5044 58.4995 31.2545 58.6614 32.0132 58.6614C32.772 58.6614 33.522 58.4995 34.2132 58.1865L57.0932 47.7865C57.5664 47.5779 57.9687 47.2361 58.2512 46.8029C58.5336 46.3697 58.684 45.8637 58.684 45.3465C58.684 44.8293 58.5336 44.3233 58.2512 43.8901C57.9687 43.4569 57.5664 43.1152 57.0932 42.9065L47.7599 38.6665" stroke="white" stroke-linecap="round" stroke-linejoin="round"/>
<defs>
<filter id="filter0_f_105_328" x="-2.15723" y="-2.16748" width="68.3682" height="41.6685" filterUnits="userSpaceOnUse" color-interpolation-filters="sRGB">
<feFlood flood-opacity="0" result="BackgroundImageFix"/>
<feBlend mode="normal" in="SourceGraphic" in2="BackgroundImageFix" result="shape"/>
<feGaussianBlur stdDeviation="2.5" result="effect1_foregroundBlur_105_328"/>
</filter>
<filter id="filter1_f_105_328" x="-2.15234" y="17.833" width="68.3364" height="34.9956" filterUnits="userSpaceOnUse" color-interpolation-filters="sRGB">
<feFlood flood-opacity="0" result="BackgroundImageFix"/>
<feBlend mode="normal" in="SourceGraphic" in2="BackgroundImageFix" result="shape"/>
<feGaussianBlur stdDeviation="2.5" result="effect1_foregroundBlur_105_328"/>
</filter>
<filter id="filter2_f_105_328" x="-2.15234" y="31.166" width="68.3364" height="34.9956" filterUnits="userSpaceOnUse" color-interpolation-filters="sRGB">
<feFlood flood-opacity="0" result="BackgroundImageFix"/>
<feBlend mode="normal" in="SourceGraphic" in2="BackgroundImageFix" result="shape"/>
<feGaussianBlur stdDeviation="2.5" result="effect1_foregroundBlur_105_328"/>
</filter>
<clipPath id="clip0_105_328">
<rect width="64" height="64" fill="white"/>
</clipPath>
</defs>
</svg>
