<svg width="64" height="64" viewBox="0 0 64 64" fill="none" xmlns="http://www.w3.org/2000/svg">
<g clip-path="url(#clip0_105_325)">
<g filter="url(#filter0_f_105_325)">
<path d="M57.7066 9.70662L54.2933 6.29329C53.9933 5.99014 53.6361 5.74948 53.2424 5.58523C52.8488 5.42099 52.4265 5.33643 52 5.33643C51.5734 5.33643 51.1511 5.42099 50.7575 5.58523C50.3638 5.74948 50.0067 5.99014 49.7066 6.29329L6.29329 49.7066C5.99014 50.0067 5.74948 50.3638 5.58523 50.7575C5.42099 51.1511 5.33643 51.5734 5.33643 52C5.33643 52.4265 5.42099 52.8488 5.58523 53.2424C5.74948 53.6361 5.99014 53.9933 6.29329 54.2933L9.70662 57.7066C10.0048 58.013 10.3614 58.2566 10.7553 58.4229C11.1492 58.5892 11.5724 58.6749 12 58.6749C12.4275 58.6749 12.8507 58.5892 13.2446 58.4229C13.6385 58.2566 13.9951 58.013 14.2933 57.7066L57.7066 14.2933C58.013 13.9951 58.2566 13.6385 58.4229 13.2446C58.5892 12.8507 58.6749 12.4275 58.6749 12C58.6749 11.5724 58.5892 11.1492 58.4229 10.7553C58.2566 10.3614 58.013 10.0048 57.7066 9.70662Z" stroke="#FF4835" stroke-width="5" stroke-linecap="round" stroke-linejoin="round"/>
</g>
<g filter="url(#filter1_f_105_325)">
<path d="M37.3335 18.6665L45.3335 26.6665" stroke="#FF4835" stroke-width="5" stroke-linecap="round" stroke-linejoin="round"/>
</g>
<g filter="url(#filter2_f_105_325)">
<path d="M13.3335 16V26.6667" stroke="#FF4835" stroke-width="5" stroke-linecap="round" stroke-linejoin="round"/>
</g>
<g filter="url(#filter3_f_105_325)">
<path d="M50.6665 37.3335V48.0002" stroke="#FF4835" stroke-width="5" stroke-linecap="round" stroke-linejoin="round"/>
</g>
<g filter="url(#filter4_f_105_325)">
<path d="M26.6665 5.3335V10.6668" stroke="#FF4835" stroke-width="5" stroke-linecap="round" stroke-linejoin="round"/>
</g>
<g filter="url(#filter5_f_105_325)">
<path d="M18.6667 21.3335H8" stroke="#FF4835" stroke-width="5" stroke-linecap="round" stroke-linejoin="round"/>
</g>
<g filter="url(#filter6_f_105_325)">
<path d="M56.0002 42.6665H45.3335" stroke="#FF4835" stroke-width="5" stroke-linecap="round" stroke-linejoin="round"/>
</g>
<g filter="url(#filter7_f_105_325)">
<path d="M29.3333 8H24" stroke="#FF4835" stroke-width="5" stroke-linecap="round" stroke-linejoin="round"/>
</g>
</g>
<path d="M57.7066 9.70662L54.2933 6.29329C53.9933 5.99014 53.6361 5.74948 53.2424 5.58523C52.8488 5.42099 52.4265 5.33643 52 5.33643C51.5734 5.33643 51.1511 5.42099 50.7575 5.58523C50.3638 5.74948 50.0067 5.99014 49.7066 6.29329L6.29329 49.7066C5.99014 50.0067 5.74948 50.3638 5.58523 50.7575C5.42099 51.1511 5.33643 51.5734 5.33643 52C5.33643 52.4265 5.42099 52.8488 5.58523 53.2424C5.74948 53.6361 5.99014 53.9933 6.29329 54.2933L9.70662 57.7066C10.0048 58.013 10.3614 58.2566 10.7553 58.4229C11.1492 58.5892 11.5724 58.6749 12 58.6749C12.4275 58.6749 12.8507 58.5892 13.2446 58.4229C13.6385 58.2566 13.9951 58.013 14.2933 57.7066L57.7066 14.2933C58.013 13.9951 58.2566 13.6385 58.4229 13.2446C58.5892 12.8507 58.6749 12.4275 58.6749 12C58.6749 11.5724 58.5892 11.1492 58.4229 10.7553C58.2566 10.3614 58.013 10.0048 57.7066 9.70662Z" stroke="white" stroke-linecap="round" stroke-linejoin="round"/>
<path d="M37.3335 18.6665L45.3335 26.6665" stroke="white" stroke-linecap="round" stroke-linejoin="round"/>
<path d="M13.3335 16V26.6667" stroke="white" stroke-linecap="round" stroke-linejoin="round"/>
<path d="M50.6665 37.3335V48.0002" stroke="white" stroke-linecap="round" stroke-linejoin="round"/>
<path d="M26.6665 5.3335V10.6668" stroke="white" stroke-linecap="round" stroke-linejoin="round"/>
<path d="M18.6667 21.3335H8" stroke="white" stroke-linecap="round" stroke-linejoin="round"/>
<path d="M56.0002 42.6665H45.3335" stroke="white" stroke-linecap="round" stroke-linejoin="round"/>
<path d="M29.3333 8H24" stroke="white" stroke-linecap="round" stroke-linejoin="round"/>
<defs>
<filter id="filter0_f_105_325" x="-2.16357" y="-2.16357" width="68.3384" height="68.3384" filterUnits="userSpaceOnUse" color-interpolation-filters="sRGB">
<feFlood flood-opacity="0" result="BackgroundImageFix"/>
<feBlend mode="normal" in="SourceGraphic" in2="BackgroundImageFix" result="shape"/>
<feGaussianBlur stdDeviation="2.5" result="effect1_foregroundBlur_105_325"/>
</filter>
<filter id="filter1_f_105_325" x="29.8335" y="11.1665" width="23" height="23" filterUnits="userSpaceOnUse" color-interpolation-filters="sRGB">
<feFlood flood-opacity="0" result="BackgroundImageFix"/>
<feBlend mode="normal" in="SourceGraphic" in2="BackgroundImageFix" result="shape"/>
<feGaussianBlur stdDeviation="2.5" result="effect1_foregroundBlur_105_325"/>
</filter>
<filter id="filter2_f_105_325" x="5.8335" y="8.5" width="15" height="25.6665" filterUnits="userSpaceOnUse" color-interpolation-filters="sRGB">
<feFlood flood-opacity="0" result="BackgroundImageFix"/>
<feBlend mode="normal" in="SourceGraphic" in2="BackgroundImageFix" result="shape"/>
<feGaussianBlur stdDeviation="2.5" result="effect1_foregroundBlur_105_325"/>
</filter>
<filter id="filter3_f_105_325" x="43.1665" y="29.8335" width="15" height="25.6665" filterUnits="userSpaceOnUse" color-interpolation-filters="sRGB">
<feFlood flood-opacity="0" result="BackgroundImageFix"/>
<feBlend mode="normal" in="SourceGraphic" in2="BackgroundImageFix" result="shape"/>
<feGaussianBlur stdDeviation="2.5" result="effect1_foregroundBlur_105_325"/>
</filter>
<filter id="filter4_f_105_325" x="19.1665" y="-2.1665" width="15" height="20.3335" filterUnits="userSpaceOnUse" color-interpolation-filters="sRGB">
<feFlood flood-opacity="0" result="BackgroundImageFix"/>
<feBlend mode="normal" in="SourceGraphic" in2="BackgroundImageFix" result="shape"/>
<feGaussianBlur stdDeviation="2.5" result="effect1_foregroundBlur_105_325"/>
</filter>
<filter id="filter5_f_105_325" x="0.5" y="13.8335" width="25.6665" height="15" filterUnits="userSpaceOnUse" color-interpolation-filters="sRGB">
<feFlood flood-opacity="0" result="BackgroundImageFix"/>
<feBlend mode="normal" in="SourceGraphic" in2="BackgroundImageFix" result="shape"/>
<feGaussianBlur stdDeviation="2.5" result="effect1_foregroundBlur_105_325"/>
</filter>
<filter id="filter6_f_105_325" x="37.8335" y="35.1665" width="25.6665" height="15" filterUnits="userSpaceOnUse" color-interpolation-filters="sRGB">
<feFlood flood-opacity="0" result="BackgroundImageFix"/>
<feBlend mode="normal" in="SourceGraphic" in2="BackgroundImageFix" result="shape"/>
<feGaussianBlur stdDeviation="2.5" result="effect1_foregroundBlur_105_325"/>
</filter>
<filter id="filter7_f_105_325" x="16.5" y="0.5" width="20.3335" height="15" filterUnits="userSpaceOnUse" color-interpolation-filters="sRGB">
<feFlood flood-opacity="0" result="BackgroundImageFix"/>
<feBlend mode="normal" in="SourceGraphic" in2="BackgroundImageFix" result="shape"/>
<feGaussianBlur stdDeviation="2.5" result="effect1_foregroundBlur_105_325"/>
</filter>
<clipPath id="clip0_105_325">
<rect width="64" height="64" fill="white"/>
</clipPath>
</defs>
</svg>
