<svg width="64" height="64" viewBox="0 0 64 64" fill="none" xmlns="http://www.w3.org/2000/svg">
<g clip-path="url(#clip0_105_327)">
<g filter="url(#filter0_f_105_327)">
<path d="M40 13.3335L50.6667 24.0002" stroke="#FF4835" stroke-width="5" stroke-linecap="round" stroke-linejoin="round"/>
</g>
<g filter="url(#filter1_f_105_327)">
<path d="M34.6666 18.6666L23.2 7.19996C21.9956 6.00145 20.3657 5.32861 18.6666 5.32861C16.9676 5.32861 15.3376 6.00145 14.1333 7.19996L7.19996 14.1333C6.00145 15.3376 5.32861 16.9676 5.32861 18.6666C5.32861 20.3657 6.00145 21.9956 7.19996 23.2L18.6666 34.6666" stroke="#FF4835" stroke-width="5" stroke-linecap="round" stroke-linejoin="round"/>
</g>
<g filter="url(#filter2_f_105_327)">
<path d="M21.3335 15.9998L26.6668 10.6665" stroke="#FF4835" stroke-width="5" stroke-linecap="round" stroke-linejoin="round"/>
</g>
<g filter="url(#filter3_f_105_327)">
<path d="M5.3335 58.6665L20.0002 54.6665L56.4535 18.2132C57.868 16.7987 58.6626 14.8803 58.6626 12.8799C58.6626 10.8795 57.868 8.96103 56.4535 7.54654C55.039 6.13205 53.1205 5.3374 51.1202 5.3374C49.1198 5.3374 47.2013 6.13205 45.7868 7.54654L9.3335 43.9999L5.3335 58.6665Z" stroke="#FF4835" stroke-width="5" stroke-linecap="round" stroke-linejoin="round"/>
</g>
<g filter="url(#filter4_f_105_327)">
<path d="M48 42.6668L53.3333 37.3335" stroke="#FF4835" stroke-width="5" stroke-linecap="round" stroke-linejoin="round"/>
</g>
<g filter="url(#filter5_f_105_327)">
<path d="M45.3335 29.3335L56.8002 40.8002C59.3068 43.3068 59.3068 47.3602 56.8002 49.8668L49.8668 56.8002C47.3602 59.3068 43.3068 59.3068 40.8002 56.8002L29.3335 45.3335" stroke="#FF4835" stroke-width="5" stroke-linecap="round" stroke-linejoin="round"/>
</g>
</g>
<path d="M40 13.3335L50.6667 24.0002" stroke="white" stroke-linecap="round" stroke-linejoin="round"/>
<path d="M34.6666 18.6666L23.2 7.19996C21.9956 6.00145 20.3657 5.32861 18.6666 5.32861C16.9676 5.32861 15.3376 6.00145 14.1333 7.19996L7.19996 14.1333C6.00145 15.3376 5.32861 16.9676 5.32861 18.6666C5.32861 20.3657 6.00145 21.9956 7.19996 23.2L18.6666 34.6666" stroke="white" stroke-linecap="round" stroke-linejoin="round"/>
<path d="M21.3335 15.9998L26.6668 10.6665" stroke="white" stroke-linecap="round" stroke-linejoin="round"/>
<path d="M5.3335 58.6665L20.0002 54.6665L56.4535 18.2132C57.868 16.7987 58.6626 14.8803 58.6626 12.8799C58.6626 10.8795 57.868 8.96103 56.4535 7.54654C55.039 6.13205 53.1205 5.3374 51.1202 5.3374C49.1198 5.3374 47.2013 6.13205 45.7868 7.54654L9.3335 43.9999L5.3335 58.6665Z" stroke="white" stroke-linecap="round" stroke-linejoin="round"/>
<path d="M48 42.6668L53.3333 37.3335" stroke="white" stroke-linecap="round" stroke-linejoin="round"/>
<path d="M45.3335 29.3335L56.8002 40.8002C59.3068 43.3068 59.3068 47.3602 56.8002 49.8668L49.8668 56.8002C47.3602 59.3068 43.3068 59.3068 40.8002 56.8002L29.3335 45.3335" stroke="white" stroke-linecap="round" stroke-linejoin="round"/>
<defs>
<filter id="filter0_f_105_327" x="32.5" y="5.8335" width="25.6665" height="25.6665" filterUnits="userSpaceOnUse" color-interpolation-filters="sRGB">
<feFlood flood-opacity="0" result="BackgroundImageFix"/>
<feBlend mode="normal" in="SourceGraphic" in2="BackgroundImageFix" result="shape"/>
<feGaussianBlur stdDeviation="2.5" result="effect1_foregroundBlur_105_327"/>
</filter>
<filter id="filter1_f_105_327" x="-2.17139" y="-2.17139" width="44.3379" height="44.3379" filterUnits="userSpaceOnUse" color-interpolation-filters="sRGB">
<feFlood flood-opacity="0" result="BackgroundImageFix"/>
<feBlend mode="normal" in="SourceGraphic" in2="BackgroundImageFix" result="shape"/>
<feGaussianBlur stdDeviation="2.5" result="effect1_foregroundBlur_105_327"/>
</filter>
<filter id="filter2_f_105_327" x="13.8335" y="3.1665" width="20.3335" height="20.3335" filterUnits="userSpaceOnUse" color-interpolation-filters="sRGB">
<feFlood flood-opacity="0" result="BackgroundImageFix"/>
<feBlend mode="normal" in="SourceGraphic" in2="BackgroundImageFix" result="shape"/>
<feGaussianBlur stdDeviation="2.5" result="effect1_foregroundBlur_105_327"/>
</filter>
<filter id="filter3_f_105_327" x="-2.1665" y="-2.1626" width="68.3291" height="68.3291" filterUnits="userSpaceOnUse" color-interpolation-filters="sRGB">
<feFlood flood-opacity="0" result="BackgroundImageFix"/>
<feBlend mode="normal" in="SourceGraphic" in2="BackgroundImageFix" result="shape"/>
<feGaussianBlur stdDeviation="2.5" result="effect1_foregroundBlur_105_327"/>
</filter>
<filter id="filter4_f_105_327" x="40.5" y="29.8335" width="20.3335" height="20.3335" filterUnits="userSpaceOnUse" color-interpolation-filters="sRGB">
<feFlood flood-opacity="0" result="BackgroundImageFix"/>
<feBlend mode="normal" in="SourceGraphic" in2="BackgroundImageFix" result="shape"/>
<feGaussianBlur stdDeviation="2.5" result="effect1_foregroundBlur_105_327"/>
</filter>
<filter id="filter5_f_105_327" x="21.8335" y="21.8335" width="44.3467" height="44.3467" filterUnits="userSpaceOnUse" color-interpolation-filters="sRGB">
<feFlood flood-opacity="0" result="BackgroundImageFix"/>
<feBlend mode="normal" in="SourceGraphic" in2="BackgroundImageFix" result="shape"/>
<feGaussianBlur stdDeviation="2.5" result="effect1_foregroundBlur_105_327"/>
</filter>
<clipPath id="clip0_105_327">
<rect width="64" height="64" fill="white"/>
</clipPath>
</defs>
</svg>
