<svg xmlns="http://www.w3.org/2000/svg" width="95" height="21" fill="#fff" xmlns:v="https://vecta.io/nano"><path d="M94.999 9.272V7.59h-2.077V4.961l-.074.019-1.948.604-.037.009v1.988h-3.079V6.475c0-.52.11-.91.34-1.171.221-.26.542-.39.947-.39.294 0 .597.074.901.204l.074.037V3.373l-.037-.009c-.285-.102-.671-.158-1.149-.158-.606 0-1.158.13-1.636.399a2.79 2.79 0 0 0-1.121 1.124c-.266.483-.395 1.031-.395 1.644V7.59h-1.434v1.691h1.443v7.116h2.077V9.272h3.079v4.524c0 1.858.873 2.806 2.582 2.806a4.22 4.22 0 0 0 .882-.102c.313-.065.515-.13.643-.204l.027-.019v-1.7l-.083.056a1.57 1.57 0 0 1-.414.186c-.165.046-.303.074-.413.074-.404 0-.699-.112-.882-.325s-.285-.594-.285-1.133V9.272h2.068zm-15.357 5.62c-.754 0-1.342-.251-1.765-.753s-.634-1.208-.634-2.118c0-.929.211-1.663.634-2.174.423-.502 1.011-.762 1.746-.762.717 0 1.296.242 1.7.725.414.483.625 1.208.625 2.155 0 .957-.193 1.691-.588 2.183-.377.492-.956.743-1.719.743zm.092-7.516c-1.434 0-2.573.427-3.391 1.263-.809.836-1.222 1.997-1.222 3.456 0 1.375.404 2.49 1.195 3.298s1.875 1.217 3.207 1.217c1.388 0 2.509-.427 3.327-1.282.809-.845 1.222-1.997 1.222-3.419 0-1.403-.386-2.518-1.149-3.317-.763-.808-1.829-1.217-3.189-1.217zm-7.959 0c-.974 0-1.783.251-2.399.752-.625.502-.937 1.161-.937 1.951 0 .409.064.78.202 1.096a2.21 2.21 0 0 0 .616.818c.276.233.698.464 1.259.715l1.048.492c.221.13.377.26.46.381s.129.288.129.502c0 .595-.441.883-1.342.883-.331 0-.717-.074-1.13-.214s-.809-.334-1.158-.594l-.083-.065v2.016l.028.019c.294.139.662.251 1.103.344.432.093.827.139 1.176.139 1.057 0 1.912-.251 2.537-.753s.947-1.18.947-1.997c0-.595-.175-1.106-.506-1.514s-.919-.78-1.728-1.115c-.643-.26-1.057-.483-1.231-.65-.165-.158-.248-.39-.248-.678a.76.76 0 0 1 .313-.632c.211-.167.515-.251.882-.251a3.43 3.43 0 0 1 1.048.167c.349.111.662.251.919.427l.083.056V7.757l-.037-.019c-.239-.102-.551-.195-.928-.26s-.717-.102-1.02-.102zm-8.74 7.516c-.754 0-1.342-.251-1.765-.753s-.634-1.208-.634-2.118c0-.929.211-1.663.634-2.174.414-.502 1.002-.762 1.746-.762.717 0 1.296.242 1.7.725.413.483.625 1.208.625 2.155 0 .957-.193 1.691-.588 2.183-.386.492-.965.743-1.719.743zm.092-7.516c-1.434 0-2.573.427-3.391 1.263-.809.836-1.222 1.997-1.222 3.456 0 1.375.404 2.49 1.195 3.298s1.875 1.217 3.207 1.217c1.388 0 2.509-.427 3.327-1.282.809-.845 1.222-1.997 1.222-3.419 0-1.403-.386-2.518-1.149-3.317-.763-.808-1.838-1.217-3.189-1.217zm-7.766 1.737V7.59h-2.05v8.807h2.05v-4.506c0-.762.175-1.394.515-1.867.331-.474.781-.706 1.323-.706.184 0 .395.028.616.093s.386.13.478.195l.083.065v-2.1l-.037-.019c-.193-.084-.459-.121-.8-.121a2.1 2.1 0 0 0-1.369.492c-.349.288-.597.687-.79 1.18 0 .009-.018.009-.018.009zm-5.716-1.737c-.937 0-1.774.204-2.491.604s-1.268.975-1.645 1.709c-.377.725-.561 1.579-.561 2.527 0 .836.184 1.598.551 2.267a3.92 3.92 0 0 0 1.535 1.57c.652.362 1.406.548 2.242.548.974 0 1.801-.195 2.472-.585l.027-.019v-1.895l-.083.065a3.99 3.99 0 0 1-1.002.53 2.92 2.92 0 0 1-.983.195c-.8 0-1.452-.251-1.921-.753s-.708-1.208-.708-2.09c0-.892.248-1.616.735-2.146s1.13-.799 1.921-.799c.671 0 1.333.232 1.948.687l.083.065V7.841l-.027-.019c-.23-.13-.551-.242-.947-.325a5.6 5.6 0 0 0-1.149-.121zm-6.111.214h-2.05v8.807h2.05V7.59zm-1.002-3.753c-.34 0-.634.111-.873.344s-.368.52-.368.864c0 .334.119.622.358.845s.533.334.873.334a1.26 1.26 0 0 0 .882-.334c.239-.223.368-.511.368-.845a1.15 1.15 0 0 0-.358-.855 1.19 1.19 0 0 0-.882-.353zm-5.11 3.103v9.457h2.095V4.106h-2.895l-3.676 9.123-3.566-9.123h-3.014v12.281h1.967V6.94h.064l3.768 9.457h1.48l3.713-9.457h.064zM9.641 9.745H0V0h9.641v9.745zm10.642 0h-9.641V0h9.641v9.745zM9.641 20.503H0v-9.745h9.641v9.745zm10.642 0h-9.641v-9.745h9.641v9.745z"/></svg>