<svg xmlns="http://www.w3.org/2000/svg" width="100" height="21" fill="#fff" fill-rule="evenodd" xmlns:v="https://vecta.io/nano"><path d="M15.719.506v11.561c0 3.861-1.7 5.464-5.687 5.464s-5.688-1.603-5.688-5.464V0H.504C.168 0 0 .169 0 .506v11.751c0 6.456 4.092 8.713 10.032 8.713s10.032-2.257 10.032-8.713V0h-3.841c-.336 0-.503.169-.503.506zm55.675 2.848c.315 0 .462-.105.566-.338L73.073.253c.063-.168 0-.253-.168-.253H57.437c-1.448 0-1.993.443-1.993 1.435v17.953c0 .844.419 1.224 1.532 1.224h14.418c.315 0 .462-.106.566-.337l1.113-2.764c.063-.169 0-.253-.168-.253h-13.2v-3.65c0-1.266.693-1.836 2.56-1.836h5.73c.315 0 .461-.105.566-.337l1.07-2.658c.063-.169 0-.253-.168-.253h-9.759v-5.17h11.689zM40.136 17.3h-7.578v-3.776c0-1.266.692-1.835 2.561-1.835h5.018c2.413 0 3.085.928 3.085 2.827s-.672 2.785-3.085 2.785zM32.557 3.312h6.781c2.267 0 2.896.858 2.896 2.637s-.63 2.637-2.896 2.637h-6.781V3.312zm11.608 6.435c1.679-.886 2.371-2.553 2.371-4.515C46.536.675 42.843 0 39.023 0h-8.73c-1.448 0-1.994.443-1.994 1.435v17.953c0 .844.42 1.224 1.532 1.224h10.745c4.05 0 6.946-1.582 6.946-5.696 0-2.468-1.049-4.557-3.357-5.169zm47.7-.19H84.73V3.312h7.136c2.665 0 3.253 1.033 3.253 3.122 0 2.11-.588 3.122-3.253 3.122zm8.017 10.696l-4.596-7.933c2.287-.59 4.134-2.109 4.134-5.97 0-5-3.085-6.35-8.185-6.35h-8.772c-1.448 0-1.994.443-1.994 1.435v18.671c0 .337.168.506.504.506h3.757v-6.013c0-1.266.692-1.836 2.561-1.836h3.777l4.155 7.511c.126.211.252.337.567.337h3.904c.273 0 .273-.232.189-.359z"/></svg>