<svg xmlns="http://www.w3.org/2000/svg" width="99" height="20" fill="none" xmlns:v="https://vecta.io/nano"><g clip-path="url(#A)" fill="#fff"><path d="M36.242 17.872l-3.367-4.961a.82.82 0 0 1-.127-.626.83.83 0 0 1 .358-.53c1.542-1.026 2.51-2.862 2.51-4.98 0-3.626-3.055-6.495-6.818-6.495h-8.091c-.147 0-.288.058-.392.161a.55.55 0 0 0-.162.389v3.515c-.001.145.113.265.258.273 2.738.146 4.937 2.491 4.937 5.166 0 2.7-2.222 4.994-4.937 5.14-.146.008-.259.129-.258.273v3.41a.55.55 0 0 0 .553.549h4.701a.55.55 0 0 0 .553-.549v-1.643c0-1.171 1.018-1.454 1.797-.537l1.973 2.453a.95.95 0 0 0 .671.28h5.151a.83.83 0 0 0 .737-.437.82.82 0 0 0-.047-.852zM38.821.271h4.075c.306.001.553.247.553.55v17.78a.55.55 0 0 1-.553.55h-4.075a.55.55 0 0 1-.554-.55V.821a.55.55 0 0 1 .554-.55zM50.064 4.93H45.77a.55.55 0 0 1-.553-.545V.821a.55.55 0 0 1 .553-.55h14.22c.306.001.553.247.553.55v3.564a.55.55 0 0 1-.553.55h-4.188a.28.28 0 0 0-.276.275v13.392a.55.55 0 0 1-.553.55h-4.075a.55.55 0 0 1-.554-.55V5.205a.28.28 0 0 0-.28-.275zM62.943.271h12.91c.306.001.553.247.553.55v3.532a.55.55 0 0 1-.162.389c-.104.103-.245.161-.391.161h-8.005a.28.28 0 0 0-.282.28v2.053c0 .074.03.144.083.196s.125.08.199.078h7.432c.306.001.553.247.553.55v3.126a.55.55 0 0 1-.553.55h-7.432a.28.28 0 0 0-.282.274v2.322a.28.28 0 0 0 .282.274h8.223c.306.001.553.247.553.551v3.452a.55.55 0 0 1-.553.55H62.943a.55.55 0 0 1-.553-.55V.821a.55.55 0 0 1 .162-.389c.104-.103.245-.161.392-.161zM88.452 0C82.644 0 77.98 4.385 77.98 9.778s4.663 9.752 10.472 9.752c5.836 0 10.499-4.362 10.499-9.752S94.288 0 88.452 0zm0 14.927a5.18 5.18 0 0 1-3.668-1.503c-.972-.966-1.517-2.278-1.513-3.644 0-2.79 2.318-5.173 5.181-5.173s5.209 2.411 5.209 5.173c.005 2.789-2.363 5.147-5.205 5.147h-.005zM10.363 0c2.957 0 5.604 1.254 7.495 3.253a.55.55 0 0 1-.052.795l-2.684 2.234c-.219.179-.539.166-.741-.032a5.81 5.81 0 0 0-4.015-1.646c-2.864 0-5.182 2.167-5.182 5.119s2.318 5.093 5.182 5.093a5.81 5.81 0 0 0 4.015-1.646c.202-.198.522-.212.741-.033l2.686 2.234a.55.55 0 0 1 .053.795c-1.892 1.999-4.539 3.253-7.495 3.253C4.636 19.421 0 15.331 0 9.724S4.636 0 10.363 0z"/></g><defs><clipPath id="A"><path fill="#fff" d="M0 0h99v20H0z"/></clipPath></defs></svg>