<svg xmlns="http://www.w3.org/2000/svg" width="71" height="20" fill="#fff" xmlns:v="https://vecta.io/nano"><path d="M15.027 0a8.54 8.54 0 0 0-2.023.25s-3.771.925-7.93 4.749c0 0-1.981 1.982-3.384 4.534 0 0-1.459 2.663-1.678 4.889 0 0-.219 2.496 1.212 3.776 0 0 1.65 1.495 5.259 1.196 0 0 2.256-.271 4.709-1.794 0 0 1.184-.758 1.953-1.467 0 0-.36 1.28.162 2.197 0 0 .493.869 1.621 1.057 0 0 .825.16 2.009-.271l1.241-.57s1.015-.542 2.009-1.3c0 0-.19.758.247 1.412a2.18 2.18 0 0 0 1.487.814s2.587.188 6.196-4.179l-2.531 4.019 2.312-.028 2.009-3.421 2.531-3.964s1.072-1.412 2.7-1.738l1.072.083s.437.216.437.709l-.797-.139s-.465.056-.719.542c0 0-.219.459-.113.925 0 0 .141.382.493.515l.247.083.797-.111s1.403-.514 3.334-2.907l-.437.786-1.621 2.74-1.896 3.31s-.55 1.085-.303 1.738c0 0 .247.626 1.072.786l1.791-.139s1.015-.299 1.847-1.001l1.184-.953s1.431-1.196 2.728-2.608l-.085.111s-1.128 2.037-1.318 2.719c0 0-.437 1.44.578 2.01l1.156.111s.966-.139 1.925-.814l1.572-1.328s1.346-1.252 2.066-2.142c0 0-.359.814-.437 1.412 0 0-.275 1.898 1.516 2.663l1.678.139s.663-.056 1.678-.41c0 0 2.369-.758 5.696-3.776 0 0 1.678-1.523 2.862-2.879l-4.194 6.926h2.065l1.544-2.552 1.981-3.178s1.128-1.766 3.193-2.907c0 0 .825-.487 1.459-.598 0 0 .663-.139.796.188 0 0-.937-.188-1.156.758 0 0-.219.953.55 1.252 0 0 .578.188 1.043-.139 0 0 .416-.299.55-.869 0 0 .113-.57-.162-.98 0 0-.331-.487-1.1-.542 0 0-.853-.028-2.559 1.085 0 0-1.269.814-1.791 1.328l1.403-2.364h-2.094s-1.981 3.31-5.477 6.161c0 0-3.412 2.74-5.343 2.823 0 0-1.875.139-2.065-1.28 0 0-.113-.841.388-2.037 0 0 1.156.111 2.7-.383 0 0 1.459-.459 2.672-1.28 0 0 1.297-.869 1.762-1.794 0 0 .55-1.029-.084-1.898 0 0-1.156-1.113-3.659-.083 0 0-2.587 1.057-4.512 3.581l-.493.73-.056.083-1.375 1.572-1.403 1.384s-1.706 1.655-2.559 1.168c0 0-.331-.216-.331-.73 0 0 0-.515.388-1.14l3.99-6.843h-1.79l-2.15 3.122s-2.256 2.962-4.709 4.673c0 0-1.678 1.28-2.615.841 0 0-.416-.188-.388-.709 0 0 .028-.57.578-1.356l3.912-6.571 2.171-.028.275-.271h-2.199l2.34-4.103-1.981.028-2.425 3.692s-1.924 2.496-3.525 3.178c0 0 .275-.355.303-.897l-.028-.431s-.113-.57-.663-.841l-.494-.139-.937.083s-1.1.243-2.122 1.113l.853-1.412h-1.981s-1.79 3.15-4.131 5.841c0 0-3.052 3.477-4.737 3.067 0 0-.493-.243-.522-.841 0 0 0-.598.522-1.439l3.99-6.655-1.981.028-.634 1.085-.416.786s.085-.243 0-.758c0 0-.162-1.224-1.346-1.467l-.937-.083s-2.369-.028-5.068 2.309c0 0-1.847 1.627-3.25 4.103 0 0-2.806 2.58-5.78 3.15 0 0-2.643.542-3.771-.626 0 0-1.241-1.252-1.241-3.421 0 0 .028-2.58 1.896-6.085l3.193-4.179s3.08-3.338 6.274-4.179c0 0 2.615-.681 4.074.487 0 0 1.241 1.001 1.346 3.039l.719-1.196S20.744 1.3 21.54.487c0 0-.74.327-1.65.431 0 0-1.128.139-1.678-.188.021.042-1.205-.723-3.186-.73zm6.718 9.596c.804.007 1.22.376 1.22.376.966.869.19 2.496.19 2.496-1.487 3.039-3.658 4.889-3.658 4.889l-1.318.925c-2.065 1.001-2.947.299-2.947.299-.719-.598-.416-1.954-.416-1.954.19-.925.966-2.253.966-2.253l1.487-2.142c1.346-1.467 2.89-2.225 2.89-2.225.634-.313 1.163-.41 1.586-.41zm35.415.236h.085s.437.056.634.271c0 0 .19.271.141.814 0 0-.141 1.439-1.762 2.795 0 0-1.847 1.551-3.99 1.495l.416-.841s.938-1.794 2.312-3.178c-.014.007 1.304-1.342 2.164-1.356zm-8.375-3.038a.96.96 0 0 0 .275.626s.247.244.634.244c0 0 .36 0 .606-.244 0 0 .247-.271.247-.626l-.247-.626s-.275-.244-.606-.244c0 0-.388 0-.634.244 0 .007-.275.25-.275.626z"/></svg>