<svg xmlns="http://www.w3.org/2000/svg" width="61" height="24" fill="none" xmlns:v="https://vecta.io/nano"><g clip-path="url(#A)" fill="#fff"><path d="M8.636.772C3.965.772 0 4.13 0 9.295c0 4.647 3.529 8.33 8.584 8.33 4.662 0 8.636-3.358 8.636-8.523 0-4.639-3.529-8.33-8.584-8.33h0zm0 15.854c-3.041 0-5.22-3.13-5.22-7.445 0-4.13 2.065-7.401 5.176-7.401 3.041 0 5.22 3.13 5.22 7.445-.009 4.13-2.074 7.401-5.176 7.401zm48.399-9.461v.702l.932.184c.323.07.418.324.209.842l-2.144 5.191c-.096.21-.209.21-.279 0L53.758 8.9c-.209-.535-.096-.772.235-.842l.924-.184v-.702h-8.261v.702l.932.184c.322.07.444.324.235.842l-2.065 5.463c-.096.21-.209.21-.279 0L43.388 8.9c-.183-.535-.096-.772.235-.842l.924-.184v-.702h-5.246v.719l.514.114c.348.07.558.254.697.587l3.547 8.778h1.604l3.547-8.778c.183-.465.392-.658.767-.658h.14c.305 0 .531.114.723.561l3.712 9.111-.993 2.385c-.654 1.587-1.133 1.868-1.743 1.868-.253 0-.532-.044-.81-.044-.723 0-1.159.517-1.159 1.07 0 .631.514 1.079 1.325 1.079 1.159 0 2.301-.938 3.25-3.174l5.054-11.934c.235-.535.532-.772 1.02-.868L61 7.892v-.728h-3.965zm-32.53 9.295l-3.878.491c-1.272.167-1.673-.254-1.673-.912 0-.772.836-1.377 3.738-1.377h.044c2.109 0 4.592-1.28 4.592-4.06 0-.886-.322-1.701-.932-2.359a3.04 3.04 0 0 1-.279-1.447c0-2.052 1.394-3.218 2.832-3.218.601 0 .793.096.793.517 0 .114-.026.21-.026.351 0 .728.601 1.403 1.464 1.403.88 0 1.438-.702 1.438-1.473 0-1.166-1.046-2.034-2.972-2.034-2.649 0-4.688 1.727-4.688 4.367 0 .21.026.377.026.535a5.58 5.58 0 0 0-2.161-.421c-2.091 0-4.592 1.28-4.592 4.06 0 1.28.723 2.473 1.969 3.174-1.856.254-2.919 1.263-2.919 2.823 0 1.587 1.255 2.736 3.599 2.455l3.39-.421c1.691-.21 2.248.395 2.248 1.28 0 1.543-1.438 2.78-3.739 2.78-1.83 0-2.51-.658-2.51-1.587l.026-.465c0-.561-.349-.956-.906-.982-.654 0-1.046.465-1.046 1.14 0 1.543 1.464 2.92 4.453 2.92 3.364 0 5.499-2.192 5.499-4.718.009-2.008-1.586-3.104-3.791-2.824zm-1.743-8.804c1.089 0 1.969 1.236 1.969 3.13 0 1.631-.741 3.034-1.9 3.034-1.115 0-1.995-1.236-1.995-3.13 0-1.605.741-3.034 1.926-3.034zm15.641 8.505V0l-4.087 1.052v.491l1.159.377c.183.07.253.21.253.395v13.776c0 .254-.209.447-.514.447l-1.037.018-1.098-.018c-.305 0-.514-.184-.514-.447V6.769l-4.087 1.052v.491l1.159.377c.183.07.253.21.253.395v7.076c0 .21-.113.324-.279.351l-.95.114v.745h11.137v-.745l-1.133-.114c-.148-.026-.261-.14-.261-.351h0z"/></g><defs><clipPath id="A"><path fill="#fff" d="M0 0h61v24H0z"/></clipPath></defs></svg>