<svg xmlns="http://www.w3.org/2000/svg" width="79" height="65" fill="#fff" xmlns:v="https://vecta.io/nano"><path d="M59.732 42.326h-9.855l-7.243-15.103c-3.95 2.148-6.214 7.127-10.228 10.421-2.045 1.672-4.438 3.165-7.41 4.181-1.351.45-3.641 1.042-4.503 1.132-.36.039-.617.026-.669-.116-.039-.103.064-.18.437-.36.437-.206 2.251-.965 3.384-1.75 1.415-.991 2.226-2.058 2.29-2.882-.386-1.376-3.165-4.413-.322-10.009 1.016-2.007 1.904-3.448 2.534-4.902.721-1.672 1.235-4.014 1.415-5.763.013-.103.026-.103.09-.039 1.377 1.402 6.728 6.909 5.956 12.389 1.775-.682 4.863-2.766 6.291-3.872 1.505-1.171 2.483-2.393 4.078-2.419 1.428-.026 1.544.656 2.689.81.283.039.695-.013.913-.129.09-.039.064-.142-.064-.167-1.544-.36-1.917-1.621-3.924-1.621-1.801 0-3.229 1.647-4.258 2.329l-5.056-10.549C34.131 9.507 34.774 6.304 39.418 0l20.314 42.326zm19.117 21.715l-3.448-4.104c1.814-.412 2.92-1.454 2.92-3.268 0-2.046-1.737-3.075-3.937-3.075h-6.883V64.04h1.827v-3.949h4.091l3.152 3.949h2.277zm-9.52-8.825h5.107c1.261 0 2.007.592 2.007 1.582 0 1.016-.785 1.672-2.007 1.672h-5.107v-3.255zM5.39 53.595L0 64.041h2.071l1.145-2.328h6.137l1.145 2.328h2.11l-5.39-10.446H5.39zm-1.377 6.497l2.264-4.593 2.264 4.593H4.014zm18.256-5.12c1.724 0 3.139.643 3.859 1.788l1.479-.991c-1.029-1.441-2.856-2.444-5.326-2.444-4.001 0-6.304 2.612-6.304 5.506 0 2.882 2.303 5.493 6.304 5.493 2.483 0 4.297-1.004 5.326-2.444l-1.479-1.003c-.72 1.132-2.136 1.788-3.859 1.788-2.689 0-4.426-1.505-4.426-3.847s1.737-3.847 4.426-3.847zm16.583 0c1.711 0 3.139.643 3.859 1.788l1.48-.991c-1.029-1.441-2.856-2.444-5.326-2.444-4.001 0-6.304 2.612-6.304 5.506 0 2.882 2.303 5.493 6.304 5.493 2.47 0 4.297-1.004 5.326-2.444l-1.48-.991c-.72 1.132-2.136 1.788-3.859 1.788-2.689 0-4.426-1.505-4.426-3.847s1.737-3.86 4.426-3.86zm16.583-1.647c-4.001 0-6.304 2.612-6.304 5.506 0 2.882 2.303 5.493 6.304 5.493s6.304-2.612 6.304-5.493c0-2.895-2.29-5.506-6.304-5.506zm0 9.366c-2.689 0-4.426-1.518-4.426-3.872s1.737-3.872 4.426-3.872 4.426 1.518 4.426 3.872c.013 2.354-1.724 3.872-4.425 3.872z"/></svg>