<svg xmlns="http://www.w3.org/2000/svg" width="72" height="24" fill="#fff" xmlns:v="https://vecta.io/nano"><path d="M27.649 20.568c-2.679-1.726-6.315-2.029-12.179-.402-6.251 1.469-8.335 2.411-11.073.52-1.052-.929-1.429-2.424-1.147-4.578.653-3.511 2.418-6.89 5.552-10.638 1.75-1.95 3.372-3.623 5.515-4.295 1.642-.422 1.489.869 1.29 1.054-.21 0-.562.033-.834.211-.221.171-.827.725-.86 1.469-.047 1.14 1.132.902 1.641.277.548-.705 1.358-2.055.721-3.313-.267-.448-.729-.757-1.302-.863-1.962-.112-3.79.823-5.476 1.858-3.688 2.562-6.639 6.113-8.308 10-.963 2.345-1.833 5.704-.528 8.438C1.67 22.203 3.766 23.211 6.266 23c1.753-.184 3.874-.751 5.3-1.093s8.726-2.852 11.124 1.515c0 0 .798-1.548 2.791-1.581 1.639-.151 4.003.474 5.724 1.739-.574-.863-2.2-2.134-3.556-3.01zM16.214 5.912c-1.365-.896-4.109.817-6.307 3.755-2.01 2.635-2.878 5.698-1.933 7.114 1.405 1.667 4.013-.758 5.122-2.055l.143-.152c.754-.81 1.337-1.785 1.901-2.721l.543-.896c.32-.059.706-.151 1.141-.277-.006.02-1.664 2.806-1.495 4.189.053.422.012 1.963 1.517 2.431 2.006.336 3.607-1.219 5.02-2.602l.377-.362-.079.322c-.587 2.042.204 2.471.699 2.629 1.496.435 3.284-1.739 3.289-1.739-.046.685-.182 1.251.54 1.706.681.244 1.371-.128 1.895-.477 1.888-1.331 3.409-3.413 4.637-5.213h-.784c-.009 0-1.933 2.789-3.183 3.396-.002 0-.229.117-.36.024-.162-.139-.098-.426.002-.63.006-.013 4.824-8.371 4.824-8.371H31.45l-.269.428c-.015-.013-.052-.082-.077-.115-1.409-1.95-4.601 1.049-7.004 4.527-.925 1.337-2.103 2.843-3.324 3.93 0 0-1.809 1.659-2.582.467-.283-.501-.196-1.233-.036-1.713.9-2.563 2.451-4.888 4.216-6.291.498-.388 1.04-.501 1.308-.336.256.152.297.527.135.784a1.27 1.27 0 0 0-1.008.388c-.527.553-.711 1.087-.543 1.588.815 1.159 2.439-1.133 2.361-2.53-.028-.501-.295-.975-.694-1.206-.594-.356-1.5-.263-2.087.02-.785.296-2.028 1.33-2.754 2.134-.913 1.008-2.48 2.128-2.969 2.002.161-.428 1.484-3.136.092-4.15zm10.967 4.005c.443-.613 1.73-2.253 2.044-2.529 1.056-.929 1.478-.52 1.515-.231l-3.242 5.606c.002-.006-.342.52-.342.52-.483.738-.969 1.37-1.763 1.811-.113.033-.3.046-.424-.046-.149-.099-.208-.264-.192-.435.048-.566.624-2.299 2.404-4.697zm-12.375 1.061l-.03.079c-.002 0-.992 1.614-.992 1.614-.597.797-1.343 1.799-2.274 2.28-.276.092-.658.152-.853-.092-.412-.494-.2-1.179-.027-1.733l.061-.198c.495-1.344 1.281-2.53 2.046-3.63.01-.006.031-.013.039-.013.002.007.005.007.006.02.48.922 1.38 1.35 2.053 1.548.004 0 .008.007.008.02 0 .02-.011.046-.037.105zm.937-1.904c-.004.013-.441 1.014-.441 1.014-.063.053-.163.026-.277 0l-.196-.033c-.615-.191-1.079-.599-1.222-1.087-.197-.949.613-1.693.97-1.963.342-.237.875-.362 1.184-.119.191.224.263.514.263.83 0 .428-.132.909-.282 1.357zm28.759 3.057c-.219-.474-.74-.777-1.295-.744-1.802.165-3.565 1.647-4.49 3.774-.486 1.094-.751 1.996-.925 3.432.56-.645 1.703-1.706 3.001-2.286 0 0 .176-1.377 1.076-2.602.341-.507 1.022-1.324 1.787-1.107.669.224.434 2.075-.455 3.866-.657 1.318-1.664 2.635-2.682 3.544-.9.764-2.232 1.686-3.397.975-.734-.434-1.108-1.344-1.029-2.516.351-3.326 1.865-6.159 4.031-9.387 2.234-2.997 4.697-6.073 8.015-7.714.677-.342 1.303-.421 1.845-.211 0 0-3.114 1.713-4.599 4.881-.378.804-.903 1.89-.374 2.852.276.501.767.54 1.162.514 1.82-.422 2.995-2.121 3.956-3.676.557-1.179 1.052-2.352 1.052-3.656 0-.158-.008-.369-.022-.527.869-.461 2.652.356 2.652.356 1.393.461 4.359 2.734 5.36 3.169.488-.566 1.29-1.423 1.742-1.851l-.654-.402c-1.047-.639-2.153-1.245-3.242-1.844-2.473-1.35-4.486-.876-5.511-.507l-.771.27c-.76-.83-2.007-.751-2.926-.527-3.304.948-6.372 3.26-9.661 7.272-2.418 3.142-3.918 5.856-4.718 8.537-.616 1.805-.804 4.459.701 6.034 1.279 1.337 2.974 1.047 4.172.567 2.594-1.278 4.926-4.032 6.088-7.2.28-.942.592-2.272.109-3.287zm5.966-9.927c-.343 3.939-3.405 6.251-4.163 6.436-.459.092-1.242-.112-.543-1.765 1.03-2.227 2.788-4.117 4.675-5.085.046.165.045.27.031.415zm18.162.5c-1.647.936-3.354 1.541-5.421 1.331l-1.644 1.996c2.901.738 5.976-.902 7.691-2.463C71.07 1.993 72 .011 72 .011s-1.36 1.554-3.37 2.694zm-31.124 3.28h-2.16l-1.219 1.98h2.16l1.219-1.98z"/><path d="M63.2 20.753c-.232.158-.559.037-.437-.326.304-.922 1.512-2.802 1.512-2.802l3.366-5.97h-2.305l-.344.593c-.107-.178-.426-.573-.557-.658-.563-.356-1.39-.188-1.96.135-2.478 1.449-4.287 4.313-5.713 6.546 0 0-1.501 2.483-2.335 2.667-.651.053-.584-.824-.555-1.028.252-1.476.836-2.879 1.424-4.15 1.197-.83 2.563-1.917 3.805-3.109 2.694-2.576 4.966-5.494 5.298-6.146 0 0-.359.073-.784.086-2.073 2.892-6.315 7.095-7.601 7.72.57-1.37 4.25-7.912 7.383-11.04l.493-.474c.762-.744 1.552-1.508 2.167-1.634.065-.007.149 0 .221.152.027.58-.188 1.008-.436 1.495l-.347.712s.491-.092.814-.198c.374-.705.789-1.495.636-2.437-.051-.303-.27-.534-.557-.586-.934-.178-1.953.514-2.772 1.074l-.033.02c-4.212 3.3-7.769 8.056-10.879 14.552-.225.171-1.096.375-1.244.276.307-.632.694-1.482.887-2.404.033-.264.065-.533.065-.797 0-.567-.136-1.1-.644-1.469-.595-.296-1.331-.158-1.827.066-2.223.922-3.884 3.202-5.083 5.079-.645 1.193-1.288 2.47-1.466 3.933-.125 1.146.13 1.884.781 2.253.67.342 1.513-.014 1.845-.185 2.252-1.186 3.825-3.564 5.066-5.738.049-.006.727-.026 1.239-.158.007 0 .01 0 .021.007-.029.098-.294.889-.294.889-.786 2.305-1.15 3.873-.407 4.802 1.061 1.311 2.818-.046 4.246-1.838-.307 2.147.806 2.484 1.654 2.319.974-.263 2.06-1.305 2.564-1.838-.162.626-.118 1.746.769 1.858.608.112 1.062-.218 1.588-.502 1.887-1.028 4.146-4.452 4.733-5.442h-.769c-.834 1.26-1.895 2.912-3.229 3.697zm-16.94-.229c-.12-.178-.159-.372-.163-.583-.023-1.292 1.367-3.605 2.347-4.865.413.9 1.344 1.479 1.906 1.723-.698 1.555-3.091 4.884-4.09 3.725zm4.484-4.42c-.066.046-1.24-.349-1.467-1.436-.193-.936.452-1.667 1.075-2.035a1.08 1.08 0 0 1 .966-.178c.274.185.349.514.349.87 0 .218-.029.442-.054.646l-.006.046c-.196.731-.495 1.449-.863 2.088zm9.414 4.005c-.001 0-.223.198-.223.198-.317.283-.642.586-1.036.434-.109-.04-.185-.184-.203-.297-.018-.81.347-1.561.701-2.292l.091-.191c1.018-1.7 2.201-3.702 3.938-5.092.293-.211.61-.389.946-.25.077.072.167.198.167.323 0 .04-.035.145-.055.178-.485.784-.947 1.608-1.397 2.398-.878 1.561-1.789 3.175-2.928 4.592z"/></svg>