<svg xmlns="http://www.w3.org/2000/svg" width="94" height="27" fill="none" xmlns:v="https://vecta.io/nano"><path d="M12.05 7.444c.713.899 1.644 1.597 2.698 2.063s2.202.651 3.35.574c.047 0 .093 0 .14.031.047.015.078.047.109.093s.031.093.031.124c0 .047-.015.093-.046.124-.636.961-1.024 2.063-1.132 3.21s.062 2.295.496 3.365a.43.43 0 0 1 .015.14c0 .046-.031.093-.062.124s-.062.062-.108.078-.093.015-.14 0c-1.117-.31-2.28-.326-3.396-.078s-2.171.76-3.055 1.504c-.031.031-.078.046-.124.046s-.093 0-.14-.015-.078-.046-.109-.078-.047-.077-.047-.124c-.062-1.148-.388-2.264-.977-3.257a7.13 7.13 0 0 0-2.373-2.435l-.093-.093c-.016-.046-.031-.093-.031-.124 0-.046.016-.093.047-.124s.062-.062.109-.077c1.07-.403 2.032-1.07 2.791-1.923a7.13 7.13 0 0 0 1.582-3.009.25.25 0 0 1 .062-.109c.031-.031.078-.047.124-.062s.093 0 .14 0c.078-.031.124 0 .139.031zm1.008-4.683c2.031 0 4.032.605 5.722 1.737s3.009 2.745 3.784 4.621.977 3.955.589 5.955a10.33 10.33 0 0 1-8.095 8.095c-2 .403-4.063.186-5.955-.589-1.876-.775-3.489-2.094-4.621-3.784-1.117-1.706-1.721-3.706-1.721-5.738 0-2.729 1.086-5.35 3.024-7.273 1.923-1.938 4.544-3.024 7.273-3.024zm0-2.76C10.468 0 7.956.76 5.8 2.202A13.16 13.16 0 0 0 .993 8.064C0 10.452-.248 13.073.248 15.601s1.752 4.854 3.567 6.684c1.83 1.83 4.156 3.071 6.684 3.567s5.164.248 7.537-.744a13.16 13.16 0 0 0 5.862-4.808c1.442-2.14 2.202-4.668 2.202-7.258 0-3.458-1.38-6.777-3.831-9.227A13.04 13.04 0 0 0 13.058 0zm18.067 15.074h2.125c0 .822.76 1.535 2.016 1.535s2.032-.558 2.032-1.334c0-.698-.589-1.054-1.396-1.225l-1.473-.341c-2.032-.512-2.977-1.504-2.977-3.055 0-1.69 1.613-3.055 3.877-3.055 1.876 0 3.877.946 3.877 3.117h-2.187c0-.76-.822-1.272-1.628-1.272-.962 0-1.613.558-1.613 1.272 0 .636.636 1.008 1.318 1.163l1.659.388c2.342.558 2.854 1.939 2.854 3.055 0 1.97-2.063 3.133-4.311 3.133-2.047 0-4.141-1.225-4.172-3.381zm9.491-2.078c0-3.303 2.621-5.381 5.738-5.381s5.754 2.094 5.754 5.381c0 3.303-2.652 5.459-5.769 5.459-3.102 0-5.723-2.156-5.723-5.459zm9.196 0c0-2-1.597-3.35-3.458-3.35-1.876 0-3.443 1.334-3.443 3.35 0 2.032 1.566 3.381 3.443 3.381 1.861 0 3.458-1.349 3.458-3.381zm10.964-4.994l-.403 2.078c-.512-.217-1.055-.341-1.613-.357-1.985 0-2.916 1.97-2.916 4.792v3.737h-2.326V7.847h2.326v2.342c.558-1.83 1.659-2.559 3.071-2.559.729-.016 1.52.155 1.861.372zm11.833-.171v10.406h-2.295v-1.551c-.729 1.179-2.295 1.784-3.769 1.784-2.977 0-5.428-2.14-5.428-5.428 0-3.319 2.45-5.412 5.397-5.412 1.551 0 3.071.574 3.784 1.752V7.832h2.311zm-2.311 5.164c0-2.094-1.799-3.319-3.489-3.319-1.876 0-3.381 1.365-3.381 3.319 0 1.939 1.52 3.381 3.381 3.381 1.845 0 3.489-1.272 3.489-3.381zM81.65 8.002l-.403 2.078c-.512-.217-1.055-.341-1.613-.357-1.985 0-2.916 1.97-2.916 4.792v3.737h-2.311V7.847h2.326v2.342c.558-1.83 1.659-2.559 3.071-2.559.713-.016 1.504.155 1.845.372zm11.352 5.909h-8.715c.295 1.69 1.613 2.512 3.381 2.512 1.256 0 2.45-.512 3.071-1.473l1.83.868c-.962 1.737-2.916 2.636-5.009 2.636-3.148 0-5.629-2.156-5.629-5.459s2.528-5.381 5.629-5.381 5.474 2.094 5.474 5.366c.016.295-.016.605-.031.931zm-2.233-1.752c-.202-1.628-1.473-2.512-3.148-2.512s-2.947.806-3.272 2.512h6.42z" fill="#fff"/></svg>