<svg xmlns="http://www.w3.org/2000/svg" xmlns:xlink="http://www.w3.org/1999/xlink" width="115" height="10" fill="none" xmlns:v="https://vecta.io/nano"><g fill="#fff"><use xlink:href="#B"/><use xlink:href="#C"/><use xlink:href="#D"/><use xlink:href="#E"/><use xlink:href="#F"/><use xlink:href="#G"/><use xlink:href="#H"/><use xlink:href="#B"/><use xlink:href="#C"/><use xlink:href="#D"/><use xlink:href="#E"/><use xlink:href="#F"/><use xlink:href="#G"/><path d="M99.327 3.696h1.791v5.706h-1.791V3.696zm-49.412 3.89a.63.63 0 0 1-.306-.083.62.62 0 0 1-.225-.221l-.477-.786a3.21 3.21 0 0 0 1.69-1.199 3.12 3.12 0 0 0 .586-1.966c-.004-1.572-1.03-3.262-3.272-3.262h-5.219v9.335h1.791V6.577h2.341l.929 1.539c.384.624.686 1.283 1.934 1.283h2.593V7.586h-2.363zm-1.952-2.802H44.48v-2.87h3.483c.394-.01.771.153 1.03.444a1.6 1.6 0 0 1 0 1.977c-.259.291-.637.454-1.03.444v.005z"/><use xlink:href="#H"/></g><defs ><path id="B" d="M34.715 5.572h4.926V3.881h-4.926V1.914h5.652V.067h-7.444v9.337h7.444V7.586h-5.652V5.572zM7.501 3.801H1.793V.067H0v9.328h1.793V5.662h5.706v3.733H9.29V.067H7.501v3.734zM56.036.067h-1.791v9.337h7.411V7.586h-5.617L56.036.067z"/><path id="C" d="M67.513 0c-2.671 0-4.685 2.06-4.685 4.792-.022 1.261.454 2.49 1.33 3.418.878.893 2.092 1.39 3.355 1.374 2.671 0 4.685-2.06 4.685-4.792S70.186 0 67.513 0zm2.812 4.792c0 1.792-1.134 2.91-2.811 2.91s-2.811-1.119-2.811-2.91 1.133-2.91 2.811-2.91 2.811 1.119 2.811 2.91z"/><path id="D" d="M78.525 0c-2.671 0-4.685 2.06-4.685 4.792-.022 1.261.454 2.49 1.33 3.418.878.893 2.092 1.39 3.355 1.374 2.671 0 4.685-2.06 4.685-4.792S81.196 0 78.525 0zm2.811 4.792c0 1.792-1.134 2.91-2.811 2.91s-2.811-1.119-2.811-2.91 1.134-2.91 2.811-2.91 2.811 1.119 2.811 2.91z"/><path id="E" d="M90.401.067h-5.219v9.337h1.791V6.628h3.429c2.256-.014 3.277-1.719 3.273-3.297S92.643.067 90.401.067zm1.427 3.284a1.52 1.52 0 0 1-.342.989c-.128.144-.287.258-.465.335s-.371.114-.565.11h-3.484v-2.87h3.484c.194-.005.387.033.565.11s.337.191.465.335a1.52 1.52 0 0 1 .342.989v.004z"/><path id="F" d="M27.695.067h-5.219v9.337h1.791V6.628h3.429c2.256-.014 3.277-1.719 3.273-3.297S29.938.067 27.695.067zm1.427 3.284a1.52 1.52 0 0 1-.343.989c-.259.291-.637.454-1.03.444h-3.483v-2.87h3.485c.394-.01.77.153 1.03.444a1.52 1.52 0 0 1 .343.989l-.002.004z"/><path id="G" d="M18.057.067h2.195l-4.025 6.397v2.931H14.4V6.463L10.376.067h2.195l2.742 4.501L18.057.067z"/><path id="H" d="M95.822.066h8.859v1.761h-8.859V.066zm13.821 3.63h1.791v5.706h-1.791V3.696zm-3.506-3.63h8.859v1.761h-8.859V.066z"/></defs></svg>